<mxfile host="Electron" agent="Mozilla/5.0 (Macintosh; Intel Mac OS X 10_15_7) AppleWebKit/537.36 (KHTML, like Gecko) draw.io/27.0.9 Chrome/134.0.6998.205 Electron/35.4.0 Safari/537.36" version="27.0.9">
  <diagram name="Seite-1" id="h4ZkZE2lBscFMw6prQ2f">
    <mxGraphModel dx="1383" dy="2164" grid="1" gridSize="10" guides="1" tooltips="1" connect="1" arrows="1" fold="1" page="1" pageScale="1" pageWidth="827" pageHeight="1169" math="0" shadow="0">
      <root>
        <mxCell id="0" />
        <mxCell id="1" parent="0" />
        <mxCell id="K5LBCP5YOzzzBYWWrjXk-23" value="&lt;div&gt;&lt;b style=&quot;&quot;&gt;&lt;font face=&quot;Verdana&quot; style=&quot;color: rgb(255, 0, 0); font-size: 16px;&quot;&gt;Missing label&lt;/font&gt;&lt;/b&gt;&lt;/div&gt;" style="text;html=1;align=center;verticalAlign=middle;whiteSpace=wrap;rounded=0;" parent="1" vertex="1">
          <mxGeometry x="430" y="-921" width="110" height="46" as="geometry" />
        </mxCell>
        <mxCell id="K5LBCP5YOzzzBYWWrjXk-25" value="&lt;div&gt;&lt;b style=&quot;&quot;&gt;&lt;font face=&quot;Verdana&quot; style=&quot;color: rgb(255, 0, 0); font-size: 16px;&quot;&gt;2.1:1&lt;/font&gt;&lt;/b&gt;&lt;/div&gt;" style="text;html=1;align=center;verticalAlign=middle;whiteSpace=wrap;rounded=0;" parent="1" vertex="1">
          <mxGeometry x="430" y="-813" width="110" height="46" as="geometry" />
        </mxCell>
        <mxCell id="K5LBCP5YOzzzBYWWrjXk-29" value="" style="endArrow=none;html=1;rounded=0;strokeColor=#808080;" parent="1" edge="1">
          <mxGeometry width="50" height="50" relative="1" as="geometry">
            <mxPoint x="540" y="-720" as="sourcePoint" />
            <mxPoint x="539.29" y="-1160" as="targetPoint" />
          </mxGeometry>
        </mxCell>
        <mxCell id="Alp5XPQn2nxa5z0a9zQi-1" value="" style="shape=image;verticalLabelPosition=bottom;labelBackgroundColor=default;verticalAlign=top;aspect=fixed;imageAspect=0;image=data:image/png,iVBORw0KGgoAAAANSUhEUgAAAwoAAANwCAYAAACPgZ2GAAAMS2lDQ1BJQ0MgUHJvZmlsZQAASImVVwdck0cbv3dkQggQiICMsJcgIiOAjBBW2BtBVEISIIwYE4KKGylWsG4RwVHRKkNxVUCKC7VqpSjuXRyoKLVYi1v5LgTQ0m/8vsvv7v7533P/e57nvXccAPQuvlSai2oCkCfJl8UG+7MmJ6ewSD2AAHThjwpYfIFcyomODgewDPd/L6+vAUTZX3ZQav1z/L8WLaFILgAAiYY4XSgX5EH8IwB4q0AqyweAKIW8+ax8qRKvg1hHBh2EuEaJM1W4VYnTVfjioE18LBfiRwCQ1fl8WSYAGn2QZxUIMqEOHUYLnCRCsQRiP4h98vJmCCFeBLENtIFr0pX67PSvdDL/ppk+osnnZ45gVSyDhRwglktz+XP+z3T875KXqxhewxpW9SxZSKwyZpi3RzkzwpRYHeK3kvTIKIi1AUBxsXDQXomZWYqQBJU9aiOQc2HOABPiSfLcON4QHyvkB4RBbAhxhiQ3MnzIpihDHKS0gflDK8T5vHiI9SCuEckD44ZsjstmxA6vey1DxuUM8U/5skEflPqfFTkJHJU+pp0l4g3pY46FWfFJEFMhDigQJ0ZCrAFxpDwnLmzIJrUwixs5bCNTxCpjsYBYJpIE+6v0sfIMWVDskH1dnnw4dux4lpgXOYQv5WfFh6hyhT0S8Af9h7FgfSIJJ2FYRySfHD4ci1AUEKiKHSeLJAlxKh7Xk+b7x6rm4nbS3Oghe9xflBus5M0gjpcXxA3PLciHm1Olj5dI86PjVX7ildn80GiVP/g+EA64IACwgALWdDADZANxR29TL/ynGgkCfCADmUAEHIaY4RlJgyMS2MaBQvA7RCIgH5nnPzgqAgWQ/zSKVXLiEU7VOoCMoTGlSg54DHEeCAO58L9iUEky4kEieAQZ8T884sMqgDHkwqoc//f8MPuF4UAmfIhRDK/Iog9bEgOJAcQQYhDRFjfAfXAvPBy2frA642zcYziOL/aEx4ROwgPCVUIX4eZ0cZFslJcRoAvqBw3lJ/3r/OBWUNMV98e9oTpUxpm4AXDAXeA6HNwXruwKWe6Q38qssEZp/y2Cr67QkB3FiYJSxlD8KDajZ2rYabiOqChz/XV+VL6mj+SbOzIyen3uV9kXwj5stCX2LXYQO4OdwM5hrVgTYGHHsGasHTuixCM77tHgjhteLXbQnxyoM3rPfLmyykzKneqdepw+qsbyRbPzlTcjd4Z0jkycmZXP4sA3hojFkwgcx7GcnZxdAVC+f1SPt1cxg+8VhNn+hVvyGwDexwYGBn76woUeA2C/O3wkHP7C2bDhq0UNgLOHBQpZgYrDlQ0BPjno8O7TB8bAHNjAeJyBG/ACfiAQhIIoEA+SwTTofRbc5zIwC8wDi0EJKAOrwHpQCbaC7aAG7AEHQBNoBSfAz+A8uAiugttw93SD56APvAYfEAQhITSEgegjJoglYo84I2zEBwlEwpFYJBlJQzIRCaJA5iFLkDJkDVKJbENqkf3IYeQEcg7pRG4i95Ee5E/kPYqh6qgOaoRaoeNRNspBw9B4dCqaic5EC9FidAVagVaju9FG9AR6Hr2KdqHP0X4MYGoYEzPFHDA2xsWisBQsA5NhC7BSrByrxhqwFnidL2NdWC/2DifiDJyFO8AdHIIn4AJ8Jr4AX45X4jV4I34Kv4zfx/vwzwQawZBgT/Ak8AiTCZmEWYQSQjlhJ+EQ4TS8l7oJr4lEIpNoTXSH92IyMZs4l7icuJm4l3ic2El8SOwnkUj6JHuSNymKxCflk0pIG0m7ScdIl0jdpLdkNbIJ2ZkcRE4hS8hF5HJyHfko+RL5CfkDRZNiSfGkRFGElDmUlZQdlBbKBUo35QNVi2pN9abGU7Opi6kV1Abqaeod6is1NTUzNQ+1GDWx2iK1CrV9amfV7qu9U9dWt1PnqqeqK9RXqO9SP65+U/0VjUazovnRUmj5tBW0WtpJ2j3aWw2GhqMGT0OosVCjSqNR45LGCzqFbknn0KfRC+nl9IP0C/ReTYqmlSZXk6+5QLNK87Dmdc1+LYbWBK0orTyt5Vp1Wue0nmqTtK20A7WF2sXa27VPaj9kYAxzBpchYCxh7GCcZnTrEHWsdXg62TplOnt0OnT6dLV1XXQTdWfrVuke0e1iYkwrJo+Zy1zJPMC8xnw/xmgMZ4xozLIxDWMujXmjN1bPT0+kV6q3V++q3nt9ln6gfo7+av0m/bsGuIGdQYzBLIMtBqcNesfqjPUaKxhbOvbA2FuGqKGdYazhXMPthu2G/UbGRsFGUqONRieNeo2Zxn7G2cbrjI8a95gwTHxMxCbrTI6ZPGPpsjisXFYF6xSrz9TQNMRUYbrNtMP0g5m1WYJZkdles7vmVHO2eYb5OvM28z4LE4sIi3kW9Ra3LCmWbMssyw2WZyzfWFlbJVkttWqyemqtZ82zLrSut75jQ7PxtZlpU21zxZZoy7bNsd1se9EOtXO1y7Krsrtgj9q72YvtN9t3jiOM8xgnGVc97rqDugPHocCh3uG+I9Mx3LHIscnxxXiL8SnjV48/M/6zk6tTrtMOp9sTtCeETiia0DLhT2c7Z4FzlfOVibSJQRMXTmye+NLF3kXkssXlhivDNcJ1qWub6yc3dzeZW4Nbj7uFe5r7JvfrbB12NHs5+6wHwcPfY6FHq8c7TzfPfM8Dnn94OXjleNV5PZ1kPUk0acekh95m3nzvbd5dPiyfNJ/vfbp8TX35vtW+D/zM/YR+O/2ecGw52ZzdnBf+Tv4y/0P+b7ie3Pnc4wFYQHBAaUBHoHZgQmBl4L0gs6DMoPqgvmDX4LnBx0MIIWEhq0Ou84x4Al4try/UPXR+6Kkw9bC4sMqwB+F24bLwlgg0IjRibcSdSMtISWRTFIjiRa2NuhttHT0z+qcYYkx0TFXM49gJsfNiz8Qx4qbH1cW9jvePXxl/O8EmQZHQlkhPTE2sTXyTFJC0Jqlr8vjJ8yefTzZIFic3p5BSElN2pvRPCZyyfkp3qmtqSeq1qdZTZ089N81gWu60I9Pp0/nTD6YR0pLS6tI+8qP41fz+dF76pvQ+AVewQfBc6CdcJ+wReYvWiJ5keGesyXia6Z25NrMnyzerPKtXzBVXil9mh2RvzX6TE5WzK2cgNyl3bx45Ly3vsERbkiM5NcN4xuwZnVJ7aYm0a6bnzPUz+2Rhsp1yRD5V3pyvAz/02xU2im8U9wt8CqoK3s5KnHVwttZsyez2OXZzls15UhhU+MNcfK5gbts803mL592fz5m/bQGyIH1B20LzhcULuxcFL6pZTF2cs/jXIqeiNUV/LUla0lJsVLyo+OE3wd/Ul2iUyEquL/VauvVb/Fvxtx3LJi7buOxzqbD0lzKnsvKyj8sFy3/5bsJ3Fd8NrMhY0bHSbeWWVcRVklXXVvuurlmjtaZwzcO1EWsb17HWla77a/309efKXcq3bqBuUGzoqgivaN5osXHVxo+VWZVXq/yr9m4y3LRs05vNws2XtvhtadhqtLVs6/vvxd/f2Ba8rbHaqrp8O3F7wfbHOxJ3nPmB/UPtToOdZTs/7ZLs6qqJrTlV615bW2dYt7IerVfU9+xO3X1xT8Ce5gaHhm17mXvL9oF9in3P9qftv3Yg7EDbQfbBhh8tf9x0iHGotBFpnNPY15TV1NWc3Nx5OPRwW4tXy6GfHH/a1WraWnVE98jKo9SjxUcHjhUe6z8uPd57IvPEw7bpbbdPTj555VTMqY7TYafP/hz088kznDPHznqfbT3nee7wL+xfms67nW9sd20/9Kvrr4c63DoaL7hfaL7ocbGlc1Ln0Uu+l05cDrj88xXelfNXI692Xku4duN66vWuG8IbT2/m3nx5q+DWh9uL7hDulN7VvFt+z/Be9W+2v+3tcus6cj/gfvuDuAe3HwoePn8kf/Sxu/gx7XH5E5MntU+dn7b2BPVcfDblWfdz6fMPvSW/a/2+6YXNix//8PujvW9yX/dL2cuBP5e/0n+16y+Xv9r6o/vvvc57/eFN6Vv9tzXv2O/OvE96/+TDrI+kjxWfbD+1fA77fGcgb2BAypfxBz8FMKA82mQA8OcuAGjJADDguZE6RXU+HCyI6kw7iMB/wqoz5GBxA6ABftPH9MKvm+sA7NsBgBXUp6cCEE0DIN4DoBMnjtThs9zguVNZiPBs8H3Mp/S8dPBviupM+pXfo3ugVHUBo/t/ASVngw4IJLDzAAAAlmVYSWZNTQAqAAAACAAFARIAAwAAAAEAAQAAARoABQAAAAEAAABKARsABQAAAAEAAABSASgAAwAAAAEAAgAAh2kABAAAAAEAAABaAAAAAAAAAJAAAAABAAAAkAAAAAEAA5KGAAcAAAASAAAAhKACAAQAAAABAAADCqADAAQAAAABAAADcAAAAABBU0NJSQAAAFNjcmVlbnNob3Tf8skUAAAACXBIWXMAABYlAAAWJQFJUiTwAAAC22lUWHRYTUw6Y29tLmFkb2JlLnhtcAAAAAAAPHg6eG1wbWV0YSB4bWxuczp4PSJhZG9iZTpuczptZXRhLyIgeDp4bXB0az0iWE1QIENvcmUgNi4wLjAiPgogICA8cmRmOlJERiB4bWxuczpyZGY9Imh0dHA6Ly93d3cudzMub3JnLzE5OTkvMDIvMjItcmRmLXN5bnRheC1ucyMiPgogICAgICA8cmRmOkRlc2NyaXB0aW9uIHJkZjphYm91dD0iIgogICAgICAgICAgICB4bWxuczpleGlmPSJodHRwOi8vbnMuYWRvYmUuY29tL2V4aWYvMS4wLyIKICAgICAgICAgICAgeG1sbnM6dGlmZj0iaHR0cDovL25zLmFkb2JlLmNvbS90aWZmLzEuMC8iPgogICAgICAgICA8ZXhpZjpVc2VyQ29tbWVudD5TY3JlZW5zaG90PC9leGlmOlVzZXJDb21tZW50PgogICAgICAgICA8ZXhpZjpQaXhlbFhEaW1lbnNpb24+Nzc4PC9leGlmOlBpeGVsWERpbWVuc2lvbj4KICAgICAgICAgPGV4aWY6UGl4ZWxZRGltZW5zaW9uPjg4MDwvZXhpZjpQaXhlbFlEaW1lbnNpb24+CiAgICAgICAgIDx0aWZmOlJlc29sdXRpb25Vbml0PjI8L3RpZmY6UmVzb2x1dGlvblVuaXQ+CiAgICAgICAgIDx0aWZmOlhSZXNvbHV0aW9uPjE0NC8xPC90aWZmOlhSZXNvbHV0aW9uPgogICAgICAgICA8dGlmZjpZUmVzb2x1dGlvbj4xNDQvMTwvdGlmZjpZUmVzb2x1dGlvbj4KICAgICAgICAgPHRpZmY6T3JpZW50YXRpb24+MTwvdGlmZjpPcmllbnRhdGlvbj4KICAgICAgPC9yZGY6RGVzY3JpcHRpb24+CiAgIDwvcmRmOlJERj4KPC94OnhtcG1ldGE+Cm/3on4AAEAASURBVHgB7N0HtB1XfS/+rWI127Kt4l5kW7hXsMEQDDZhQaiJbR4YSExNMC1AHo8E1gvh//L8f8kjIZAQSBYQSoDYgQCBgCkhJoRiY3DvvTdZsixZVpfe+Q2ew9wmXekc7TP73s+wru45c2Zm7/n87jLzPTN7ZsoZ5164OZkIECBAgAABAgQIECDQEJjaeO0lAQIECBAgQIAAAQIEKgFBwR8CAQIECBAgQIAAAQIjBASFESRmECBAgAABAgQIECAgKPgbIECAAAECBAgQIEBghICgMILEDAIECBAgQIAAAQIEBAV/AwQIECBAgAABAgQIjBAQFEaQmEGAAAECBAgQIECAgKDgb4AAAQIECBAgQIAAgRECgsIIEjMIECBAgAABAgQIEBAU/A0QIECAAAECBAgQIDBCQFAYQWIGAQIECBAgQIAAAQKCgr8BAgQIECBAgAABAgRGCAgKI0jMIECAAAECBAgQIEBAUPA3QIAAAQIECBAgQIDACAFBYQSJGQQIECBAgAABAgQICAr+BggQIECAAAECBAgQGCEgKIwgMYMAAQIECBAgQIAAAUHB3wABAgQIECBAgAABAiMEBIURJGYQIECAAAECBAgQICAo+BsgQIAAAQIECBAgQGCEgKAwgsQMAgQIECBAgAABAgQEBX8DBAgQIECAAAECBAiMEBAURpCYQYAAAQIECBAgQICAoOBvgAABAgQIECBAgACBEQKCwggSMwgQIECAAAECBAgQEBT8DRAgQIAAAQIECBAgMEJAUBhBYgYBAgQIECBAgAABAoKCvwECBAgQIECAAAECBEYICAojSMwgQIAAAQIECBAgQEBQ8DdAgAABAgQIECBAgMAIAUFhBIkZBAgQIECAAAECBAgICv4GCBAgQIAAAQIECBAYISAojCAxgwABAgQIECBAgAABQcHfAAECBAgQIECAAAECIwQEhREkZhAgQIAAAQIECBAgMB0BgYki8J3PrZgou2I/CBAgQCCjwPPPmZuxNU0RKEfAGYVyaqWnBAgQIECAAAECBLIJCArZqDVEgAABAgQIECBAoBwBQaGcWukpAQIECBAgQIAAgWwCgkI2ag0RIECAAAECBAgQKEdAUCinVnpKgAABAgQIECBAIJuAoJCNWkMECBAgQIAAAQIEyhEQFMqplZ4SIECAAAECBAgQyCYgKGSj1hABAgQIECBAgACBcgQEhXJqpacECBAgQIAAAQIEsgkICtmoNUSAAAECBAgQIECgHAFBoZxa6SkBAgQIECBAgACBbAKCQjZqDREgQIAAAQIECBAoR0BQKKdWekqAAAECBAgQIEAgm4CgkI1aQwQIECBAgAABAgTKERAUyqmVnhIgQIAAAQIECBDIJiAoZKPWEAECBAgQIECAAIFyBASFcmqlpwQIECBAgAABAgSyCQgK2ag1RIAAAQIECBAgQKAcAUGhnFrpKQECBAgQIECAAIFsAoJCNmoNESBAgAABAgQIEChHQFAop1Z6SoAAAQIECBAgQCCbgKCQjVpDBAgQIECAAAECBMoREBTKqZWeEiBAgAABAgQIEMgmIChko9YQAQIECBAgQIAAgXIEBIVyaqWnBAgQIECAAAECBLIJCArZqDVEgAABAgQIECBAoBwBQaGcWukpAQIECBAgQIAAgWwCgkI2ag0RIECAAAECBAgQKEdAUCinVnpKgAABAgQIECBAIJuAoJCNWkMECBAgQIAAAQIEyhEQFMqplZ4SIECAAAECBAgQyCYgKGSj1hABAgQIECBAgACBcgQEhXJqpacECBAgQIAAAQIEsgkICtmoNUSAAAECBAgQIECgHAFBoZxa6SkBAgQIECBAgACBbAKCQjZqDREgQIAAAQIECBAoR0BQKKdWekqAAAECBAgQIEAgm4CgkI1aQwQIECBAgAABAgTKERAUyqmVnhIgQIAAAQIECBDIJiAoZKPWEAECBAgQIECAAIFyBASFcmqlpwQIECBAgAABAgSyCQgK2ag1RIAAAQIECBAgQKAcAUGhnFrpKQECBAgQIECAAIFsAoJCNmoNESBAgAABAgQIEChHQFAop1Z6SoAAAQIECBAgQCCbgKCQjVpDBAgQIECAAAECBMoREBTKqZWeEiBAgAABAgQIEMgmIChko9YQAQIECBAgQIAAgXIEBIVyaqWnBAgQIECAAAECBLIJCArZqDVEgAABAgQIECBAoBwBQaGcWukpAQIECBAgQIAAgWwCgkI2ag0RIECAAAECBAgQKEdAUCinVnpKgAABAgQIECBAIJuAoJCNWkMECBAgQIAAAQIEyhEQFMqplZ4SIECAAAECBAgQyCYgKGSj1hABAgQIECBAgACBcgQEhXJqpacECBAgQIAAAQIEsgkICtmoNUSAAAECBAgQIECgHAFBoZxa6SkBAgQIECBAgACBbAKCQjZqDREgQIAAAQIECBAoR0BQKKdWekqAAAECBAgQIEAgm4CgkI1aQwQIECBAgAABAgTKERAUyqmVnhIgQIAAAQIECBDIJiAoZKPWEAECBAgQIECAAIFyBASFcmqlpwQIECBAgAABAgSyCQgK2ag1RIAAAQIECBAgQKAcAUGhnFrpKQECBAgQIECAAIFsAoJCNmoNESBAgAABAgQIEChHQFAop1Z6SoAAAQIECBAgQCCbgKCQjVpDBAgQIECAAAECBMoREBTKqZWeEiBAgAABAgQIEMgmIChko9YQAQIECBAgQIAAgXIEBIVyaqWnBAgQIECAAAECBLIJCArZqDVEgAABAgQIECBAoBwBQaGcWukpAQIECBAgQIAAgWwCgkI2ag0RIECAAAECBAgQKEdAUCinVnpKgAABAgQIECBAIJuAoJCNWkMECBAgQIAAAQIEyhEQFMqplZ4SIECAAAECBAgQyCYgKGSj1hABAgQIECBAgACBcgQEhXJqpacECBAgQIAAAQIEsgkICtmoNUSAAAECBAgQIECgHAFBoZxa6SkBAgQIECBAgACBbAKCQjZqDREgQIAAAQIECBAoR0BQKKdWekqAAAECBAgQIEAgm4CgkI1aQwQIECBAgAABAgTKERAUyqmVnhIgQIAAAQIECBDIJiAoZKPWEAECBAgQIECAAIFyBASFcmqlpwQIECBAgAABAgSyCQgK2ag1RIAAAQIECBAgQKAcAUGhnFrpKQECBAgQIECAAIFsAoJCNmoNESBAgAABAgQIEChHQFAop1Z6SoAAAQIECBAgQCCbgKCQjVpDBAgQIECAAAECBMoREBTKqZWeEiBAgAABAgQIEMgmIChko9YQAQIECBAgQIAAgXIEBIVyaqWnBAgQIECAAAECBLIJCArZqDVEgAABAgQIECBAoBwBQaGcWukpAQIECBAgQIAAgWwCgkI2ag0RIECAAAECBAgQKEdAUCinVnpKgAABAgQIECBAIJuAoJCNWkMECBAgQIAAAQIEyhEQFMqplZ4SIECAAAECBAgQyCYgKGSj1hABAgQIECBAgACBcgQEhXJqpacECBAgQIAAAQIEsgkICtmoNUSAAAECBAgQIECgHAFBoZxa6SkBAgQIECBAgACBbAKCQjZqDREgQIAAAQIECBAoR0BQKKdWekqAAAECBAgQIEAgm4CgkI1aQwQIECBAgAABAgTKERAUyqmVnhIgQIAAAQIECBDIJiAoZKPWEAECBAgQIECAAIFyBASFcmqlpwQIECBAgAABAgSyCQgK2ag1RIAAAQIECBAgQKAcAUGhnFrpKQECBAgQIECAAIFsAoJCNmoNESBAgAABAgQIEChHQFAop1Z6SoAAAQIECBAgQCCbgKCQjVpDBAgQIECAAAECBMoREBTKqZWeEiBAgAABAgQIEMgmIChko9YQAQIECBAgQIAAgXIEBIVyaqWnBAgQIECAAAECBLIJCArZqDVEgAABAgQIECBAoBwBQaGcWukpAQIECBAgQIAAgWwCgkI2ag0RIECAAAECBAgQKEdAUCinVnpKgAABAgQIECBAIJuAoJCNWkMECBAgQIAAAQIEyhEQFMqplZ4SIECAAAECBAgQyCYgKGSj1hABAgQIECBAgACBcgQEhXJqpacECBAgQIAAAQIEsgkICtmoNUSAAAECBAgQIECgHAFBoZxa6SkBAgQIECBAgACBbAKCQjZqDREgQIAAAQIECBAoR0BQKKdWekqAAAECBAgQIEAgm4CgkI1aQwQIECBAgAABAgTKERAUyqmVnhIgQIAAAQIECBDIJiAoZKPWEAECBAgQIECAAIFyBASFcmqlpwQIECBAgAABAgSyCQgK2ag1RIAAAQIECBAgQKAcAUGhnFrpKQECBAgQIECAAIFsAoJCNmoNESBAgAABAgQIEChHQFAop1Z6SoAAAQIECBAgQCCbgKCQjVpDBAgQIECAAAECBMoREBTKqZWeEiBAgAABAgQIEMgmIChko9YQAQIECBAgQIAAgXIEBIVyaqWnBAgQIECAAAECBLIJCArZqDVEgAABAgQIECBAoBwBQaGcWukpAQIECBAgQIAAgWwCgkI2ag0RIECAAAECBAgQKEdAUCinVnpKgAABAgQIECBAIJuAoJCNWkMECBAgQIAAAQIEyhEQFMqplZ4SIECAAAECBAgQyCYgKGSj1hABAgQIECBAgACBcgQEhXJqpacECBAgQIAAAQIEsgkICtmoNUSAAAECBAgQIECgHAFBoZxa6SkBAgQIECBAgACBbAKCQjZqDREgQIAAAQIECBAoR0BQKKdWekqAAAECBAgQIEAgm4CgkI1aQwQIECBAgAABAgTKERAUyqmVnhIgQIAAAQIECBDIJiAoZKPWEAECBAgQIECAAIFyBASFcmqlpwQIECBAgAABAgSyCQgK2ag1RIAAAQIECBAgQKAcAUGhnFrpKQECBAgQIECAAIFsAoJCNmoNESBAgAABAgQIEChHQFAop1Z6SoAAAQIECBAgQCCbgKCQjVpDBAgQIECAAAECBMoREBTKqZWeEiBAgAABAgQIEMgmIChko9YQAQIECBAgQIAAgXIEBIVyaqWnBAgQIECAAAECBLIJCArZqDVEgAABAgQIECBAoBwBQaGcWukpAQIECBAgQIAAgWwCgkI2ag0RIECAAAECBAgQKEdAUCinVnpKgAABAgQIECBAIJuAoJCNWkMECBAgQIAAAQIEyhEQFMqplZ4SIECAAAECBAgQyCYgKGSj1hABAgQIECBAgACBcgQEhXJqpacECBAgQIAAAQIEsgkICtmoNUSAAAECBAgQIECgHAFBoZxa6SkBAgQIECBAgACBbAKCQjZqDREgQIAAAQIECBAoR0BQKKdWekqAAAECBAgQIEAgm4CgkI1aQwQIECBAgAABAgTKERAUyqmVnhIgQIAAAQIECBDIJiAoZKPWEAECBAgQIECAAIFyBASFcmqlpwQIECBAgAABAgSyCQgK2ag1RIAAAQIECBAgQKAcAUGhnFrpKQECBAgQIECAAIFsAoJCNmoNESBAgAABAgQIEChHQFAop1Z6SoAAAQIECBAgQCCbgKCQjVpDBAgQIECAAAECBMoREBTKqZWeEiBAgAABAgQIEMgmIChko9YQAQIECBAgQIAAgXIEBIVyaqWnBAgQIECAAAECBLIJCArZqDVEgAABAgQIECBAoBwBQaGcWukpAQIECBAgQIAAgWwCgkI2ag0RIECAAAECBAgQKEdAUCinVnpKgAABAgQIECBAIJuAoJCNWkMECBAgQIAAAQIEyhEQFMqplZ4SIECAAAECBAgQyCYgKGSj1hABAgQIECBAgACBcgQEhXJqpacECBAgQIAAAQIEsgkICtmoNUSAAAECBAgQIECgHAFBoZxa6SkBAgQIECBAgACBbAKCQjZqDREgQIAAAQIECBAoR0BQKKdWekqAAAECBAgQIEAgm4CgkI1aQwQIECBAgAABAgTKERAUyqmVnhIgQIAAAQIECBDIJiAoZKPWEAECBAgQIECAAIFyBASFcmqlpwQIECBAgAABAgSyCQgK2ag1RIAAAQIECBAgQKAcAUGhnFrpKQECBAgQIECAAIFsAoJCNmoNESBAgAABAgQIEChHQFAop1Z6SoAAAQIECBAgQCCbgKCQjVpDBAgQIECAAAECBMoREBTKqZWeEiBAgAABAgQIEMgmIChko9YQAQIECBAgQIAAgXIEBIVyaqWnBAgQIECAAAECBLIJCArZqDVEgAABAgQIECBAoBwBQaGcWukpAQIECBAgQIAAgWwCgkI2ag0RIECAAAECBAgQKEdAUCinVnpKgAABAgQIECBAIJuAoJCNWkMECBAgQIAAAQIEyhEQFMqplZ4SIECAAAECBAgQyCYgKGSj1hABAgQIECBAgACBcgQEhXJqpacECBAgQIAAAQIEsgkICtmoNUSAAAECBAgQIECgHAFBoZxa6SkBAgQIECBAgACBbAKCQjZqDREgQIAAAQIECBAoR0BQKKdWekqAAAECBAgQIEAgm4CgkI1aQwQIECBAgAABAgTKERAUyqmVnhIgQIAAAQIECBDIJiAoZKPWEAECBAgQIECAAIFyBASFcmqlpwQIECBAgAABAgSyCQgK2ag1RIAAAQIECBAgQKAcAUGhnFrpKQECBAgQIECAAIFsAoJCNmoNESBAgAABAgQIEChHQFAop1Z6SoAAAQIECBAgQCCbgKCQjVpDBAgQIECAAAECBMoREBTKqZWeEiBAgAABAgQIEMgmIChko9YQAQIECBAgQIAAgXIEBIVyaqWnBAgQIECAAAECBLIJCArZqDVEgAABAgQIECBAoBwBQaGcWukpAQIECBAgQIAAgWwCgkI2ag0RIECAAAECBAgQKEdAUCinVnpKgAABAgQIECBAIJuAoJCNWkMECBAgQIAAAQIEyhEQFMqplZ4SIECAAAECBAgQyCYgKGSj1hABAgQIECBAgACBcgQEhXJqpacECBAgQIAAAQIEsgkICtmoNUSAAAECBAgQIECgHAFBoZxa6SkBAgQIECBAgACBbAKCQjZqDREgQIAAAQIECBAoR0BQKKdWekqAAAECBAgQIEAgm4CgkI1aQwQIECBAgAABAgTKERAUyqmVnhIgQIAAAQIECBDIJiAoZKPWEAECBAgQIECAAIFyBASFcmqlpwQIECBAgAABAgSyCQgK2ag1RIAAAQIECBAgQKAcAUGhnFrpKQECBAgQIECAAIFsAoJCNmoNESBAgAABAgQIEChHQFAop1Z6SoAAAQIECBAgQCCbgKCQjVpDBAgQIECAAAECBMoREBTKqZWeEiBAgAABAgQIEMgmIChko9YQAQIECBAgQIAAgXIEBIVyaqWnBAgQIECAAAECBLIJCArZqDVEgAABAgQIECBAoBwBQaGcWukpAQIECBAgQIAAgWwCgkI2ag0RIECAAAECBAgQKEdAUCinVnpKgAABAgQIECBAIJuAoJCNWkMECBAgQIAAAQIEyhEQFMqplZ4SIECAAAECBAgQyCYgKGSj1hABAgQIECBAgACBcgQEhXJqpacECBAgQIAAAQIEsgkICtmoNUSAAAECBAgQIECgHAFBoZxa6SkBAgQIECBAgACBbAKCQjZqDREgQIAAAQIECBAoR0BQKKdWekqAAAECBAgQIEAgm4CgkI1aQwQIECBAgAABAgTKERAUyqmVnhIgQIAAAQIECBDIJiAoZKPWEAECBAgQIECAAIFyBASFcmqlpwQIECBAgAABAgSyCQgK2ag1RIAAAQIECBAgQKAcAUGhnFrpKQECBAgQIECAAIFsAoJCNmoNESBAgAABAgQIEChHQFAop1Z6SoAAAQIECBAgQCCbgKCQjVpDBAgQIECAAAECBMoREBTKqZWeEiBAgAABAgQIEMgmIChko9YQAQIECBAgQIAAgXIEBIVyaqWnBAgQIECAAAECBLIJCArZqDVEgAABAgQIECBAoBwBQaGcWukpAQIECBAgQIAAgWwCgkI2ag0RIECAAAECBAgQKEdAUCinVnpKgAABAgQIECBAIJuAoJCNWkMECBAgQIAAAQIEyhEQFMqplZ4SIECAAAECBAgQyCYgKGSj1hABAgQIECBAgACBcgQEhXJqpacECBAgQIAAAQIEsgkICtmoNUSAAAECBAgQIECgHAFBoZxa6SkBAgQIECBAgACBbAKCQjZqDREgQIAAAQIECBAoR0BQKKdWekqAAAECBAgQIEAgm4CgkI1aQwQIECBAgAABAgTKERAUyqmVnhIgQIAAAQIECBDIJiAoZKPWEAECBAgQIECAAIFyBASFcmqlpwQIECBAgAABAgSyCQgK2ag1RIAAAQIECBAgQKAcAUGhnFrpKQECBAgQIECAAIFsAoJCNmoNESBAgAABAgQIEChHQFAop1Z6SoAAAQIECBAgQCCbgKCQjVpDBAgQIECAAAECBMoREBTKqZWeEiBAgAABAgQIEMgmIChko9YQAQIECBAgQIAAgXIEBIVyaqWnBAgQIECAAAECBLIJCArZqDVEgAABAgQIECBAoBwBQaGcWukpAQIECBAgQIAAgWwCgkI2ag0RIECAAAECBAgQKEdAUCinVnpKgAABAgQIECBAIJuAoJCNWkMECBAgQIAAAQIEyhEQFMqplZ4SIECAAAECBAgQyCYgKGSj1hABAgQIECBAgACBcgQEhXJqpacECBAgQIAAAQIEsgkICtmoNUSAAAECBAgQIECgHAFBoZxa6SkBAgQIECBAgACBbAKCQjZqDREgQIAAAQIECBAoR0BQKKdWekqAAAECBAgQIEAgm4CgkI1aQwQIECBAgAABAgTKERAUyqmVnhIgQIAAAQIECBDIJiAoZKPWEAECBAgQIECAAIFyBASFcmqlpwQIECBAgAABAgSyCQgK2ag1RIAAAQIECBAgQKAcAUGhnFrpKQECBAgQIECAAIFsAoJCNmoNESBAgAABAgQIEChHQFAop1Z6SoAAAQIECBAgQCCbgKCQjVpDBAgQIECAAAECBMoREBTKqZWeEiBAgAABAgQIEMgmIChko9YQAQIECBAgQIAAgXIEBIVyaqWnBAgQIECAAAECBLIJCArZqDVEgAABAgQIECBAoBwBQaGcWukpAQIECBAgQIAAgWwCgkI2ag0RIECAAAECBAgQKEdAUCinVnpKgAABAgQIECBAIJuAoJCNWkMECBAgQIAAAQIEyhEQFMqplZ4SIECAAAECBAgQyCYgKGSj1hABAgQIECBAgACBcgQEhXJqpacECBAgQIAAAQIEsgkICtmoNUSAAAECBAgQIECgHAFBoZxa6SkBAgQIECBAgACBbAKCQjZqDREgQIAAAQIECBAoR0BQKKdWekqAAAECBAgQIEAgm4CgkI1aQwQIECBAgAABAgTKERAUyqmVnhIgQIAAAQIECBDIJiAoZKPWEAECBAgQIECAAIFyBASFcmqlpwQIECBAgAABAgSyCQgK2ag1RIAAAQIECBAgQKAcAUGhnFrpKQECBAgQIECAAIFsAoJCNmoNESBAgAABAgQIEChHQFAop1Z6SoAAAQIECBAgQCCbgKCQjVpDBAgQIECAAAECBMoREBTKqZWeEiBAgAABAgQIEMgmIChko9YQAQIECBAgQIAAgXIEBIVyaqWnBAgQIECAAAECBLIJCArZqDVEgAABAgQIECBAoBwBQaGcWukpAQIECBAgQIAAgWwCgkI2ag0RIECAAAECBAgQKEdAUCinVnpKgAABAgQIECBAIJuAoJCNWkMECBAgQIAAAQIEyhEQFMqplZ4SIECAAAECBAgQyCYgKGSj1hABAgQIECBAgACBcgQEhXJqpacECBAgQIAAAQIEsgkICtmoNUSAAAECBAgQIECgHAFBoZxa6SkBAgQIECBAgACBbAKCQjZqDREgQIAAAQIECBAoR0BQKKdWekqAAAECBAgQIEAgm4CgkI1aQwQIECBAgAABAgTKERAUyqmVnhIgQIAAAQIECBDIJiAoZKPWEAECBAgQIECAAIFyBASFcmqlpwQIECBAgAABAgSyCQgK2ag1RIAAAQIECBAgQKAcAUGhnFrpKQECBAgQIECAAIFsAoJCNmoNESBAgAABAgQIEChHQFAop1Z6SoAAAQIECBAgQCCbgKCQjVpDBAgQIECAAAECBMoREBTKqZWeEiBAgAABAgQIEMgmIChko9YQAQIECBAgQIAAgXIEBIVyaqWnBAgQIECAAAECBLIJCArZqDVEgAABAgQIECBAoBwBQaGcWukpAQIECBAgQIAAgWwCgkI2ag0RIECAAAECBAgQKEdAUCinVnpKgAABAgQIECBAIJuAoJCNWkMECBAgQIAAAQIEyhEQFMqplZ4SIECAAAECBAgQyCYgKGSj1hABAgQIECBAgACBcgQEhXJqpacECBAgQIAAAQIEsgkICtmoNUSAAAECBAgQIECgHAFBoZxa6SkBAgQIECBAgACBbAKCQjZqDREgQIAAAQIECBAoR0BQKKdWekqAAAECBAgQIEAgm4CgkI1aQwQIECBAgAABAgTKERAUyqmVnhIgQIAAAQIECBDIJjA9W0saIrCDBZ5/ztwd3ILNEyBAgAABAgQmj4AzCpOn1vaUAAECBAgQIECAwLgFBIVxU1mQAAECBAgQIECAwOQREBQmT63tKQECBAgQIECAAIFxCwgK46ayIAECBAgQIECAAIHJIyAoTJ5a21MCBAgQIECAAAEC4xYQFMZNZUECBAgQIECAAAECk0dAUJg8tbanBAgQIECAAAECBMYtICiMm8qCBAgQIECAAAECBCaPgKAweWptTwkQIECAAAECBAiMW0BQGDeVBQkQIECAAAECBAhMHgFBYfLU2p4SIECAAAECBAgQGLeAoDBuKgsSIECAAAECBAgQmDwCgsLkqbU9JUCAAAECBAgQIDBuAUFh3FQWJECAAAECBAgQIDB5BASFyVNre0qAAAECBAgQIEBg3AKCwripLEiAAAECBAgQIEBg8ggICpOn1vaUAAECBAgQIECAwLgFBIVxU1mQAAECBAgQIECAwOQREBQmT63tKQECBAgQIECAAIFxCwgK46ayIAECBAgQIECAAIHJIyAoTJ5a21MCBAgQIECAAAEC4xYQFMZNZUECBAgQIECAAAECk0dAUJg8tbanBAgQIECAAAECBMYtICiMm8qCBAgQIECAAAECBCaPgKAweWptTwkQIECAAAECBAiMW0BQGDeVBQkQIECAAAECBAhMHgFBYfLU2p4SIECAAAECBAgQGLeAoDBuKgsSIECAAAECBAgQmDwCgsLkqbU9JUCAAAECBAgQIDBuAUFh3FQWJECAAAECBAgQIDB5BASFyVNre0qAAAECBAgQIEBg3AKCwripLEiAAAECBAgQIEBg8ggICpOn1vaUAAECBAgQIECAwLgFBIVxU1mQAAECBAgQIECAwOQREBQmT63tKQECBAgQIECAAIFxCwgK46ayIAECBAgQIECAAIHJIyAoTJ5a21MCBAgQIECAAAEC4xYQFMZNZUECBAgQIECAAAECk0dAUJg8tbanBAgQIECAAAECBMYtMH3cS1pw3AKnn7JfOvn4PdOhB85N83eflaZOnTLudS1IgAABAgQIEJiIAps2bU5Ll69Jt961Il165UPpoovvnYi7OaH2acoZ5164eULt0QB3JgLC2S9ZnBbOmz3AXmiaAAECBAgQINB+gSXLVqfzv3GLwNDiUjmj0KfivOEVR6YXnXZQn7ZmMwQIECBAgACBiS0QX6y+/TXHpkMOmps+dcH1E3tnC907YxT6UDghoQ+INkGAAAECBAhMSoH4ojWOpUztExAUeqxJXG7kTEKPiFYnQIAAAQIEJrVAHEvFMZWpXQKCQo/1iDEJJgIECBAgQIAAgd4EHFP15rcj1hYUelCN5Gvgcg+AViVAgAABAgQIPCEQx1TOKrTrz0FQ6KEecQtUEwECBAgQIECAQH8EHFv1x7FfWxEUepCM5ySYCBAgQIAAAQIE+iPg2Ko/jv3aiqDQg2Q8TM1EgAABAgQIECDQHwHHVv1x7NdWBIUeJD1xuQc8qxIgQIAAAQIEhgk4thoGMuC3gsKAC6B5AgQIECBAgAABAm0UEBTaWBV9IkCAAAECBAgQIDBgAUFhwAXQPAECBAgQIECAAIE2CggKbayKPhEgQIAAAQIECBAYsICgMOACaJ4AAQIECBAgQIBAGwUEhTZWRZ8IECBAgAABAgQIDFhAUBhwATRPgAABAgQIECBAoI0CgkIbq6JPBAgQIECAAAECBAYsICgMuACaJ0CAAAECBAgQINBGAUGhjVXRJwIECBAgQIAAAQIDFhAUBlwAzRMgQIAAAQIECBBoo4Cg0Maq6BMBAgQIECBAgACBAQsICgMugOYJECBAgAABAgQItFFAUGhjVfSJAAECBAgQIECAwIAFBIUBF0DzBAgQIECAAAECBNooICi0sSr6RIAAAQIECBAgQGDAAoLCgAugeQIECBAgQIAAAQJtFBAU2lgVfSJAgAABAgQIECAwYAFBYcAFmKzNr1u3Lq1evXqy7r79JkCAAAECBAi0XmB663s4yTu4cePGbTqgnj59epo1a1ar1e644470sY99rOrj7/zO76Rjjz2229+//Mu/TKtWrUonn3xyesELXtCdP+gXP/zhD9MPfvCDqhvvfe9700477bRNXep1/W1qzMIECBAgQIAAgT4ICAp9QNyRm7j77ru7B9Xjaef4449Pr371q8ez6MCWueKKK7pt/+IXvxgSFCIkPPbYY2nlypXdZdrwIs6ARL+2d+p1/e1t13oECBAgQIAAge0VcOnR9spZb7sFjj766O66zbMJ3ZleECBAgAABAgQIDFzAGYWBl2D8HXjWs56VFi9evMUV5s+fv8XP2/Dhk570pPT+978/bdiwIe2+++5t6JI+ECBAgAABAgQIDBMQFIaBtPntvvvum4444og2d3Hcfdtll13GvawFCRAgQIAAAQIE8gsICvnNs7Z42223VYOhZ8+enQ455JDq9e23357uvPPOtNtuu6WDDjoo7bffft0+xbX0N9xwQ3rooYfSlClT0oEHHpj233//FOuPNa1fvz7dd9996YEHHkhLly5Ne+yxR4pQs9dee406sPrxxx9P0YeYDj300FGXGautrc3f1r40txd3Ybr++uurfYj5e+65ZzrssMO2uO+9rr9p06aqzdjOwoULqzbDMOr24IMPVjU76qijms2kNWvWVDWK5dauXVt5L1q0KO2zzz5Dlhv+JgbGR42iVkuWLKnWixpFfWfMmDF88e77FStWpHvvvbdab/PmzVVd995776q/3YW8IECAAAECBCacgKAw4Uo6dIe+/e1vp7jL0MEHH5ye97znpb//+78fukDnXVzS9OIXvzjdeOON6YILLhgxaHfmzJnpLW95y6gHonFA+0//9E/p0UcfHbHdmPG7v/u7KS41ak4PP/xw+uxnP1vNet3rXpeOPPLI5sfb/Xp7+lI3dvXVV6d//Md/rN92f8e+n3XWWd33Y73Y3vXj4L22iPpECIg7JNVTBJ9mULjsssvS+eefX3885HeM/YiB7HHnq+FTBIPPfe5zVfgY/lmc3fnt3/7tKpQ0P4tQ8B//8R/pO9/5TnN29/XTn/706u9mW+8A1d2AFwQIECBAgECrBQxmbnV5+te5ZcuWpc985jPVBufNm1edTai3Hgem3/rWt9KnPvWpKiTEwXHzLEN8ax23M40zAc3plltuSX/3d383JCQM/1b7E5/4RPXtd3O9HfG6l77Et+XDQ0J80x5T7PsXv/jFdNNNN43Z7V7Xrzd8+eWXDwkJcQAfZ3XqKfaxGRKiTlHLerr22mvTl7/85RQH+M0pzg598IMf7IaEqO1xxx3X/RuIuzlFHe+6667maumrX/1qNyREWxFY4gxQPf30pz8d4VZ/5jcBAgQIECBQvsDIrx7L3yd7MIpAfOMfB3vveMc7uiEgLrP59Kc/XS1dPyPgZS97WTrppJPS1KlTU1yGFOEhLhOKA+Y4kGyOkfj+97/fbSm+kT7mmGOq9eJb8auuuqo6aI0Ffv7znw9Zr7tSH19sb1/idqyxj/X0ohe9KD31qU+tLjeK/Y8zBXGW5Y7OWZnRpl7Xb24zvvWPcPDKV76yuiSseTlQHOzXZx6ijq997Wurs0RRp6jtv/zLv1SBLM44RMg5/fTTu5uOWtTTq171qnTCCSfUb6vLnuq/gR/96EcpPo8p6n3xxRdXr+Oypmhvzpw51fs4y/HJT36y+ruIy9TiEqk6WFUL+IcAAQIECBCYEAKCQkFljG+Tm98oj9b1d73rXaNeIhTLxsFe80xBXPITl4/EN8MxnXrqqdVBcvWm808cqJ5xxhnpQx/6UDXrnnvu6R7wx7fW8a10fMu8YMGCIZcPxQPf4mD7xz/+cbr//vurS5pi+ea343Ub/fjdS1/icqv6+QinnHJKevazn93tUuz/U57ylOqZDnHGZbSp1/WHb/Ptb397NXZg+PxLLrmkOniP+VHH5jf7MdYkDvD/9m//tjpo/8lPfjIkKEQgjClCSDMkxLz4G4iH3i1fvjxNmzYtZlVTPYYk3jztaU/rhoR4H5caxSVOV155Zbyt7l5VvfAPAQIECBAgMKEEXHo0oco59s7Et9AxTmH4dMABB3RnxcDd4VMMsK2nGNRaT3HQHyEjwsVYYwwiSMQU307HQOEdNfXSlxjYW08vfOEL65dDfkd4iIPs0aZe129uM87WxEDw0aYYfB5TfLvfDAn1shHO4mnWMcUZhjjTUU/1NiMQxRmS4VM8yyLq+IxnPKP7UYSPeoozQsMvO5s7d261TqzXDJ/1On4TIECAAAEC5Qs4o1BQDeOSoLhL0ZamOIAbbYqxA3GZyvCpOfB1tGcaxLfMETLiYH+sKQbkxnX6MUg5LjuKUBDL15czjbXejpi/rX2JJ1/HFAfGcbA92hRBJAJV/c18c5le129uqxnamvNjn+rxA3EJVHOwc3O5a665pvs2Akw9iDzO+tSXH8VYjAh/cWYhQkf8PTUvcao3EJcSxfiHGNty6623pg984APpxBNPrJ7jEevEHaFMBAgQIECAwMQWEBQKqm88bO3JT37ydvV4R1z2E9eqf/Ob30xxqcugp+3tS32JTdwidEtTHDiPFhR6Xb/Z5lg1irELzenf/u3fmm9HfR3r1EEh/mbibEK9Xnz2ve99r7teBNA4m9A0iFD55je/Of3DP/xDdflYLByDreMnpvCIS5Licq1m2Kw+9A8BAgQIECAwIQQEhQlRxvw7EU9VjjshxZmEeopvxOMylxj0Gt/O5zqj0Etf4pKiOIiOMyFbmsY6o9Lr+ltqs/5s+O1H4+B8tCn6GGd14lKg4ZcDxS1w49KkOLNw3XXXDQk9cWlR/Ay/VW2cZXnnO9+Z4qzJFVdcUY01qUNLDGD++te/Xm3nNa95zahnJUbro3kECBAgQIBAOQKCQjm1alVP45r5OiTEGIWzzz57xIPJ4pKW7373uzu83730JS6/iUt2YqD2lqZ6X4cv0+v6w7c32vu4BKi+/CsGiZ955pmjLbbVefHQvDgLED/xoLd47kQMOI/bqsb0pS99Kb3//e8fsp04yxEP3YufmGKcyi9+8Yv0X//1X1XAuvnmm6vwEWclTAQIECBAgMDEEhh50frE2j97s4ME4p7+9fTc5z53REiIz7b07IF63X787qUv9Tfv8W18PLV4tCkGBtdjBIZ/3uv6w7c32vs4WK/HpsSlTsOfkzDaOlubF5cWxaVscTagHoweZ1ZiTMKWphgDE7dejbMP9VRfflW/95sAAQIECBCYGAKCwsSoY/a9aA6AHe0a9bi/fgy8zTH10pf6QD/6+YUvfKF6dkSzz/HNezxwbayp1/XH2u7w+XVQiEt/LrzwwuEfV+/jKdx//Md/XP3UlwjFwPI/+7M/S+edd171rIXRVtx55527s+tnJVx00UXVOrFu3OJ2+FQvF/Obd0gavpz3BAgQIECAQLkCLj0qqHZxbXncAWdLU4wRiG+Kd/TUbOPzn/98Ou2009IhhxxS3ZYzziTkuOSo3sde+nL44YenuD1o3DY0rruPB4nF5T0RAOJ9DN6Ny2vGmnpdf6ztDp8ftyGNS6TioD3GfsRZjjgTsPfee1e3Q42Ho9XPNYjLhOrb2sblRjGOIs6IxLMYIlTFHY/iLlgrV65MP/vZz6rxCdFePDCvvvNT7H/cZjWmGND80pe+tDqrEZdAxWVaX/va16rP4p/wMxEgQIAAAQITT0BQKKimMRC1vs3lWN0+/vjjswSFOJA8+uijq+vb49vruL69OcUBZXweTwre0VMvfYnLel7+8penePJxBIM4CxI/zSm+MY9bjNYPpmt+1uv6zW1t6XUcwL/+9a9PH/nIR6qxAZdeemmKn+FT9DUeoNacXvCCF6TPfOYz1S1rY2xB/AyfYhzE8573vO7suGNSBIcIJxEY4raqo01xGVKEDhMBAgQIECAw8QRcejTBatp8um7sWv1+tMuDetn1uMY9Dkif85znjHgYWXzD/5a3vCXtu+++vTQx7nV77UuEmje84Q3VcwKGNxq3Fo2nJTefMRHhoDn1sn5zW3Wtmttuvo4QEK7xPIPhU/QhxorEk7mHXwoUD2h797vfXT1JO5ZrTrFsPDgv7m4UZyfqKfp1zjnnVCGqPjtRfxa/46xFmEUIMREgQIAAAQITU2DKGedeuHli7tqO36uvfPw3dnwjhbQQ3zrHYNj4Zjoudxnk1EtfYlDzI488UnV//vz5afitSbe2X72uv7Xt15/HcyNiP+O2rhFiYpxBM3TUy432O+5cFD+xf+OtVdyCNm69GmEm1otwZiJAgAABAjtC4Mw3f3tHbNY2t0PApUfbgWaVkQLxzfTwb7JHLpVnTi99iW/cm9+sb2uPe11/vO1FgFmwYMF4Fx+yXNy5aKwneA9ZsPEmzkj14tLYlJcECBAgQIBAIQK+FiykULpJgAABAgQIECBAIKeAoJBTW1sECBAgQIAAAQIEChEQFAoplG4SIECAAAECBAgQyCkgKOTU1hYBAgQIECBAgACBQgQEhUIKpZsECBAgQIAAAQIEcgoICjm1tUWAAAECBAgQIECgEAFBoZBC6SYBAgQIECBAgACBnAKCQk5tbREgQIAAAQIECBAoREBQKKRQukmAAAECBAgQIEAgp4CgkFNbWwQIECBAgAABAgQKERAUCimUbhIgQIAAAQIECBDIKSAo5NTWFgECBAgQIECAAIFCBASFQgqlmwQIECBAgAABAgRyCggKObW1RYAAAQIECBAgQKAQAUGhkELpJgECBAgQIECAAIGcAoJCTm1tESBAgAABAgQIEChEQFAopFC6SYAAAQIECBAgQCCngKCQU1tbBAgQIECAAAECBAoREBR6KNSmTZt7WNuqBAgQIECAAAECTQHHVk2Nwb8WFHqowdLla3pY26oECBAgQIAAAQJNAcdWTY3BvxYUeqjBrXet6GFtqxIgQIAAAQIECDQFHFs1NQb/WlDooQaXXvlQD2tblQABAgQIECBAoCng2KqpMfjXgkIPNbjo4nvTkmWre9iCVQkQIECAAAECBEIgjqni2MrUHgFBocdanP+NW3rcgtUJECBAgAABAgQcU7Xvb0BQ6LEmkXy/+YM7e9yK1QkQIECAAAECk1cgjqWcTWhf/QWFPtTkUxdcLyz0wdEmCBAgQIAAgcknECEhjqVM7ROY3r4uldmj+AO/7c4V6eyXLE4L580ucyf0mgABAgQIECCQSSDGJMTlRs4kZALfjmamnHHuhZ4ath1wW1rl9FP2Sycfv2c69MC5af7us9LUqVO2tLjPCBAgQIAAAQITXiAephbPSYhboMbdjQSE9pdcUGh/jfSQAAECBAgQIECAQHYBYxSyk2uQAAECBAgQIECAQPsFBIX210gPCRAgQIAAAQIECGQXEBSyk2uQAAECBAgQIECAQPsFBIX210gPCRAgQIAAAQIECGQXEBSyk2uQAAECBAgQIECAQPsFBIX210gPCRAgQIAAAQIECGQXEBSyk2uQAAECBAgQIECAQPsFBIX210gPCRAgQIAAAQIECGQXEBSyk2uQAAECBAgQIECAQPsFBIX210gPCRAgQIAAAQIECGQXEBSyk2uQAAECBAgQIECAQPsFBIX210gPCRAgQIAAAQIECGQXEBSyk2uQAAECBAgQIECAQPsFBIX210gPCRAgQIAAAQIECGQXEBSyk2uQAAECBAgQIECAQPsFBIX210gPCRAgQIAAAQIECGQXEBSyk2uQAAECBAgQIECAQPsFBIX210gPCRAgQIAAAQIECGQXEBSyk2uQAAECBAgQIECAQPsFBIX210gPCRAgQIAAAQIECGQXEBSyk2uQAAECBAgQIECAQPsFBIX210gPCRAgQIAAAQIECGQXEBSyk2uQAAECBAgQIECAQPsFBIX210gPCRAgQIAAAQIECGQXEBSyk2uQAAECBAgQIECAQPsFBIX210gPCRAgQIAAAQIECGQXEBSyk2uQAAECBAgQIECAQPsFBIX210gPCRAgQIAAAQIECGQXEBSyk2uQAAECBAgQIECAQPsFpre/i+X18PRT9ksnH79nOvTAuWn+7rPS1KlTytsJPSZAgAABAgQI9FFg06bNaenyNenWu1akS698KF108b193LpN7QiBKWece+HmHbHhybjNCAhnv2RxWjhv9mTcfftMgAABAgQIEBi3wJJlq9P537hFYBi3WP4FnVHok/kbXnFketFpB/VpazZDgAABAgQIEJjYAvHF6ttfc2w65KC56VMXXD+xd7bQvTNGoQ+FExL6gGgTBAgQIECAwKQUiC9a41jK1D4BQaHHmsTlRs4k9IhodQIECBAgQGBSC8SxVBxTmdolICj0WI8Yk2AiQIAAAQIECBDoTcAxVW9+O2JtQaEH1Ui+Bi73AGhVAgQIECBAgMATAnFM5axCu/4cBIUe6hG3QDURIECAAAECBAj0R8CxVX8c+7UVQaEHyXhOgokAAQIECBAgQKA/Ao6t+uPYr60ICj1IxsPUTAQIECBAgAABAv0RcGzVH8d+bUVQ6EHSE5d7wLMqAQIECBAgQGCYgGOrYSADfisoDLgAmidAgAABAgQIECDQRgFBoY1V0ScCBAgQIECAAAECAxYQFAZcAM0TIECAAAECBAgQaKOAoNDGqugTAQIECBAgQIAAgQELCAoDLoDmCRAgQIAAAQIECLRRQFBoY1X0iQABAgQIECBAgMCABQSFARdA8wQIECBAgAABAgTaKCAotLEq+kSAAAECBAgQIEBgwAKCwoALoHkCBAgQIECAAAECbRQQFNpYFX0iQIAAAQIECBAgMGABQWHABdA8AQIECBAgQIAAgTYKCAptrIo+ESBAgAABAgQIEBiwgKAw4AJongABAgQIECBAgEAbBQSFNlZFnwgQIECAAAECBAgMWEBQGHABNE+AAAECBAgQIECgjQKCQhurok8ECBAgQIAAAQIEBiwgKAy4AJonQIAAAQIECBAg0EYBQaGNVdEnAgQIECBAgAABAgMWEBQGXADNEyBAgAABAgQIEGijwPQ2dkqffiWwcePG9Pjjj6dVq1alOXPmpKlTh2a7WbNmpenTlfFXYu16FfU777zzqk4961nPSqeddlq7Oqg3BAgQIECAAIExBBxhjgHTltl33313+tjHPrbF7ixevDgdcsgh6cQTT0zz58/f4rI+zC/w2GOPVY2uW7cuf+NaJECAAAECBAhsp8DQr6e3cyNWG6zALbfckr773e+mD3/4w+nBBx8cbGe0ToAAAQIECBAgMCEEnFEoqIzHH398eupTn9rt8fr169PSpUvTZZddlu699960du3a9NGPfjT9/u//flq4cGF3OS8IECBAgAABAgQIbKuAoLCtYgNc/sgjj0xPetKTRvTg137t19K3vvWt9MMf/rAKC5deeml64QtfOGI5MwgQIECAAAECBAiMV0BQGK9Ui5eLAc6/8Ru/ka688sr06KOPpltvvXXU3sbZhwceeKD62bRpU9pnn32qn3nz5qUpU6aMuk7MXLNmTbrvvvuqn5UrV6Y999wz7bXXXmnfffcdMbi63sjmzZvTww8/nO6///5qvdmzZ1fr7LfffmnXXXetF6sGad9xxx3V+wMOOCDNnTu3+1n94vrrr0/R39133z3F+sOnGMexYsWKFG3EWI3hU5xtueuuu9Ly5curgd+xnQhc8Xu0KS7fir7HdNRRR6U4cxPrRz/j9XOe85w0c+bMIaveeeed1TLhE9vdf//904EHHjhkGW8IECBAgAABAiUJCAolVWsLfY07Hx166KHVZUhx4BwH93FHpJhiEG2ccfjJT34y6haOOeaY9MpXvjLttNNOIz6Pg/QvfvGL1ZmK4R8efPDB6eyzz0577LHHkI+i7S996Uvp6quvHjK/fnPmmWempz3taVU4ibsCffazn60+irATB+HNKQ7uP/3pT1ez4sD7bW97W/Pj6vU///M/V2MzYlD37/3e73U/X716dfrMZz6Tbr/99u685ounP/3p6bd+67dGhKQIXP/+7/9eLfrud787/c3f/M2Q/X/GM57RDQoRHKJ/MU5k+BRngM4666zhs70nQIAAAQIECBQhYDBzEWUaXyebB/pxAF5Pn/zkJ4eEhDiDsMsuu9Qfp2uuuSZ94hOfSHEWoDldccUV1UFwjH2IKQ7Ejz766O5BchyAf+hDH6qCSL1efPMfB9Z1SNhtt93ScccdV525qJf5yle+Ul0mFe/jDEKc2YhptDMhzQPw+FY/bhXbnOKOQvUA7sMPP7z70YYNG9LnPve5ISEh9rt5JuCnP/1puvDCC7vrjPYiQky9/811Y9nw+vKXvzwkJIRr7HNMEbK+8IUvVK/9Q4AAAQIECBAoTcAZhdIqNkZ/46A1DqRjioHMO++8c/X6tttuqy6ZiTdxBuCcc86pPovl4wA7Dtrjkpr4ifd77713tV78EwfSMcUB8lvf+tbuZxEGvvOd76SLLrqoOoi+/PLLqzMEsWyEhyVLlsTLFGMnXvKSl3QvT1q2bFn6q7/6q2qd//zP/0zPfOYz07Rp01J88x6XKN18880pDvCbz4W48cYbq23V/0SYOPbYY+u3KS75qafDDjusfpkuuOCCbvCI28bG2Yo48xH7HZdfxVmS2N8f/OAH1fw4uzDaFPsS/Yx9GX7r2RgTEvseU1yKFWdX4nKsuIzroYceSl/72teGhIjRtm8eAQIECBAgQKCtAs4otLUy29ivGMAcB9sxNQ+Y4yA/Dtbjpw4JsUwczEYoePaznx1vqynCQj3F5UP1JTtxYN4MEDEm4vnPf3512U5st3l24qabbqo3UR1gNx8QF9/ox6VBsc7pp5+e4tKgmJoDtGM8QT1FILnhhhuqt7FuTM3tx/u6j9GHuo8xTiAuH4opxjS87GUv614eFfsdZzBe+9rXds8u/OhHP6qWHe2fuMzopS996YiQEMs21wvbaKse6xHjOF796lcPsRlt++YRIECAAAECBNoqICi0tTKj9CsOgONSm/rnkUceqb41j8tf4qee4hv0eoqD11NPPbX6qc8y1J/F7yOOOKL7th7AGzMiYNSX2sTBenwL35wiAMRBdGw7Lkeqp+YA4TgjEQf7zSkGLNf9qQPGQQcd1F2kPvCPGTHWIi77iX7Ud3G69tprh1wiFWchYoqzEvVBegy8rqc4k9C8JKueH2cH4kxBTHHWIILRaNOTn/zk0WZXl0DFwPGYIvSMdjva8I72TQQIECBAgACBEgVcelRQ1b75zW+m+NnS9MY3vnHMu+3Ege0999xT3WkoDozjp/5Wf/g246A7ntvws5/9rAomMRYhxijEAXkc2MddfZpnC+oCjL/jAAA3f0lEQVT1Y5l6iktzLrnkknTSSSdVdyOK9Ua7q1FcahRhI0JAXCp12mmnVZtohoD6LEk9JiHOHsR4hfosSnN8QvOsRFwSNNbU/Cy2E5dmDZ/q8RPD59ftxvyxltnaZ8O36T0BAgQIECBAoE0CgkKbqrGdfYlv3OPynbiOPu58NHyKS4riLkT12IHhn4/1Pu4IFHdMikHNMcXA4npwcZwNOPnkk6s2mwf/8c36m970pupuQ3E2IH5+/OMfVz+xjTjgP+WUU1Lcaak5xYF+BIU4exEDsWPsQgwGjinOesQdnCKERPsRICIoNMcnNPe7GRTqgcXNturXzbMAYwWF0cJQrF8PoI7Xze3E++a0pc+ay3lNgAABAgQIEGibgKDQtopsoT/Dn8wci8YBe3wzPtYB7VVXXZU+//nPd7caB87xDficOXOqQc1xAP69732v+3nzRXzT/6pXvaoajxBhIQ7c6wHT8c1+DGaOp0Kfe+65Q67hj4P2D3zgA9VBf9z9KMYVxPIxxev4+fVf//Vqu3V7zXEKcelQjEmIS49iqs9SxNmMCAoRJuLypfoypbicqXlZVTxPoZ4idDQHR9fz43fc2rSe6lvJ1u+39ru5fH1XpNHW2dJnoy1vHgECBAgQIECgLQKCQlsqMY5+xIFy84B6HKt0v8mPZd/whjek5iU6MS/uMjRWUIjPY4rr+ePAPn7iDEPcTjXuWhTfwsflTPHMgVe84hW/XPiJf+OMQFxOVI9fiDEOF198cfc2rd///verS5LqOwnF7wgHcWekCAAx/iKmGGNRn7GoLz+KMwrRj+alSU80W/2Ky6LikqmYYtxFPci5mtH4p3lWIO5WtC1T87KluMPRaA96i+3FZyYCBAgQIECAQIkCBjOXWLVx9rl556IIGcNDQmwmLkvalmnGjBkpBvjGg8/qwc7Db2E62vbiYD0uZXrxi1/c/bh56VDMrENFjFOot1nPi8/j4Ly+lOi6665L9SVGdYCIZWJqHvRvaf+inXqKuxRty9QMCvXlWKOtv6XPRlvePAIECBAgQIBAWwQEhbZUYgf0I77Vr6fR7vwT38rH5UOjTXGAe95551U/cevV4VNczlNffrNgwYLuxx//+MerdT760Y+OeiehuOSpnnbdddf6ZfW7PlsSISAumYppeAiog0M9qDvCSpxBaE7NwcXxnIjmmYN6uXj+Qf0MhBjEPNalW/Xyw3/H/sfZjpiir3EJ1vApnvkwlu/wZb0nQIAAAQIECLRNwKVHbatIH/sT4SDOJMTYgjiY/frXv14NIo5bmMa38fGwsXocwPBm41v5+vafMRA6LlGKsQLx0LK4nCceuFZ/fsIJJ3RXj4PuuHQoPouxEfGchhhDEOvH2IR//dd/rZaNA/zhl+s038e1/aOFgDgr8pOf/KTbdgx0Hn6QH/sdDz87//zzq7biydRxK9ToW4xLiH7UB/DRxhlnnNHt/7a8OPPMM6unUMc60VYEkgg2EdAiaMXlWSYCBAgQIECAQKkCgkKplRtnv+NAvb57UDwgrPmQsNhE3IEoxg4Mn+Kb/3gw2je+8Y3qo69+9avDF6nex4F687kN8WyFGMAcd1iqBy6PtuLLX/7y6oC6+Vlc1hRnFeqxB3H2YHgIaN7dKNYd7XKqmB+XR61YsSJ961vfqkJFfQYiPmtOr3vd68Ycw9BcbrTXEYCagSTCRx1A6uXj+Q/RBxMBAgQIECBAoDQBlx6VVrFt7G98S/+ud71rxLMV4pv0F73oRek3f/M3x9xi3FnorW99a1q0aNGIZeIa/RhvEAfazbsMxcDjd77zndWzEOoHqtUrR5tHHXVUes973pPiac+jTc0HwDVf18tGmGjOr++IVH/e/B3PYzjrrLOqQdLN+fE6Akc8Jbp5FqNepnnJVv0Qt/qz4b8jkEToqcdO1J/H+7hjVBjWU3O79Ty/CRAgQIAAAQJtFZhyxrkXbm5r59rer698vKyn7sblP3F5TBzYx+VHw7+t35J3PGE57kQU4xpiTMJoYx5GWz8e6BZ3MorQMPxgerTld8S8zZs3Vw+Zq2/RGv1ohpt+tBk+8eTseAhc3Kq1vlNTP7ZtGwQIECBAYDIJnPnmb0+m3W31vrr0qNXl6W/nmgNwt3XLESrqW5luy7pxQF4P+t2W9fq5bJwViKAy/AxHP9sInwgggwpD/dwX2yJAgAABAgQIhIBLj/wdECBAgAABAgQIECAwQkBQGEFiBgECBAgQIECAAAECgoK/AQIECBAgQIAAAQIERggICiNIzCBAgAABAgQIECBAQFDwN0CAAAECBAgQIECAwAgBQWEEiRkECBAgQIAAAQIECAgK/gYIECBAgAABAgQIEBghICiMIDGDAAECBAgQIECAAAFBwd8AAQIECBAgQIAAAQIjBASFESRmECBAgAABAgQIECAgKPgbIECAAAECBAgQIEBghICgMILEDAIECBAgQIAAAQIEBAV/AwQIECBAgAABAgQIjBAQFEaQmEGAAAECBAgQIECAgKDgb4AAAQIECBAgQIAAgRECgsIIEjMIECBAgAABAgQIEBAU/A0QIECAAAECBAgQIDBCQFAYQWIGAQIECBAgQIAAAQKCQg9/A5s2be5hbasSIECAAAECBAg0BRxbNTUG/1pQ6KEGS5ev6WFtqxIgQIAAAQIECDQFHFs1NQb/WlDooQa33rWih7WtSoAAAQIECBAg0BRwbNXUGPxrQaGHGlx65UM9rG1VAgQIECBAgACBpoBjq6bG4F8LCj3U4KKL701Llq3uYQtWJUCAAAECBAgQCIE4popjK1N7BASFHmtx/jdu6XELVidAgAABAgQIEHBM1b6/AUGhx5pE8v3mD+7scStWJ0CAAAECBAhMXoE4lnI2oX31FxT6UJNPXXC9sNAHR5sgQIAAAQIEJp9AhIQ4ljK1T2B6+7pUZo/iD/y2O1eks1+yOC2cN7vMndBrAgQIECBAgEAmgRiTEJcbOZOQCXw7mplyxrkXemrYdsBtaZXTT9kvnXz8nunQA+em+bvPSlOnTtnS4j4jQIAAAQIECEx4gXiYWjwnIW6BGnc3EhDaX3JBof010kMCBAgQIECAAAEC2QWMUchOrkECBAgQIECAAAEC7RcQFNpfIz0kQIAAAQIECBAgkF1AUMhOrkECBAgQIECAAAEC7RcQFNpfIz0kQIAAAQIECBAgkF1AUMhOrkECBAgQIECAAAEC7RcQFNpfIz0kQIAAAQIECBAgkF1AUMhOrkECBAgQIECAAAEC7RcQFNpfIz0kQIAAAQIECBAgkF1AUMhOrkECBAgQIECAAAEC7RcQFNpfIz0kQIAAAQIECBAgkF1AUMhOrkECBAgQIECAAAEC7RcQFNpfIz0kQIAAAQIECBAgkF1AUMhOrkECBAgQIECAAAEC7RcQFNpfIz0kQIAAAQIECBAgkF1AUMhOrkECBAgQIECAAAEC7RcQFNpfIz0kQIAAAQIECBAgkF1AUMhOrkECBAgQIECAAAEC7RcQFNpfIz0kQIAAAQIECBAgkF1AUMhOrkECBAgQIECAAAEC7RcQFNpfIz0kQIAAAQIECBAgkF1AUMhOrkECBAgQIECAAAEC7RcQFNpfIz0kQIAAAQIECBAgkF1AUMhOrkECBAgQIECAAAEC7RcQFNpfIz0kQIAAAQIECBAgkF1AUMhOrkECBAgQIECAAAEC7RcQFNpfIz0kQIAAAQIECBAgkF1AUMhOrkECBAgQIECAAAEC7RcQFNpfIz0kQIAAAQIECBAgkF1AUMhOrkECBAgQIECAAAEC7ReY3v4ultfDaYvvTzMPXJpmzF+Vps1Zn6ZM3VzeTugxAQIECBAgQKCPAps3TUkbH98prVu6c1p71/y08ZZ9+rh1m9oRAoJCH1UjIOx64l1p+i7r+rhVmyJAgAABAgQIlC8QX5zGMVL8zDnokbShc8y08vIDBYYWl1ZQ6FNxZj7tprTrUQ/2aWs2Q4AAAQIECBCY2AIRGPY49Za0cv7KtPaSwyb2zha6d8Yo9KFwQkIfEG2CAAECBAgQmJQC8UVrHEuZ2icgKPRYk+pyI2cSelS0OgECBAgQIDCZBSIsxDGVqV0CgkKP9YgxCSYCBAgQIECAAIHeBBxT9ea3I9YWFHpQjeRr4HIPgFYlQIAAAQIECDwhEMdUziq0689BUOihHnELVBMBAgQIECBAgEB/BBxb9cexX1sRFHqQjOckmAgQIECAAAECBPoj4NiqP4792oqg0INkPEzNRIAAAQIECBAg0B8Bx1b9cezXVgSFHiQ9cbkHPKsSIECAAAECBIYJOLYaBjLgt4LCgAugeQIECBAgQIAAAQJtFBAU2lgVfSJAgAABAgQIECAwYAFBYcAF0DwBAgQIECBAgACBNgoICm2sij4RIECAAAECBAgQGLCAoDDgAmieAAECBAgQIECAQBsFBIU2VkWfCBAgQIAAAQIECAxYQFAYcAE0T4AAAQIECBAgQKCNAoJCG6uiTwQIECBAgAABAgQGLCAoDLgAmidAgAABAgQIECDQRgFBoY1V0ScCBAgQIECAAAECAxYQFAZcAM0TIECAAAECBAgQaKOAoNDGqugTAQIECBAgQIAAgQELCAoDLoDmCRAgQIAAAQIECLRRQFBoY1X0iQABAgQIECBAgMCABQSFARdA8wQIECBAgAABAgTaKCAotLEq+kSAAAECBAgQIEBgwAKCwoALoHkCBAgQIECAAAECbRQQFNpYFX0iQIAAAQIECBAgMGABQWHABdA8AQIECBAgQIAAgTYKCAptrIo+ESAwKQQO2HVR2mnazEmxr3aSAAECBMoTmF5el/WYAAEC7RBYOGfvdPjcxWnPmfPS7Gkz0tJ1K9IDax5KVy+7Jm3ctGELnZyS/uLJ701zp++cNnf+94k7/jX9/KFLt7C8jwgQIECAQH4BQSG/uRYJEChc4CkLT0qvOeiFadbU0c8GbD7kZenmx+5OH7nxM2n9xrUj9vYpC59ShYT4YErnf2fsc/qECApP3fNp6fWLXlLt79rOfr/jF386Yt/NIECAAIFyBFx6VE6t9JQAgRYIvLoTAt508BljhoToYhz8H7bLgekvT/zDtNecfUb0+sHVS4bMe3TDY0Pel/pmTucyqqmdfY+fGVN3KnU39JsAAQIEnhAQFPwpECBAYJwC7zvmbenZC04csvT6zRvSQ2sfSbetui+t3PB4dSlRvUCccfhfx7w1Ld798HpW9fuex+5MP1hyWVq7aV26b83S9OnbvzLkc28IECBAgEAbBFx61IYq6AMBAq0XOGHBCWlR4+zAhs0b08dv+3K6eulVQ/o+Y9qs9K4jXp8O3Xm/an6cXXjLof8t/cEv/veQ5b54+7+k+DERIECAAIG2Cjij0NbK6BcBAq0SeOHep3b7EwOQ333F/x0REmKBdRvXpD+/9mPpqhW3dpffZdrstM/O+3ffe0GAAAECBEoQcEahhCrpIwECAxdYMHO3bh8eXPNIenz9lscVfO72r6a/OP7d3XWO2G1xun/VPd33i+YemuZMn129v/nRm0cd9FwvfOhuh6Uj5h6S9p29IK1c/3hnoPRd6dpHrktrOpc6xRSfz+zcdSmmGx65Pm3qnO2opxgjMX/W/Ort3Y/dk1auW1693mPWgnTS/OPTwTvvm+7tjJm4ddVd6eblN23lbk31Vrfvd5v6sn17YC0CBAhMLgFBYXLV294SILCdAlMa663eNPJORo2Pq5crOuMW/viav00znjiAf+Dx+4cs8j8OPyftNOWX/wn+eOcSpMs7YxaGTwd3br36tsWvSLtOnzPko+d07pq0cdFvpn+9/4fp2/d8L72ns624xCmmP73+E+nulXdUr+OfNy9+Zdr3iaDwnw9fnn645Ofpj454XbftWOak3Y+IX9WYiY91Lqe6ftm11ft+/9OmvvR732yPAAECE1HApUcTsar2iQCBvgvc8fiD3W0eOHuvFN/Ib2168PH7qoP2OHAf7TapW1p/3qyFnQDwmhEhoV5n2pSp6cx9T0svX/Rb9ayt/p43Y7f0vs74iTqgDF9h5tQZ6V2LX5UO3+PI4R/1/X2b+tL3nbNBAgQITBABQWGCFNJuECCwYwUuX35jt4E4SP//j/39dNyC47vz+vkiBkT/ydFvTtFOPa3rPMDt+k7g+M6Dl6R7OpcKbeqMk4jpuXue3D2bUC871u9jO5cvTZsyLW3sXJoUd2n6twd+XN19acWGVUNWedMhZw15vyPetKkvO2L/bJMAAQITQcClRxOhivaBAIEdLnDxQz9LZ+z7rLRzZ2ByTHHA/bZDXp42HnxWum7lnenSR65NV3aeyLx6K2MXxtPR/37kGztPev7Vw9wu7lwK9A+3fLG7atwraWqn/T874T1p95126c4fz4u4JesfXfVXaVXnKdL19MXbp6Q/OOp30xG7HFTNisHXB+56SLpr5W31Ijvkd5v6skN20EYJECBQuMCvvq4qfEd0nwABAjtSIO5m9N4rOwfYG1cPaSYCQ3w7/vqDXpI+cuJ701+f9CfpDU96dVo4Z+8hy433zU6dgLCosW48Z6EZEurtxIDlD1zzNynONGzL9P7OuIlmSPjlupvTx2/+4pBnQCzaZcffpalNfdkWQ8sSIEBgsggICpOl0vaTAIGeBdZ0LtGJsHBt5xKguEXqaNOsznX+T9vjqHTeMW9PH3zy+6pv5kdbbqx5T+48r6EemBzL/P2t/zzWotWdl/7tgR+N+fnwD+KBcI+seXj47Op9nAl5bMOvQtABnXEYO3JqU1925H7aNgECBEoWEBRKrp6+EyCQXSDCwkc6dxZ6x2X/J11wz7+nOx5/IMXTmUebdpu+c3rfkZ2Hr+32pNE+HnXevrP27M6PMNK8pWr3g8aLqxtjJxqzR3159+qHRp1fz1zRufVqPTUvfarn9fN3m/rSz/2yLQIECEwkAWMUJlI17QsBAtkEIjB8/76Lqp9odOcZc9NTF5yYnjn/hLT/7IXdswJTO6/i7kXvveojadmaJVvt37zOduppVedyp61N9z52d3V2o3kWYqx1lnRu2bqlaf3m9Vv6uK+ftakvfd0xGyNAgMAEEnBGYQIV064QIDA4gbju/6L7/jP96dUfSe+7+q/T8sag5jiIjxAxnml9Y8zB9M74h61NO3We0zCekLC17ficAAECBAgMFxAUhot4T4AAgR4FlnYu8Xl/JzDEbUjr6YRxXn708BNPTo71YrzD9M7PlqYnjXO7W9qGzwgQIECAwGgCgsJoKuYRIECgIbDrjN3T0/d6evVzzPzjGp+M/XJNZ+DwnY2HtO05a4+xF258cutjdzXepXT8/GOHvB/+5pR54+vP8PW8J0CAAAECWxMwRmFrQj4nQGDSCzylEw5edcDzuw5/tOr+cY03WDBzt+46j2/Y+niDWPjGR66vzkTEbVdjeuOi30w3r7gtrRhlfEE88O2UeUdXy/mHAAECBAj0W8AZhX6L2h4BAhNO4IrOw9Sa028vemnz7aiv9935gDS3c9ejerp/7bL65VZ/f/ehS7vLRGD4wDFvTUd2AsGUJ57UHE9ufubez0xvOeS/dZfzggABAgQI9FvAGYV+i9oeAQITTmB556FnS9Y+mhY+cYbgmM4D1v7k2HelD9/02fToKAHg9H1PS2fv/9whDl/r3Ep1vNNX7/xGOrDz0LWjd11UrRJPSn7X4ldVdzdat2l9mtkYt7Bx86bOU6J95zNeW8sRIECAwPgFBIXxW1mSAIFJLPCxW89Pf3zU76W43WlM+81ekP7v8X/QeVLzmvTw2uXpkfWr0j4z56X5M+emnaYM/U/rTZ1xB/cOG3uwNcq/vuFT6U+P++9pz5m7dxeNuxs1Q0I8Z+EvbvrH9D8OP6fbr+7CXhAgQIAAgR4FfA3VI6DVCRCYHAJxoP9HV/1VWtF5fkI9xYF7fNu/aM4+6cTdFqe9Z80bERLiwWJ/2XlA27ZOmztnCj7QuXPSdx68JK3ZtG7I6nE3pRseuzO9+4q/SLc+etOQz7whQIAAAQL9Ehj6tVe/tmo7BAgQmIACcQnSey7/8/Smw347xe1Ot/T8gtUb16Yv3fsf6UcP/GhUiU2dIPDEyYkht1FtLryhExD+5c6vVz8xPmHnnXZN6zrbXTfkQWxDe7F58+bmJlLVzhNzNjRu1zpkoSfebGqsu2HTr27tOtqyo83bEPv0xDS0F7+cmbMvdT/8JkCAAIHtF5hyxrkXjvbf8+3f4iRac8Hr/msS7a1dJUCgKTC1M8j4+M5dhw6es3+qn6a8unMAv3Tdo+nnS69KD69+sLn4Nr3eadrMzriDX971KILBpi0c4O+3y4HpT456U3f777z8/6THGw97637gBQECBAoRePjTpxbS04nfTWcUJn6N7SEBAjtAIA7eL19yWbo8Xdb3rX/gmHd0B04/sn5l+sPL/2zMNt586Cu6n8XAZiGhy+EFAQIECPQoYIxCj4BWJ0CAQL8Fvnr/Rd1N7tG53Oh/H//u6naou3UGS8cUZzOOmndM+vMT/2jIYOdfLL+xu54XBAgQIECgVwFnFHoVtD4BAgT6LPDzznMU4gFvMVA6pj1n7pHOOfAFKXV+NnXudFTfeanZ7D2rl6TP3val5iyvCRAgQIBATwLOKPTEZ2UCBAjsGIE/vOKD6ZrOE5mHT6OFhJ8svSb9r6s/nNZ3xjOYCBAgQIBAvwScUeiXpO0QIECgjwJx0B/PUjhi3lHp1AVPSfvNWlANmo5nNKzZtDY9sGZZuuWxe9Jlj1yXbl9xSx9btikCBAgQIPBLAUHBXwIBAgRaLHDDsutS/JgIECBAgEBuAZce5RbXHgECBAgQIECAAIECBASFAoqkiwQIECBAgAABAgRyCwgKucW1R4AAAQIECBAgQKAAAUGhgCLpIgECBAgQIECAAIHcAoJCbnHtESBAgAABAgQIEChAQFAooEi6SIAAAQIECBAgQCC3gKCQW1x7BAgQIECAAAECBAoQEBQKKJIuEiBAgAABAgQIEMgtICjkFtceAQIECBAgQIAAgQIEBIUCiqSLBAgQIECAAAECBHILCAq5xbVHgAABAgQIECBAoAABQaGAIukiAQIECBAgQIAAgdwCgkJuce0RIECAAAECBAgQKEBAUCigSLpIgAABAgQIECBAILeAoNCD+OZNU3pY26oECBAgQIAAAQJNAcdWTY3BvxYUeqjBxsd36mFtqxIgQIAAAQIECDQFHFs1NQb/WlDooQbrlu7cw9pWJUCAAAECBAgQaAo4tmpqDP61oNBDDdbeNb+Hta1KgAABAgQIECDQFHBs1dQY/GtBoYcabLxln7ThsRk9bMGqBAgQIECAAAECIRDHVHFsZWqPgKDQYy1WXn5gj1uwOgECBAgQIECAgGOq9v0NCAo91iSS78rr9upxK1YnQIAAAQIECExegTiWcjahffUXFPpQk7WXHCYs9MHRJggQIECAAIHJJxAhIY6lTO0TmN6+LpXZo/gD37B017TriXel6busK3Mn9JoAAQIECBAgkEkgxiTE5UbOJGQC345mBIXtQBtrlfhDX975mbb4/jTzwKVpxvxVadqc9WnK1M1jrWI+AQIECBAgQGBSCMTD1OI5CXEL1Li7kYDQ/rILCjugRvGH/3j87IBt2yQBAgQIECBAgACBHALGKORQ1gYBAgQIECBAgACBwgQEhcIKprsECBAgQIAAAQIEcggICjmUtUGAAAECBAgQIECgMAFBobCC6S4BAgQIECBAgACBHAKCQg5lbRAgQIAAAQIECBAoTEBQKKxgukuAAAECBAgQIEAgh4CgkENZGwQIECBAgAABAgQKExAUCiuY7hIgQIAAAQIECBDIISAo5FDWBgECBAgQIECAAIHCBASFwgqmuwQIECBAgAABAgRyCAgKOZS1QYAAAQIECBAgQKAwAUGhsILpLgECBAgQIECAAIEcAoJCDmVtECBAgAABAgQIEChMQFAorGC6S4AAAQIECBAgQCCHgKCQQ1kbBAgQIECAAAECBAoTEBQKK5juEiBAgAABAgQIEMghICjkUNYGAQIECBAgQIAAgcIEBIXCCqa7BAgQIECAAAECBHIICAo5lLVBgAABAgQIECBAoDABQaGwgukuAQIECBAgQIAAgRwCgkIOZW0QIECAAAECBAgQKExAUCisYLpLgAABAgQIECBAIIeAoJBDWRsECBAgQIAAAQIEChMQFAormO4SIECAAAECBAgQyCEgKORQ1gYBAgQIECBAgACBwgQEhcIKprsECBAgQIAAAQIEcggICjmUtUGAAAECBAgQIECgMAFBobCC6S4BAgQIECBAgACBHAKCQg5lbRAgQIAAAQIECBAoTEBQKKxgukuAAAECBAgQIEAgh8D0HI1ogwCBsgWefMyCtHjR7uPaiU2bNqWly9amS69+KD22av241rEQAQIjBZ536gHpkAPnVh/8x0/vTTfdtnzkQuYQIEBgBwoICjsQ16YJTBSB15x5RDpgn122eXfWrtuY7nlgVfrrz16V7r7vsW1e3woEJrPAWb9xSFo4b3ZFsHHTZkFhMv8x2HcCAxIQFAYEr1kCk0Fg5oxp6dDON6If/p/PTJ/85+vShT+4a0Lv9pzZ09Pfn3damjIlpc2bU3rvBy9O99wvIE3oots5AgQITGABQWECF9euEdhRAo+sWDvmpmfNmJ5mz5o25PM4cH7jy49K1938SLrz3pVDPptIbyIY7dwJC/U0d5ed6pd+EyBAgACB4gR+9f9oxXVdhwkQGITAhg2b0hv+8KItNj1t2pR0ygl7p3e+/rg0bWonJXSmCAuvfdnh6f/7yM+3uK4PCRAgQIAAgXYIuOtRO+qgFwQmlMDGjZvTj39xf3pf59Kb5vSkcQ6Ibq7jNQECBAgQIDAYAWcUBuOuVQKTQuDmOx5NazoDmmd1LsmJKS7N2dq0oDN48ymduywdelDc7WVKuqtzqVLc8eXx1Ru2tmr1+bzdZ6Wnn7hXWnTArmmv+bPTAw+vTjfe+ki66sZlacnS1ePaRiy0Lf3Yaaepae+Fc9Iec2cO2f5+e+2cVnbu/LR6zcb08LLxtz2j4xQnYmIA6/r1m6ptLuzsy3N/bf+0/947p40bN6Urr1+aLrly/HeW2nnO9HTqyfumA/bdpXJZuWpdevDhNemWO5ann1+9ZEi/x3rTq+22rr9/ZwB9nImK6eFlazqOI/8GYpuxbzHFuJCxxoQsnD8nzZr5y+/G4u9gzdqN1TrNf6ZPn5qOO2JeOuGoBWnRfrumdR37G27r/O3csGyLA4ljvX32nFNtatXjG9Ky5Wuq17Gdp56wZ5q7y4z0+a/elB5Y8nizuep1/O2cdOye6bCDd0urVq9PN9/+aFXbEQuaQYAAgQEICAoDQNckgckksPKxdWnWE3dueeIqpFF3/5TOwf07/l97ZwKdRXX28ad8sgRMgUCC7AQIkBUh0ZgQELRUtLaWVi3SekSl2g+ttHqkFRSUQrWoiBzBD4vU1kK1tZufdUMjAgYiEFkCiWwSCGEPWwgiLr3/CXfeO+8Skvd9kxnh/5wTZ+bO3GV+88q5z73PMiYjqDJx6/XJsnHLIXlk9mo1SVazwSAS0+ICueeWdLm0fwd7conH0vqIfCu3i1WjrOK4THqisFalI5xxfP/biXLTtUkBo/rfH6dZZYj+dNP4xQH3gxVgQjtv2hD71o0/f1sevDtTMvq2s8twkpfVSe66WaRw7T6Z8dxaNUkOzqVt6+byS2UClprUzsHFbAzje6egXJ5/ucQsts8jZRtOfSgAsyfn2WNYuqpCZi1Yb1/rk5mTcq2JuL6+a8oy2bP/hL60j3OnDrbN4P759nZ5UU3cTRk5IlF+8r2+AYwGpsbL6O+KVB49JdOeWS07ygN9bK4Z2k3G/LCf1dwx9XsfN3mpTLsv21I2dB8r1uxzKArdlSIyZXyWtIl1Kpd4HorljOeKdFUeSYAESMA1AjQ9cg09OyaB84NArFpN1fLpqZrVcX2tj/eMSZcJdwwIqiTgGawqp/VpZ0UUwupsMHliYq5kX+xUEvyf694pVp5/bJi1qu5/D9fhjuMbetk7WKP1LLtA+XeY8tSDgwKUBPM+3nn+Y0PtVXXzHpSEOVOHWOxqGyJ2er4ztLvcN7a/Wd0+j5RtOPWxKn/SWPVP6d3WHo8+wc6L/+9h6GWd9G37mKzqal8ZFL6rdqi0YDfgt/dny83XBSoJ+hkc4xTLJycOklHfDVQIzeeaNGkis6cMdigJ5n2cY6cBTIIpCbiPYACTf54lbVu3wCWFBEiABFwjQEXBNfTsmATOfQJXqpV8bXaEty2rOBbw0rf/KFmGZne2y7Ew/olatcUK8payI4LVbi2YrM2bfrkyIXGaMN12Y7J0VKY/WmDus6b4gCz6/83WSjlWg7VgUgylxF8iGUfp1sPysTJRwbhNqVAr2yhftX6fWVyvc5gvQcAF7a34aK8cOmPaohuCydMvbwuc5P/sx6kO/tXKdGdJ4W754z9K5ZU3t8lmZXZkbkQMyuwo2NEwJVK2kdQHOy3t2sQohdGpROUOvEjfto+ZafH2uT4ZluNTHqB8VKjcHlruuSVN+vX0KSGfqx2rkm2Vgl0H+NkcPOwzGUP3N1zdK6SiiTYvVGZQ+J2aAhOyqpOfWUUwUXvo7iyH4gITp+27jllmTthNgOBd/ZVG6wb/QwIkQAKNSICmR40Im12RwPlC4MJWTeXmkX1skx+8Nyakf/hbqQMBdhuuubybXYZJ0kNPFcr2nT6FAhOmxx/IkZ5dazLUYqL/A5WIatG/t9j1svsn2Oc7lE/DvdM+sK/1yaS7MpXvQ80kEpNv2LXDnhwS6TjWlx5SduyH1Apwc2vHQvc598/FVkhYfR3u8YTyz7h1Qr4g4pSWjgmt5JmH8+zJM0xkYNNv2uib5kr7lV3+3Q8vc7QBhlnp8TJxXKZuVnIHJsi/F++wryNlG0n9/ILdcnFye2ssmKRnJMfJuk2H7LHlDOxgn+uTLhcFJgbM6FvTBp4xlQ+YNw3K9CkR8KcZP/UD5cvi9CUYfV2SXD+il9UFxvGg+i3dOel93WXQIyb/zy4sVordPvnMUHbH/STV2iHTlTZ8XGNS96VSJrTcOzZD8oxx6XIeSYAESKCxCXBHobGJsz8S+JoTgKnGoqeHh/z7+9yr5E9PXCnDB3W1J7FYUZ0+d7XAudmUe2/PsJ+BIjHpyZUOJQHPwvb+/kdXyBEjdwN2KkwxTTTKdvuUDPOZZxduNC8lsUuN4oHCaI3D0UGULsBl6uxVjgk+moYd/nMvbXL0MlbtzmiBgmU6j7/yxraANvAsHJmx06ClR5dYfWodI2UbSf2Cor3W99cDysvqqE+tY1KP1o5rXDRTzsFQorQ0UY4xOrsxyqB8aPnFremOSft90wsClAQ8C4WqQO3kaEF7/ZOdPiP6Ho6nEUL41/nyfmGFQ0mAYgJfES3le6tkyqxVYioJuDdz/nprh0E/xyMJkAAJuEWAOwpukWe/JPA1JmCaE9XlNeYt2ihFxQcDHk3pHWeXwVk5mKMoHoCysLp4v9qh6Go9D1MbRAHSUYxqHHnVUq8SrBC/t6LCWuG3Cs78BzbvYx9YIsjxAEEUHS3RGoduL5rHdaUHAxQs3f5bS3fJTcpmXtvpm+ZXYALzmaZNYab1lRU5Stczj9j9aaaUv1ASKdtI6mMCvUdFCup0ZuKfluT7vSBakLbxhyIKp/k2Z6JOwU/hL6/W7DhhxwS7ABCMBcqHFjNcL8y6gjlB62cX/LVUcgf4TJ2S1W8XkaeCyUv/2WLvVpn34fSux4LyuX92Kq/ms3NeLFY+EblmEc9JgARIoNEJUFFodOTskATOPwKI/oPwkWakGexMNDUmqGUVVdbkPxSddZsqbUUBz/RNbGMrCrv2VNmmSbDrfnj8JVZY0sJ1++SD1Xus8JaYJOqwlWYf0RyH2W60zlcYE9tgbe49WG0rClph0M+ZvHUZVtthxtW9y4XSVZkqZaYl1GoLHwlb9BlpfUR1GvntntbwE5RyqCXHmLQj7CgiWumJPEzMtKIw+BLfLgSUDr1677/jsnj5Lt100CN+O9h5aamia0ESVfjdULJ4WXnQW91UaFotMHMqVWF7Q8knymcB/jnmrlCoZ1lOAiRAAg1FgIpCQ5FluyRwjhLA6u0jT68K+nZYLf3mhc2tHAZX5na2V3xRjsneW2oCtV9NbCH+ZiOIuoO/ukpcG5/D6BO/XyuzHsqzzE50/Vi1Uo6wqPiDkoBJ4tJVe+TVxZ84YuhHcxy672geNypH6doEuzB9ziSyCzapxMr7naNTJLv/RdIqpv7/5EfCFuOOtP6bS8ttRQGTe0QwKlFMTP+EtSUHpVjlydCKgumnkGLsQqxU/gJaOqt8FKaYfjFmuXl+ovq0rSjoXQ7zPs7xW6tSzvTBxDSBwg7I2QS+KcG+6dnq8T4JkAAJRItA6P3maPXAdkiABM4pAl8pRaF4c2XQvw1qsoZIMQv/tVnumPi+HPBLMmaGruzVzecjEA6g5kbkI6wo3zN1uWwznKDNNjHBxMRu1Hd6y4szv2UlLtP3ozkO3WY0j5WHfSZSwdqt2OeL4IP7eFct1wzrJgvV+15xWZeQSoKa19YqkbBFw5HWh2Ox6UMx+NKaHQLsKGmBL8Cq9fvVJL2mRPspQEkyk+C9qUy1tPTu7vRvKDciIeln/I9QArQ0vcDHWZfhqP73CCnaVAoPBEv45l+xWiVgo5AACZCAmwTqv7zk5mjZNwmQwNeGACL0/PU/W1VSsHR7zF2NVdxjVc5JEGzEg5kG2ZX9TjaobLmmYKfi/kcLpLWyUx8xpKtaQe9gZTGGaZEpiKcPU6h96nkoNtEeh9lXNM7j2rZwhPP0bxO+GlpgqqInsylJbeX2G1IcNvF4DqFVy1RkKJgEbVQK3zoVrWn+o8MEOzChJFy2ur1I62/aUmllL0Z76SqfBr5p6zOJyhDOdOsZJ3kopto8CUrp3v2+6EVYnTezY5+odq7ow1fjsBFGV4/dPLaM8eXwQBSp+sqp059bORJQry6hT1u1DP1N6ts3nycBEiCBcAhQUQiHGuuQAAnUicCy1XsdioI58SnZdsTRxutLyuT193Y6ysK5OKqiI7382lbrD/URxecqpTgMuaSzPUnDojtCrEJRaKhxhDP2YHX692tXq6JgOjAfPe6b/CKbtbG5YOVP+L9FmxxReHR//sqULvc/1pdttOq/qyIVZaUnWM11aN/SUgL1u5kOyOs/Pmj7scBP4ehxX/6MjUrZMKV0uzMCF6Jg7VJ+MqEEOzWtYuAYXiMVhhKiy852rDxyyjbHi1UmemeTVjFUFM7GiPdJgAQalgAVhYbly9ZJ4LwmgPjxsNbQk7rmzXyr+zApMe9hpbg2RaGnMlUaPybD4vmlqvjAjJWW+UaOSro16treVjn8EB57tsjBHDb889QEef7LJfLcb4fapijdVJZmSLTG4eg0ihfJvdrIG0tCK1D9evmShcGxWUsXY/cGXGa/sEHfchyxAxNjmHGZNyNlG2l9PZYP18Gs6CvLrAor8SOvStS3pGjjAfs8v6DCVhTgqJ1gJI97x89ZGT4Cuk00MESZNC39sMJuy/8ETtGmWRd2ZeorCIeq84EgMVuCUnq0z45/W4nK4RwmVBQSIAEScJMA/xVykz77JoHzgACcn7U0a+pcmzh+wrcCnpWRIM1UMrVQgszDmPzhD/4G2sYbDrq6/FLVBpKeBZMvlIkKIsloMS3MozEO3W60j1kZHaRlCCfk4XldbOda9GtOXs1dgsNHQ/s5/HCEb9LtP/ZI2UZaX48HE/rdhi+Gnmzj/pKVvsk9ogjp3xsiamEyDkEZ8kX4yxFjB2ZASvtaf3/fH+7jhPHUplT496Ov/c3lbruhn74VcLxjlC8nRsBNFpAACZBAIxGgotBIoNkNCZyvBL74wpdN2N8OfoGRqRm+A4/ef5llf+7P6naVSAzZlLWs3eTLyYDVZlPuHJ1qXtrnWDlPNSLgIIOzlmiMA20h0ZYpOhO0WVbfc+Ss+N2vcgKqpfeNk5/+KMUuh63+39/Ybl+byk/Pbq2lRZBdg5/elCLXDuth18GJuWoeKdtI65sDQ4Zjf4EfjKkc4b6/czfK4I8RTF54pdQuxnvPnjwoKKc7VNQoMxHdCpV8TWf1thuow8m7BeXKJ8anHEOxvW54j4Cao1RujL49fTtFAQ+wgARIgAQaiYBzea+ROmU3JEAC5w8BTGD1Gv83Y33OoCCAVdnrr+6pnI5r4ssnKn+CFx6/QpmT7FfJr04KQqBipTeudQsbGBx2n35hvX2NiRfs1HU2Xky+5k2/XN5XbSPkZccOLSUrLUGSVJQbc5X9tfwddhvRGAcaQ1jMz05/aZuMYBV6QEq87NxzXGYt8I3Z7riOJ1CSkA17W9lRFeb1hHRVvPoktrVNutDMvEXFjkko3n1garzVA5SNP6ps2cWbD8nWsmOS1qet9Ojc2vbZMIeBvAqjr0uSxcvLrTwVkbCNxrfRY0NyuRuu7qUvrWOwSEVrig9YO0zmgwVFe8xL+3yZCpc7+ntJAr8HCEyVnn/sCvmo5IDsVP4KcWp3KlUlVjNDqWI3Ab4e4cozf9ogE8dl2tVv+UE/GaaiUpVuP2zlTejfr72Y+RbsB3lCAiRAAi4QoKLgAnR2SQLnE4FTn31uh+bEhPW2G/sJstxqmTanSB7/dY4ddQcJrfIyO+nbjqOao8n0OWukWkWwMeU3z6yROY8MsSfOiFd//QjnpNJ8HhNH/0zR0RgH+vhk11F7NRir1FiJRrK5cEXb0YMddkTMXRHdZokyuYHDrykzn18nf5hxhZ3UDqY4UFrwZ8pxpdxs2lppOQijHOZCYAel59V3dkikbCOtr8eKiFgYq7krZfon6OfyV+wW00wI5W+rXAyhZPrcIvndhBxbaYpp8T9WPobcAYE1oPTOmFcUMk9CYI3AEphALSncLUOzO9s3oRgEUw6OKGdsM6SqXYEnJEACJNBIBGh61Eig2Q0JfJ0JaLtvvIPP46Bub+RvCnJlTldHRThz3johXz5UcfBrE2Te/dWMFVb+Bv/nEKv/wZmFcvLTL/xvOa4x0fvHW9vlyfmBq/vRGAc6e1HlkEA/0ZIps1Y5dgrMdqE4LV9TIQ8HSYAHZWrSk4VyREWBCiVQMMY+8J78/qUSazU72HORso20vjkmhEk1JX+lUznCvXJlZoRdHS2YbJvmPrpcH/H8mAnvWsqSLgt2rFShU8dNXhrU1wH+L1rwTc4mcCx/dmGx5Uwd7FmYVD21YJ21I6bvmyZ8uoxHEiABEmhoAt8Y+bM36vDPWkMPg+2TAAmQgEh7tROQlR4vacr+vo0yU8JkF5F8XsvfGTI6jMkNK/gDUttJXlZHZX4Sa+0wwG+gYl+VsmWvknc+KA/YjTDr6/NIx9FE+VtcnNJO2reNsWzZMSGva44ImFDNeWSwHorcNWWZZVqFCEKX9o+32sRq/+ayI7Lsw72O3AB2Jb+Ty7M7SWqfOOUE3lKqqj+3bPZff6/MkTeglXL8HZTZ0cpDgBwTy1Vo25Of+nZuImUbaX2/V2qQy4viWwr8SpCDAuZI+N1s3HJYPtp0qE6/v/oOKkbtnmVf3EGyMuIlVuVM2K6c7QvW7JUtZ/JC1Lc9Pk8CJEAC0SZARSHaRNkeCZAACURAIJSiEEGTrEoCJEACJEACYRGg6VFY2FiJBEiABEiABEiABEiABM5tAlQUzu3vy7cjARIgARIgARIgARIggbAIUFEICxsrkQAJkAAJkAAJkAAJkMC5TYCKwrn9ffl2JEACJEACJEACJEACJBAWAeZRCAsbK5EACZBAwxCoqj4t+w9V243jmkICJEACJEACbhBg1CM3qLNPEiABEiABEiABEiABEvA4AZoeefwDcXgkQAIkQAIkQAIkQAIk4AYBKgpuUGefJEACJEACJEACJEACJOBxAlQUPP6BODwSIAESIAESIAESIAEScIMAFQU3qLNPEiABEiABEiABEiABEvA4ASoKHv9AHB4JkAAJkAAJkAAJkAAJuEGAioIb1NknCZAACZAACZAACZAACXicABUFj38gDo8ESIAESIAESIAESIAE3CBARcEN6uyTBEiABEiABEiABEiABDxOgIqCxz8Qh0cCJEACJEACJEACJEACbhCgouAGdfZJAiRAAiRAAiRAAiRAAh4nQEXB4x+IwyMBEiABEiABEiABEiABNwhQUXCDOvskARIgARIgARIgARIgAY8ToKLg8Q/E4ZEACZAACZAACZAACZCAGwSoKLhBnX2SAAmQAAmQAAmQAAmQgMcJUFHw+Afi8EiABEiABEiABEiABEjADQJUFNygzj5JgARIgARIgARIgARIwOMEqCh4/ANxeCRAAiRAAiRAAiRAAiTgBgEqCm5QZ58kQAIkQAIkQAIkQAIk4HECVBQ8/oE4PBIgARIgARIgARIgARJwgwAVBTeos08SIAESIAESIAESIAES8DgBKgoe/0AcHgmQAAmQAAmQAAmQAAm4QYCKghvU2ScJkAAJkAAJkAAJkAAJeJwAFQWPfyAOjwRIgARIgARIgARIgATcIEBFwQ3q7JMESIAESIAESIAESIAEPE6AioLHPxCHRwIkQAIkQAIkQAIkQAJuEKCi4AZ19kkCJEACJEACJEACJEACHidARcHjH4jDIwESIAESIAESIAESIAE3CFBRcIM6+yQBEiABEiABEiABEiABjxOgouDxD8ThkQAJkAAJkAAJkAAJkIAbBKgouEGdfZIACZAACZAACZAACZCAxwlQUfD4B+LwSIAESIAESIAESIAESMANAlQU3KDOPkmABEiABEiABEiABEjA4wSoKHj8A3F4JEACJEACJEACJEACJOAGASoKblBnnyRAAiRAAiRAAiRAAiTgcQJUFDz+gTg8EiABEiABEiABEiABEnCDwH8BCLqsZ7ZIMSoAAAAASUVORK5CYII=;" vertex="1" parent="1">
          <mxGeometry x="12" y="-1160" width="389" height="440" as="geometry" />
        </mxCell>
        <mxCell id="Alp5XPQn2nxa5z0a9zQi-2" value="" style="endArrow=oval;startArrow=oval;html=1;rounded=0;strokeWidth=2;dashed=1;dashPattern=1 2;startFill=1;endFill=1;strokeColor=#FF0000;" edge="1" parent="1">
          <mxGeometry width="50" height="50" relative="1" as="geometry">
            <mxPoint x="230" y="-789.9" as="sourcePoint" />
            <mxPoint x="440" y="-790" as="targetPoint" />
          </mxGeometry>
        </mxCell>
        <mxCell id="Alp5XPQn2nxa5z0a9zQi-3" value="" style="shape=image;verticalLabelPosition=bottom;labelBackgroundColor=default;verticalAlign=top;aspect=fixed;imageAspect=0;image=data:image/png,iVBORw0KGgoAAAANSUhEUgAAAxIAAAQiCAYAAAA/GcvoAAAMS2lDQ1BJQ0MgUHJvZmlsZQAASImVVwdck0cbv3dkQggQiICMsJcgIiOAjBBW2BtBVEISIIwYE4KKGylWsG4RwVHRKkNxVUCKC7VqpSjuXRyoKLVYi1v5LgTQ0m/8vsvv7v7533P/e57nvXccAPQuvlSai2oCkCfJl8UG+7MmJ6ewSD2AAHThjwpYfIFcyomODgewDPd/L6+vAUTZX3ZQav1z/L8WLaFILgAAiYY4XSgX5EH8IwB4q0AqyweAKIW8+ax8qRKvg1hHBh2EuEaJM1W4VYnTVfjioE18LBfiRwCQ1fl8WSYAGn2QZxUIMqEOHUYLnCRCsQRiP4h98vJmCCFeBLENtIFr0pX67PSvdDL/ppk+osnnZ45gVSyDhRwglktz+XP+z3T875KXqxhewxpW9SxZSKwyZpi3RzkzwpRYHeK3kvTIKIi1AUBxsXDQXomZWYqQBJU9aiOQc2HOABPiSfLcON4QHyvkB4RBbAhxhiQ3MnzIpihDHKS0gflDK8T5vHiI9SCuEckD44ZsjstmxA6vey1DxuUM8U/5skEflPqfFTkJHJU+pp0l4g3pY46FWfFJEFMhDigQJ0ZCrAFxpDwnLmzIJrUwixs5bCNTxCpjsYBYJpIE+6v0sfIMWVDskH1dnnw4dux4lpgXOYQv5WfFh6hyhT0S8Af9h7FgfSIJJ2FYRySfHD4ci1AUEKiKHSeLJAlxKh7Xk+b7x6rm4nbS3Oghe9xflBus5M0gjpcXxA3PLciHm1Olj5dI86PjVX7ildn80GiVP/g+EA64IACwgALWdDADZANxR29TL/ynGgkCfCADmUAEHIaY4RlJgyMS2MaBQvA7RCIgH5nnPzgqAgWQ/zSKVXLiEU7VOoCMoTGlSg54DHEeCAO58L9iUEky4kEieAQZ8T884sMqgDHkwqoc//f8MPuF4UAmfIhRDK/Iog9bEgOJAcQQYhDRFjfAfXAvPBy2frA642zcYziOL/aEx4ROwgPCVUIX4eZ0cZFslJcRoAvqBw3lJ/3r/OBWUNMV98e9oTpUxpm4AXDAXeA6HNwXruwKWe6Q38qssEZp/y2Cr67QkB3FiYJSxlD8KDajZ2rYabiOqChz/XV+VL6mj+SbOzIyen3uV9kXwj5stCX2LXYQO4OdwM5hrVgTYGHHsGasHTuixCM77tHgjhteLXbQnxyoM3rPfLmyykzKneqdepw+qsbyRbPzlTcjd4Z0jkycmZXP4sA3hojFkwgcx7GcnZxdAVC+f1SPt1cxg+8VhNn+hVvyGwDexwYGBn76woUeA2C/O3wkHP7C2bDhq0UNgLOHBQpZgYrDlQ0BPjno8O7TB8bAHNjAeJyBG/ACfiAQhIIoEA+SwTTofRbc5zIwC8wDi0EJKAOrwHpQCbaC7aAG7AEHQBNoBSfAz+A8uAiugttw93SD56APvAYfEAQhITSEgegjJoglYo84I2zEBwlEwpFYJBlJQzIRCaJA5iFLkDJkDVKJbENqkf3IYeQEcg7pRG4i95Ee5E/kPYqh6qgOaoRaoeNRNspBw9B4dCqaic5EC9FidAVagVaju9FG9AR6Hr2KdqHP0X4MYGoYEzPFHDA2xsWisBQsA5NhC7BSrByrxhqwFnidL2NdWC/2DifiDJyFO8AdHIIn4AJ8Jr4AX45X4jV4I34Kv4zfx/vwzwQawZBgT/Ak8AiTCZmEWYQSQjlhJ+EQ4TS8l7oJr4lEIpNoTXSH92IyMZs4l7icuJm4l3ic2El8SOwnkUj6JHuSNymKxCflk0pIG0m7ScdIl0jdpLdkNbIJ2ZkcRE4hS8hF5HJyHfko+RL5CfkDRZNiSfGkRFGElDmUlZQdlBbKBUo35QNVi2pN9abGU7Opi6kV1Abqaeod6is1NTUzNQ+1GDWx2iK1CrV9amfV7qu9U9dWt1PnqqeqK9RXqO9SP65+U/0VjUazovnRUmj5tBW0WtpJ2j3aWw2GhqMGT0OosVCjSqNR45LGCzqFbknn0KfRC+nl9IP0C/ReTYqmlSZXk6+5QLNK87Dmdc1+LYbWBK0orTyt5Vp1Wue0nmqTtK20A7WF2sXa27VPaj9kYAxzBpchYCxh7GCcZnTrEHWsdXg62TplOnt0OnT6dLV1XXQTdWfrVuke0e1iYkwrJo+Zy1zJPMC8xnw/xmgMZ4xozLIxDWMujXmjN1bPT0+kV6q3V++q3nt9ln6gfo7+av0m/bsGuIGdQYzBLIMtBqcNesfqjPUaKxhbOvbA2FuGqKGdYazhXMPthu2G/UbGRsFGUqONRieNeo2Zxn7G2cbrjI8a95gwTHxMxCbrTI6ZPGPpsjisXFYF6xSrz9TQNMRUYbrNtMP0g5m1WYJZkdles7vmVHO2eYb5OvM28z4LE4sIi3kW9Ra3LCmWbMssyw2WZyzfWFlbJVkttWqyemqtZ82zLrSut75jQ7PxtZlpU21zxZZoy7bNsd1se9EOtXO1y7Krsrtgj9q72YvtN9t3jiOM8xgnGVc97rqDugPHocCh3uG+I9Mx3LHIscnxxXiL8SnjV48/M/6zk6tTrtMOp9sTtCeETiia0DLhT2c7Z4FzlfOVibSJQRMXTmye+NLF3kXkssXlhivDNcJ1qWub6yc3dzeZW4Nbj7uFe5r7JvfrbB12NHs5+6wHwcPfY6FHq8c7TzfPfM8Dnn94OXjleNV5PZ1kPUk0acekh95m3nzvbd5dPiyfNJ/vfbp8TX35vtW+D/zM/YR+O/2ecGw52ZzdnBf+Tv4y/0P+b7ie3Pnc4wFYQHBAaUBHoHZgQmBl4L0gs6DMoPqgvmDX4LnBx0MIIWEhq0Ou84x4Al4try/UPXR+6Kkw9bC4sMqwB+F24bLwlgg0IjRibcSdSMtISWRTFIjiRa2NuhttHT0z+qcYYkx0TFXM49gJsfNiz8Qx4qbH1cW9jvePXxl/O8EmQZHQlkhPTE2sTXyTFJC0Jqlr8vjJ8yefTzZIFic3p5BSElN2pvRPCZyyfkp3qmtqSeq1qdZTZ089N81gWu60I9Pp0/nTD6YR0pLS6tI+8qP41fz+dF76pvQ+AVewQfBc6CdcJ+wReYvWiJ5keGesyXia6Z25NrMnyzerPKtXzBVXil9mh2RvzX6TE5WzK2cgNyl3bx45Ly3vsERbkiM5NcN4xuwZnVJ7aYm0a6bnzPUz+2Rhsp1yRD5V3pyvAz/02xU2im8U9wt8CqoK3s5KnHVwttZsyez2OXZzls15UhhU+MNcfK5gbts803mL592fz5m/bQGyIH1B20LzhcULuxcFL6pZTF2cs/jXIqeiNUV/LUla0lJsVLyo+OE3wd/Ul2iUyEquL/VauvVb/Fvxtx3LJi7buOxzqbD0lzKnsvKyj8sFy3/5bsJ3Fd8NrMhY0bHSbeWWVcRVklXXVvuurlmjtaZwzcO1EWsb17HWla77a/309efKXcq3bqBuUGzoqgivaN5osXHVxo+VWZVXq/yr9m4y3LRs05vNws2XtvhtadhqtLVs6/vvxd/f2Ba8rbHaqrp8O3F7wfbHOxJ3nPmB/UPtToOdZTs/7ZLs6qqJrTlV615bW2dYt7IerVfU9+xO3X1xT8Ce5gaHhm17mXvL9oF9in3P9qftv3Yg7EDbQfbBhh8tf9x0iHGotBFpnNPY15TV1NWc3Nx5OPRwW4tXy6GfHH/a1WraWnVE98jKo9SjxUcHjhUe6z8uPd57IvPEw7bpbbdPTj555VTMqY7TYafP/hz088kznDPHznqfbT3nee7wL+xfms67nW9sd20/9Kvrr4c63DoaL7hfaL7ocbGlc1Ln0Uu+l05cDrj88xXelfNXI692Xku4duN66vWuG8IbT2/m3nx5q+DWh9uL7hDulN7VvFt+z/Be9W+2v+3tcus6cj/gfvuDuAe3HwoePn8kf/Sxu/gx7XH5E5MntU+dn7b2BPVcfDblWfdz6fMPvSW/a/2+6YXNix//8PujvW9yX/dL2cuBP5e/0n+16y+Xv9r6o/vvvc57/eFN6Vv9tzXv2O/OvE96/+TDrI+kjxWfbD+1fA77fGcgb2BAypfxBz8FMKA82mQA8OcuAGjJADDguZE6RXU+HCyI6kw7iMB/wqoz5GBxA6ABftPH9MKvm+sA7NsBgBXUp6cCEE0DIN4DoBMnjtThs9zguVNZiPBs8H3Mp/S8dPBviupM+pXfo3ugVHUBo/t/ASVngw4IJLDzAAAAlmVYSWZNTQAqAAAACAAFARIAAwAAAAEAAQAAARoABQAAAAEAAABKARsABQAAAAEAAABSASgAAwAAAAEAAgAAh2kABAAAAAEAAABaAAAAAAAAAJAAAAABAAAAkAAAAAEAA5KGAAcAAAASAAAAhKACAAQAAAABAAADEqADAAQAAAABAAAEIgAAAABBU0NJSQAAAFNjcmVlbnNob3SCe1e4AAAACXBIWXMAABYlAAAWJQFJUiTwAAAC3GlUWHRYTUw6Y29tLmFkb2JlLnhtcAAAAAAAPHg6eG1wbWV0YSB4bWxuczp4PSJhZG9iZTpuczptZXRhLyIgeDp4bXB0az0iWE1QIENvcmUgNi4wLjAiPgogICA8cmRmOlJERiB4bWxuczpyZGY9Imh0dHA6Ly93d3cudzMub3JnLzE5OTkvMDIvMjItcmRmLXN5bnRheC1ucyMiPgogICAgICA8cmRmOkRlc2NyaXB0aW9uIHJkZjphYm91dD0iIgogICAgICAgICAgICB4bWxuczpleGlmPSJodHRwOi8vbnMuYWRvYmUuY29tL2V4aWYvMS4wLyIKICAgICAgICAgICAgeG1sbnM6dGlmZj0iaHR0cDovL25zLmFkb2JlLmNvbS90aWZmLzEuMC8iPgogICAgICAgICA8ZXhpZjpVc2VyQ29tbWVudD5TY3JlZW5zaG90PC9leGlmOlVzZXJDb21tZW50PgogICAgICAgICA8ZXhpZjpQaXhlbFhEaW1lbnNpb24+Nzg2PC9leGlmOlBpeGVsWERpbWVuc2lvbj4KICAgICAgICAgPGV4aWY6UGl4ZWxZRGltZW5zaW9uPjEwNTg8L2V4aWY6UGl4ZWxZRGltZW5zaW9uPgogICAgICAgICA8dGlmZjpSZXNvbHV0aW9uVW5pdD4yPC90aWZmOlJlc29sdXRpb25Vbml0PgogICAgICAgICA8dGlmZjpYUmVzb2x1dGlvbj4xNDQvMTwvdGlmZjpYUmVzb2x1dGlvbj4KICAgICAgICAgPHRpZmY6WVJlc29sdXRpb24+MTQ0LzE8L3RpZmY6WVJlc29sdXRpb24+CiAgICAgICAgIDx0aWZmOk9yaWVudGF0aW9uPjE8L3RpZmY6T3JpZW50YXRpb24+CiAgICAgIDwvcmRmOkRlc2NyaXB0aW9uPgogICA8L3JkZjpSREY+CjwveDp4bXBtZXRhPgrjeEcsAABAAElEQVR4AezdCZxc51kn6k+7tVi7ZFmWZdmWN3mPdwcntrM6C4yTkIFASCBkJmRuIMwAd8JcAheGgTsMzAA3AS4EQjJAQlayObtN7MSxHW/xIi+ybHmRZW3Wvlu65y2nqqurq7uq1S3193U/5/eTq+ps9Z7nbcL519nGXf+eGw4lAwECBAgQIECAAAECBAYhMH4Q85qVAAECBAgQIECAAAECNQFBwh8CAQIECBAgQIAAAQKDFhAkBk1mAQIECBAgQIAAAQIEBAl/AwQIECBAgAABAgQIDFpAkBg0mQUIECBAgAABAgQIEBAk/A0QIECAAAECBAgQIDBoAUFi0GQWIECAAAECBAgQIEBAkPA3QIAAAQIECBAgQIDAoAUEiUGTWYAAAQIECBAgQIAAAUHC3wABAgQIECBAgAABAoMWECQGTWYBAgQIECBAgAABAgQECX8DBAgQIECAAAECBAgMWkCQGDSZBQgQIECAAAECBAgQECT8DRAgQIAAAQIECBAgMGgBQWLQZBYgQIAAAQIECBAgQECQ8DdAgAABAgQIECBAgMCgBQSJQZNZgAABAgQIECBAgAABQcLfAAECBAgQIECAAAECgxYQJAZNZgECBAgQIECAAAECBAQJfwMECBAgQIAAAQIECAxaQJAYNJkFCBAgQIAAAQIECBAQJPwNECBAgAABAgQIECAwaAFBYtBkFiBAgAABAgQIECBAQJDwN0CAAAECBAgQIECAwKAFBIlBk1mAAAECBAgQIECAAAFBwt8AAQIECBAgQIAAAQKDFhAkBk1mAQIECBAgQIAAAQIEBAl/AwQIECBAgAABAgQIDFpAkBg0mQUIECBAgAABAgQIEBAk/A0QIECAAAECBAgQIDBoAUFi0GQWIECAAAECBAgQIEBAkPA3QIAAAQIECBAgQIDAoAUEiUGTWYAAAQIECBAgQIAAAUHC3wABAgQIECBAgAABAoMWECQGTWYBAgQIECBAgAABAgQECX8DBAgQIECAAAECBAgMWkCQGDSZBQgQIECAAAECBAgQECT8DRAgQIAAAQIECBAgMGgBQWLQZBYgQIAAAQIECBAgQECQ8DdAgAABAgQIECBAgMCgBQSJQZNZgAABAgQIECBAgAABQcLfAAECBAgQIECAAAECgxYQJAZNZgECBAgQIECAAAECBAQJfwMECBAgQIAAAQIECAxaQJAYNJkFCBAgQIAAAQIECBCYiIAAAQKlCDxw29+mPbue71jumRe9LU2feXzH+cwwsgJbNq1ON3/+1zsWcdlrfistXHJBx/nMQIAAAQJHV0CQOLrevo0AgSEIrL7/y+nA/l0d13Diaa8QJDoqjfwMB/bt7qqf+/fuGPliVUCAAAECfQSc2tSHxAgCBAgQIECAAAECBDoJCBKdhEwnQIAAAQIECBAgQKCPgCDRh8QIAgQIECBAgAABAgQ6CQgSnYRMJ0CAAAECBAgQIECgj4Ag0YfECAIECBAgQIAAAQIEOgkIEp2ETCdAgAABAgQIECBAoI+A27/2ITGCAAECBI6GwOQpM6rb9C7q+FVTps7qOI8ZCBAgQODoCwgSR9/cNxIgQIBAJTBz7knp1W/7OxYECBAgUKiAU5sKbZyyCRAgQIAAAQIECIykgCMSI6nvuwkQGFMCu3duThufvS/t2bkh7d2zNe3dvTXtq/7FMLk6feeYqbPT5GNmpakzFqb5i8+tfT4aQLt3bkq7tq+v6nm+9i+l8enY2UvSjDknHrUajsZ2tv+OQ2nPrudr279z+3NVP7ZUvZhdO+Vq+szj05RjZrZfzFgCBAgQSIKEPwICBAgcQYFd1c7pmoe/ntY+fmvatunxQX3T7IWnp0UnXZaWnfnaNHX63EEt22nmCA/PPPad9NSj305bNqzqd/aJk6alecevSGdc+NO11/qM65++p1r2W/WPbV/nHndWOnnF69pOi5G7dmxIK+/4WL/T6xOWn/fmNGvesvrHPq/rn7orPffUHX3GN49YcMKFleWljVH79u5Iqx/4Ynr07k+nA/t3Nca3vontn73g1HT6BW9Nxy29uHWyzwQIEBjTAoLEmG6/jSdA4EgJ7N+3Kz1yzz+nR+765GF/xZb1j6T499AdH09nXfpzafl5b0oTJ0457PXFgocOHUyPP/iVdO/NH+pqPbGT/dyTP6j9O+WcN6YVl/58mjR5atq8/qH05MPfHHAd+/ZsGzhIVEdBOq0jvmDR0ssGDhLP3J1W/fDzA9Zy8OALtSAR2//IPZ+q+vLPAwaI+spi+zeuva/2L44SnX35u9LchWfUJ3slQIDAmBZwjcSYbr+NJ0DgSAhsWrcyffXjbx9SiGita+XtH0tf/4d3pC0bH2ud1PXn+BX+O//yG12HiNYVr77/i+nGT7+3Oi1re+ukIj5HmLjrpv+ZHrzto12FiNaNikDxr599f7r3lg9XgexQ62SfCRAgMOYEBIkx13IbTIDAkRTYUO1sfufz//GwdlQ71RXXVNxcBYHnq6MUgx0O7N+TvveVD6bN6x4Y7KK95t+5bV2689v/vXZko9eEAj7cf+tfd3UEpNOmRKB68HZ3m+rkZDoBAqNfQJAY/T22hQQIHCWBCBG3fOE3jui3xak2N332VwYVJuKX+Nu/8fvp+edWDkttcapTnG5V0hA7/4/d9y/DVvIjd38qbX7uoWFbnxURIECgRAFBosSuqZkAgewE4rShO6qd9aM13PHNP6iOeuzp6uvWPPS12jUOXc1spq4FurlQvOuVmZEAAQIFCggSBTZNyQQI5Cdw3/f+qnY716NVWZxitPKOv+/4dXE61P23fqTjfGYYvMD6p+9OcfcrAwECBMaqgLs2jdXO224CBIZNIG6F2s3dh5q/cEr13Ig5x52ZZlTPKhg3fmLt1rBxkfZAtyJtXj7ex52KTlh+9YB3EXrozn8Y1Dpbv2M0f44ezF98Xjp48EA6UN1la8Mz9w56czc9+0Basvxlg17OAgQIEBgNAoLEaOiibSBAYEQFHq1u89rtEM8luPRVv1k9k+CiNoscqgLJt9KdN/5xm2ntR6269zO19bWbun//7hTXBnQ7RG2nnPvGtPT0V6Rpxx5XuzPRts1PpK0bV6fYxjgKMhqG2M6XXP2r6fiTL0/jqxBXH+Jako1VmPjul/9LfVTH1+fXrxQkOiqZgQCB0Srg1KbR2lnbRYDAURHYWj1kLk5x6WaYMfuEdM1b/ryfEBFrGJeWnvHK9PI3/a8Uv5Z3Mzzz2M3VDv5zbWdd+9gtbce3Gzl95qL0irf+RTr70ndWT7U+MU2YMLn2zIp4ZsLJK65LV7/5z3s90K3dOkoYN3XG/HTtT34onXDqj/UKEVH7+PET0sITX5Ku+vH/3vWmxNPKDQQIEBirAoLEWO287SZAYFgEnlh5Q9fredlP/HGaMWtxx/lj5/2lb/iDjvPVZ3jiofY1xBO1uxniF/qrqtqmHbuw39knT5mRLn/tb6elZ76q33lKmPCSq/9TitA00BAPnltx2TsHmqUxbd+erY333hAgQGCsCQgSY63jtpcAgWEVePaJW7ta32kXvKXrowyxwlnzTk6Lll3W1brXrbm9z3wvvLA/bXr2/j7j241YUT01e+r0ue0m9Ro3btz4tOKSd/QaV9KHhUsuTAuXXNBVyYuWXtrVfPv37exqPjMRIEBgNAoIEqOxq7aJAIGjIrBrx4a0e8fGrr7r1HN+oqv5mmc6/YK3Nn/s9/226vSquP1s87Bt85rmj/2+j6MRy1a8rt/prROmTp+XTjnnja2ji/h8/MlXdl3nsXNO7GreuK7CQIAAgbEqIEiM1c7bbgIEhiywad2DXa1jyWnXpDg3f7DDvEUr0szqyEQ3w/MtD0fbuvHRbharXa8xYcKkruatz7T8vOvrb4t6XXDC+V3X23wRdtcLmZEAAQJjTECQGGMNt7kECAyfwM5tz3a1sm5/3W63splzl7Ub3Wfczu2976i0e2d3R0ridJ/BDp2uMRjs+o7W/FNn9H8NSLsaDif8tVuPcQQIEBitAoLEaO2s7SJA4IgL7N+7ravvmDpt8Ecj6ise6ALo+jzxundP71r27dnePLnf9zNmLel3Wv8TxqW4A1Vpw8SJU0orWb0ECBDIWkCQyLo9iiNAIGeBvbt777z3V+u0GQv6m9RxfLfL7m8JEt1eBDypuhvT4QzTqwfplTR0ezvdkrZJrQQIEBhpAUFipDvg+wkQKFZg/97ufvWfPG32YW/jlKlzulq29WLr/S0XX/e3kkmTp/c3acDxU6Z1V9eAKzmKE8cP8jqQo1iaryJAgECxAoJEsa1TOAECIy0woctTZV44sPewSz2wf09Xy06YOLnXfN1eLPzCC/t6Ldfth327t3Y7q/kIECBAYJQKCBKjtLE2iwCBIy8w+ZiZXX1Jt7eIbbeyPbu6u2h68pRjey0+6Zjen3tNbPqwr+WUqKZJA77dsfWZAaebSIAAAQKjX0CQGP09toUECBwhgW6DxJ4u76DUrsxd2ze0G91nXGstk7sMEt3eear3Fx5KO7YIEr1NfCJAgMDYExAkxl7PbTEBAsMkMGVqd9c+7Nqx/rC/cVfLbV37W9HkKb2Pjkya3N1F1OvW3NbfKvsdv3vn5n6nmUCAAAECY0dAkBg7vbalBAgMs8Ds+cu7WuOzj38vHc4TkOMC6uee/EFX3zF7wWm95ps556Ren/v78MxjN6cDg7yGY/UDX+xvdcYTIECAwBgSECTGULNtKgECwyswa/6pXa1w57Z16dknbu1q3uaZnlj5leaP/b6fOGlamjl3aa/psxec3uvzQB9W3999MIijEY/c9cmBVmcaAQIECIwRAUFijDTaZhIgMPwC8YCzecef09WKH7k7dr4PdTVvzBRHCR6+s7sd9gVLzk/jxvX+n/Op0+embp/M/MD3P5J2bX+ui9oOpZU/+FgX85mFAAECBMaCQO//zzMWttg2EiBAYBgFTjzt2q7WtmXDqrT6gS91Ne+hQwfTyjv+Ph3Yv6ur+ZecenXb+U449aq249uN/M6//FravuXpdpNq4+I0q9u+/t/SmpVf63ceEwgQIEBgbAlMHFuba2sJEBgLAt/90gfS9JmLhn1Tx42fkF5+/Z+myVN6HuJ24mnXpPtv/ZuudvrvvfnDafvzT6Vzr/x3qb/nPOzftzvdeeMfpWcf7+5UqHhi8+JTrmy7rcvOui6tuvdzbae1joxb1H7zE+9Oy8+/Pi09/VVp+qzF1VGOcWnb5jVp68ZV6aE7/zEN5Ta2rd/nMwECBAiULyBIlN9DW0CAQBuBuC7hSAwHX4iHy/UEiYmTjkmnnPvGrq8biOsRtmxcnU464xVp1rxT07FzT0pxBGLbpifS1k2PpZi+/fknuy79tAve0m8oOXb2iWnhkgvT+qfv7np9ETy6DR9dr9SMBAgQIDAqBQSJUdlWG0WAwNEUWH7em9Lq+77Y1VGJqGvzugdq/4ZaY1wDsWzF6wdczYrL3jmoIDHgykwkQIAAAQJNAq6RaMLwlgABAocjMKV6wvVF1/7a4Sw6pGUuuvY30qRJUwdcx5zq7k1nXvL2AecxkQABAgQIHI6AIHE4apYhQIBAi8Dik69IS894ZcvYI/dx+Xn/Ji1YfG5XX3DGhW/t+u5SXa3QTAQIECBAoBIQJPwZECBAYJgELnjZ+9LxVaA40sOJp78inX35L3b9NXFh95Wv+73a9RJdLzTAjHHdxWDuCDXAqkwiQIAAgYIFBImCm6d0AgTyEpgwYXK69FW/mZYsf/kRK2zZiteli675j9UF1hMG9R1xUfjl1/1OWnrmqwa1XOvMC044P132mg9W14Psbp3kMwECBAiMMQEXW4+xhttcAgSOrED8+n/Rtb9enUp0dnrg+x/t+gLsTlXF06vPvfLdadlZr6lmHddp9rbTI+hcdPV/TMvOeG2655b/t7pT1ONt52s3Mm4ze+bFP5NOOvM1Kdazd8+2drP1HlfdPtZAgAABAqNXQJAYvb21ZQRGncCUqTOHbcf8cHHGVzvRnYY4WnDK2W+sjkxckx6555Pp0bs/3WmRfqdHgIhnOyw//80dL6zudyUtE+YdvyJd+5YPpS0bHk3rnrw9rX38e21DxYzZJ6QZs05Ixy29pLr+41UpnuRdH/Z3ESSi9oGGCRM7W8bycTRloGFCh+kvrmPgWtqtv1P9h7vedt9lHAECBEoUGHf9e244VGLhaiZAgEApAi+8sD89/9xD6bmn70zrn7oz7diytt9AFDuvM+YsSYuqnfeFS16S5iw8vd/nRAz39h84sDftqwLCuHET0jHTZlev/Z39eih98SNv6Xcb6nUtW3FduvBlv1z/6JUAAQIERpmAIxKjrKE2hwCB/AQmTJiU5ld3WIp/Z1/6zlqBBw++kPbv25kOViEjHkg3YeIxtSdm97/zfuS3K444TJyxoOMXba0enndg/66O802eMqPjPGYgQIAAgXIFBIlye6dyAgQKFojTn+L5EyUOG57p7knZcVqUgQABAgRGr4AgMXp7a8sIEBjjAt//2u+2vfahlWX5+W+qXdPROr7d54MHD6Q1D3+z3aQ+42bMOrHPOCMIECBAYPQICBKjp5e2hAABAr0E9u3ZnnZuW9drXLsPq+79bFp6enUxdRcXLa+842NdhZP4npnzT273dcYRIECAwCgR6O9KulGyeTaDAAECY1dgzsLTutr4CBu3f/2/prj2ob9h987N6Y5v/mF65O5P9TdLr/GLTrp02O4y1WvFPhAgQIBANgKOSGTTCoUQIEBgeAWOW3JxWnXv57pa6XPV3aTiXzxw7tg5S9Mx0+e9+LyI3VvS5udWpo1r7+tqPfWZlpx2bf2tVwIECBAYpQKCxChtrM0iQIDAgiUXpngWxI4tz3SNseGZe1P8G8oQ33nCKT82lFVYlgABAgQKEHBqUwFNUiIBAgQOR2Bc9WTp8658z+EsOqRlXnL1f6qefTFhSOuwMAECBAjkLyBI5N8jFRIgQOCwBY5benE685K3H/byg13wytf91zRv0VmDXcz8BAgQIFCggCBRYNOUTIAAgcEInHXRT6dzr/x3g1nksOa99FX/JR239KLDWtZCBAgQIFCegGskyuuZigkQIDBIgXFp+XnXpzkLz0yP3PPJtO6J2wa5/MCzL1txXTrzop9NU6fPHXhGUwkQIEBgVAmMu/49NxwaVVtkYwgQIEBgQIFd29enNY98Iz1+/xfT3t1bB5y3v4lTZ8xPxy+7Ii0767o0a57nRfTnZDwBAgRGs4AgMZq7a9sIECAwgEA8pXrT2vvTrh3PpV07N6U91b/dO9anCBq7d2xMk6ZMS1Omzk5TjpmVJh0zs3qdWYWGU9P8xeel6TOPG2DNJhEgQIDAWBBwatNY6LJtJECAQBuB8eMnpgVLLmgzxSgCBAgQINBZwMXWnY3MQYAAAQIECBAgQIBAi4Ag0QLiIwECBAgQIECAAAECnQUEic5G5iBAgAABAgQIECBAoEVAkGgB8ZEAAQIECBAgQIAAgc4CgkRnI3MQIECAAAECBAgQINAiIEi0gPhIgAABAgQIECBAgEBnAUGis5E5CBAgQIAAAQIECBBoERAkWkB8JECAAAECBAgQIECgs4Ag0dnIHAQIECBAgAABAgQItAgIEi0gPhIgQIAAAQIECBAg0FlAkOhsZA4CBAgQIECAAAECBFoEBIkWEB8JECBAgAABAgQIEOgsIEh0NjIHAQIECBAgQIAAAQItAoJEC4iPBAgQIECAAAECBAh0FhAkOhuZgwABAgQIECBAgACBFgFBogXERwIECBAgQIAAAQIEOgsIEp2NzEGAAAECBAgQIECAQIuAINEC4iMBAgQIECBAgAABAp0FBInORuYgQIAAAQIECBAgQKBFQJBoAfGRAAECBAgQIECAAIHOAoJEZyNzECBAgAABAgQIECDQIiBItID4SIAAAQIECBAgQIBAZwFBorOROQgQIECAAAECBAgQaBEQJFpAfCRAgAABAgQIECBAoLOAINHZyBwECBAgQIAAAQIECLQICBItID4SIECAAAECBAgQINBZQJDobGQOAgQIECBAgAABAgRaBASJFhAfCRAgQIAAAQIECBDoLCBIdDYyBwECBAgQIECAAAECLQKCRAuIjwQIECBAgAABAgQIdBYQJDobmYMAAQIECBAgQIAAgRYBQaIFxEcCBAgQIECAAAECBDoLCBKdjcxBgAABAgQIECBAgECLgCDRAuIjAQIECBAgQIAAAQKdBQSJzkbmIECAAAECBAgQIECgRUCQaAHxkQABAgQIECBAgACBzgKCRGcjcxAgQIAAAQIECBAg0CIgSLSA+EiAAAECBAgQIECAQGcBQaKzkTkIECBAgAABAgQIEGgRECRaQHwkQIAAAQIECBAgQKCzgCDR2cgcBAgQIECAAAECBAi0CAgSLSA+EiBAgAABAgQIECDQWWBi51nMQaBMga99bFuZhauaAAECBEZU4DU/N3NEv9+XEyhFwBGJUjqlTgIECBAgQIAAAQIZCQgSGTVDKQQIECBAgAABAgRKERAkSumUOgkQIECAAAECBAhkJCBIZNQMpRAgQIAAAQIECBAoRUCQKKVT6iRAgAABAgQIECCQkYAgkVEzlEKAAAECBAgQIECgFAFBopROqZMAAQIECBAgQIBARgKCREbNUAoBAgQIECBAgACBUgQEiVI6pU4CBAgQIECAAAECGQkIEhk1QykECBAgQIAAAQIEShEQJErplDoJECBAgAABAgQIZCQgSGTUDKUQIECAAAECBAgQKEVAkCilU+okQIAAAQIECBAgkJGAIJFRM5RCgAABAgQIECBAoBQBQaKUTqmTAAECBAgQIECAQEYCgkRGzVAKAQIECBAgQIAAgVIEBIlSOqVOAgQIECBAgAABAhkJCBIZNUMpBAgQIECAAAECBEoRECRK6ZQ6CRAgQIAAAQIECGQkIEhk1AylECBAgAABAgQIEChFQJAopVPqJECAAAECBAgQIJCRgCCRUTOUQoAAAQIECBAgQKAUAUGilE6pkwABAgQIECBAgEBGAoJERs1QCgECBAgQIECAAIFSBASJUjqlTgIECBAgQIAAAQIZCQgSGTVDKQQIECBAgAABAgRKERAkSumUOgkQIECAAAECBAhkJCBIZNQMpRAgQIAAAQIECBAoRUCQKKVT6iRAgAABAgQIECCQkYAgkVEzlEKAAAECBAgQIECgFAFBopROqZMAAQIECBAgQIBARgKCREbNUAoBAgQIECBAgACBUgQEiVI6pU4CBAgQIECAAAECGQkIEhk1QykECBAgQIAAAQIEShEQJErplDoJECBAgAABAgQIZCQgSGTUDKUQIECAAAECBAgQKEVAkCilU+okQIAAAQIECBAgkJGAIJFRM5RCgAABAgQIECBAoBQBQaKUTqmTAAECBAgQIECAQEYCgkRGzVAKAQIECBAgQIAAgVIEBIlSOqVOAgQIECBAgAABAhkJCBIZNUMpBAgQIECAAAECBEoRECRK6ZQ6CRAgQIAAAQIECGQkIEhk1AylECBAgAABAgQIEChFQJAopVPqJECAAAECBAgQIJCRgCCRUTOUQoAAAQIECBAgQKAUAUGilE6pkwABAgQIECBAgEBGAoJERs1QCgECBAgQIECAAIFSBASJUjqlTgIECBAgQIAAAQIZCQgSGTVDKQQIECBAgAABAgRKERAkSumUOgkQIECAAAECBAhkJCBIZNQMpRAgQIAAAQIECBAoRUCQKKVT6iRAgAABAgQIECCQkYAgkVEzlEKAAAECBAgQIECgFAFBopROqZMAAQIECBAgQIBARgKCREbNUAoBAgQIECBAgACBUgQEiVI6pU4CBAgQIECAAAECGQkIEhk1QykECBAgQIAAAQIEShEQJErplDoJECBAgAABAgQIZCQgSGTUDKUQIECAAAECBAgQKEVAkCilU+okQIAAAQIECBAgkJGAIJFRM5RCgAABAgQIECBAoBQBQaKUTqmTAAECBAgQIECAQEYCgkRGzVAKAQIECBAgQIAAgVIEBIlSOqVOAgQIECBAgAABAhkJCBIZNUMpBAgQIECAAAECBEoRECRK6ZQ6CRAgQIAAAQIECGQkIEhk1AylECBAgAABAgQIEChFQJAopVPqJECAAAECBAgQIJCRgCCRUTOUQoAAAQIECBAgQKAUAUGilE6pkwABAgQIECBAgEBGAoJERs1QCgECBAgQIECAAIFSBASJUjqlTgIECBAgQIAAAQIZCQgSGTVDKQQIECBAgAABAgRKERAkSumUOgkQIECAAAECBAhkJCBIZNQMpRAgQIAAAQIECBAoRUCQKKVT6iRAgAABAgQIECCQkYAgkVEzlEKAAAECBAgQIECgFAFBopROqZMAAQIECBAgQIBARgKCREbNUAoBAgQIECBAgACBUgQEiVI6pU4CBAgQIECAAAECGQkIEhk1QykECBAgQIAAAQIEShEQJErplDoJECBAgAABAgQIZCQgSGTUDKUQIECAAAECBAgQKEVAkCilU+okQIAAAQIECBAgkJGAIJFRM5RCgAABAgQIECBAoBQBQaKUTqmTAAECBAgQIECAQEYCgkRGzVAKAQIECBAgQIAAgVIEBIlSOqVOAgQIECBAgAABAhkJCBIZNUMpBAgQIECAAAECBEoRECRK6ZQ6CRAgQIAAAQIECGQkIEhk1AylECBAgAABAgQIEChFQJAopVPqJECAAAECBAgQIJCRgCCRUTOUQoAAAQIECBAgQKAUAUGilE6pkwABAgQIECBAgEBGAoJERs1QCgECBAgQIECAAIFSBASJUjqlTgIECBAgQIAAAQIZCQgSGTVDKQQIECBAgAABAgRKERAkSumUOgkQIECAAAECBAhkJCBIZNQMpRAgQIAAAQIECBAoRUCQKKVT6iRAgAABAgQIECCQkYAgkVEzlEKAAAECBAgQIECgFAFBopROqZMAAQIECBAgQIBARgKCREbNUAoBAgQIECBAgACBUgQEiVI6pU4CBAgQIECAAAECGQkIEhk1QykECBAgQIAAAQIEShEQJErplDoJECBAgAABAgQIZCQgSGTUDKUQIECAAAECBAgQKEVAkCilU+okQIAAAQIECBAgkJGAIJFRM5RCgAABAgQIECBAoBQBQaKUTqmTAAECBAgQIECAQEYCgkRGzVAKAQIECBAgQIAAgVIEBIlSOqVOAgQIECBAgAABAhkJCBIZNUMpBAgQIECAAAECBEoRECRK6ZQ6CRAgQIAAAQIECGQkIEhk1AylECBAgAABAgQIEChFQJAopVPqJECAAAECBAgQIJCRgCCRUTOUQoAAAQIECBAgQKAUAUGilE6pkwABAgQIECBAgEBGAoJERs1QCgECBAgQIECAAIFSBASJUjqlTgIECBAgQIAAAQIZCQgSGTVDKQQIECBAgAABAgRKERAkSumUOgkQIECAAAECBAhkJCBIZNQMpRAgQIAAAQIECBAoRUCQKKVT6iRAgAABAgQIECCQkYAgkVEzlEKAAAECBAgQIECgFAFBopROqZMAAQIECBAgQIBARgKCREbNUAoBAgQIECBAgACBUgQEiVI6pU4CBAgQIECAAAECGQkIEhk1QykECBAgQIAAAQIEShEQJErplDoJECBAgAABAgQIZCQgSGTUDKUQIECAAAECBAgQKEVAkCilU+okQIAAAQIECBAgkJGAIJFRM5RCgAABAgQIECBAoBQBQaKUTqmTAAECBAgQIECAQEYCgkRGzVAKAQIECBAgQIAAgVIEBIlSOqVOAgQIECBAgAABAhkJCBIZNUMpBAgQIECAAAECBEoRECRK6ZQ6CRAgQIAAAQIECGQkIEhk1AylECBAgAABAgQIEChFQJAopVPqJECAAAECBAgQIJCRgCCRUTOUQoAAAQIECBAgQKAUAUGilE6pkwABAgQIECBAgEBGAoJERs1QCgECBAgQIECAAIFSBASJUjqlTgIECBAgQIAAAQIZCQgSGTVDKQQIECBAgAABAgRKERAkSumUOgkQIECAAAECBAhkJCBIZNQMpRAgQIAAAQIECBAoRUCQKKVT6iRAgAABAgQIECCQkYAgkVEzlEKAAAECBAgQIECgFAFBopROqZMAAQIECBAgQIBARgKCREbNUAoBAgQIECBAgACBUgQEiVI6pU4CBAgQIECAAAECGQkIEhk1QykECBAgQIAAAQIEShEQJErplDoJECBAgAABAgQIZCQgSGTUDKUQIECAAAECBAgQKEVAkCilU+okQIAAAQIECBAgkJGAIJFRM5RCgAABAgQIECBAoBQBQaKUTqmTAAECBAgQIECAQEYCgkRGzVAKAQIECBAgQIAAgVIEBIlSOqVOAgQIECBAgAABAhkJCBIZNUMpBAgQIECAAAECBEoRECRK6ZQ6CRAgQIAAAQIECGQkIEhk1AylECBAgAABAgQIEChFQJAopVPqJECAAAECBAgQIJCRgCCRUTOUQoAAAQIECBAgQKAUAUGilE6pkwABAgQIECBAgEBGAoJERs1QCgECBAgQIECAAIFSBASJUjqlTgIECBAgQIAAAQIZCQgSGTVDKQQIECBAgAABAgRKERAkSumUOgkQIECAAAECBAhkJCBIZNQMpRAgQIAAAQIECBAoRUCQKKVT6iRAgAABAgQIECCQkYAgkVEzlEKAAAECBAgQIECgFAFBopROqZMAAQIECBAgQIBARgKCREbNUAoBAgQIECBAgACBUgQEiVI6pU4CBAgQIECAAAECGQkIEhk1QykECBAgQIAAAQIEShEQJErplDoJECBAgAABAgQIZCQgSGTUDKUQIECAAAECBAgQKEVAkCilU+okQIAAAQIECBAgkJGAIJFRM5RCgAABAgQIECBAoBQBQaKUTqmTAAECBAgQIECAQEYCgkRGzVAKAQIECBAgQIAAgVIEBIlSOqVOAgQIECBAgAABAhkJCBIZNUMpBAgQIECAAAECBEoRECRK6ZQ6CRAgQIAAAQIECGQkIEhk1AylECBAgAABAgQIEChFQJAopVPqJECAAAECBAgQIJCRgCCRUTOUQoAAAQIECBAgQKAUAUGilE6pkwABAgQIECBAgEBGAoJERs1QCgECBAgQIECAAIFSBASJUjqlTgIECBAgQIAAAQIZCQgSGTVDKQQIECBAgAABAgRKERAkSumUOgkQIECAAAECBAhkJCBIZNQMpRAgQIAAAQIECBAoRUCQKKVT6iRAgAABAgQIECCQkYAgkVEzlEKAAAECBAgQIECgFAFBopROqZMAAQIECBAgQIBARgKCREbNUAoBAgQIECBAgACBUgQEiVI6pU4CBAgQIECAAAECGQkIEhk1QykECBAgQIAAAQIEShEQJErplDoJECBAgAABAgQIZCQgSGTUDKUQIECAAAECBAgQKEVAkCilU+okQIAAAQIECBAgkJGAIJFRM5RCgAABAgQIECBAoBQBQaKUTqmTAAECBAgQIECAQEYCgkRGzVAKAQIECBAgQIAAgVIEBIlSOqVOAgQIECBAgAABAhkJCBIZNUMpBAgQIECAAAECBEoRECRK6ZQ6CRAgQIAAAQIECGQkIEhk1AylECBAgAABAgQIEChFQJAopVPqJECAAAECBAgQIJCRgCCRUTOUQoAAAQIECBAgQKAUAUGilE6pkwABAgQIECBAgEBGAoJERs1QCgECBAgQIECAAIFSBASJUjqlTgIECBAgQIAAAQIZCQgSGTVDKQQIECBAgAABAgRKERAkSumUOgkQIECAAAECBAhkJCBIZNQMpRAgQIAAAQIECBAoRUCQKKVT6iRAgAABAgQIECCQkYAgkVEzlEKAAAECBAgQIECgFAFBopROqZMAAQIECBAgQIBARgKCREbNUAoBAgQIECBAgACBUgQEiVI6pU4CBAgQIECAAAECGQkIEhk1QykECBAgQIAAAQIEShEQJErplDoJECBAgAABAgQIZCQgSGTUDKUQIECAAAECBAgQKEVAkCilU+okQIAAAQIECBAgkJGAIJFRM5RCgAABAgQIECBAoBQBQaKUTqmTAAECBAgQIECAQEYCgkRGzVAKAQIECBAgQIAAgVIEBIlSOqVOAgQIECBAgAABAhkJCBIZNUMpBAgQIECAAAECBEoRECRK6ZQ6CRAgQIAAAQIECGQkIEhk1AylECBAgAABAgQIEChFQJAopVPqJECAAAECBAgQIJCRgCCRUTOUQoAAAQIECBAgQKAUAUGilE6pkwABAgQIECBAgEBGAoJERs1QCgECBAgQIECAAIFSBASJUjqlTgIECBAgQIAAAQIZCQgSGTVDKQQIECBAgAABAgRKERAkSumUOgkQIECAAAECBAhkJCBIZNQMpRAgQIAAAQIECBAoRUCQKKVT6iRAgAABAgQIECCQkYAgkVEzlEKAAAECBAgQIECgFAFBopROqZMAAQIECBAgQIBARgKCREbNUAoBAgQIECBAgACBUgQEiVI6pU4CBAgQIECAAAECGQkIEhk1QykECBAgQIAAAQIEShEQJErplDoJECBAgAABAgQIZCQgSGTUDKUQIECAAAECBAgQKEVAkCilU+okQIAAAQIECBAgkJGAIJFRM5RCgAABAgQIECBAoBQBQaKUTqmTAAECBAgQIECAQEYCgkRGzVAKAQIECBAgQIAAgVIEBIlSOqVOAgQIECBAgAABAhkJCBIZNUMpBAgQIECAAAECBEoRECRK6ZQ6CRAgQIAAAQIECGQkIEhk1AylECBAgAABAgQIEChFQJAopVPqJECAAAECBAgQIJCRgCCRUTOUQoAAAQIECBAgQKAUAUGilE6pkwABAgQIECBAgEBGAoJERs1QCgECBAgQIECAAIFSBASJUjqlTgIECBAgQIAAAQIZCQgSGTVDKQQIECBAgAABAgRKERAkSumUOgkQIECAAAECBAhkJCBIZNQMpRAgQIAAAQIECBAoRUCQKKVT6iRAgAABAgQIECCQkYAgkVEzlEKAAAECBAgQIECgFAFBopROqZMAAQIECBAgQIBARgKCREbNUAoBAgQIECBAgACBUgQEiVI6pU4CBAgQIECAAAECGQkIEhk1QykECBAgQIAAAQIEShEQJErplDoJECBAgAABAgQIZCQgSGTUDKUQIECAAAECBAgQKEVAkCilU+okQIAAAQIECBAgkJGAIJFRM5RCgAABAgQIECBAoBQBQaKUTqmTAAECBAgQIECAQEYCgkRGzVAKAQIECBAgQIAAgVIEBIlSOqVOAgQIECBAgAABAhkJCBIZNUMpBAgQIECAAAECBEoRECRK6ZQ6CRAgQIAAAQIECGQkIEhk1AylECBAgAABAgQIEChFQJAopVPqJECAAAECBAgQIJCRgCCRUTOUQoAAAQIECBAgQKAUAUGilE6pkwABAgQIECBAgEBGAoJERs1QCgECBAgQIECAAIFSBASJUjqlTgIECBAgQIAAAQIZCQgSGTVDKQQIECBAgAABAgRKERAkSumUOgkQIECAAAECBAhkJCBIZNQMpRAgQIAAAQIECBAoRUCQKKVT6iRAgAABAgQIECCQkYAgkVEzlEKAAAECBAgQIECgFAFBopROqZMAAQIECBAgQIBARgKCREbNUAoBAgQIECBAgACBUgQEiVI6pU4CBAgQIECAAAECGQkIEhk1QykECBAgQIAAAQIEShEQJErplDoJECBAgAABAgQIZCQgSGTUDKUQIECAAAECBAgQKEVAkCilU+okQIAAAQIECBAgkJGAIJFRM5RCgAABAgQIECBAoBQBQaKUTqmTAAECBAgQIECAQEYCgkRGzVAKAQIECBAgQIAAgVIEBIlSOqVOAgQIECBAgAABAhkJCBIZNUMpBAgQIECAAAECBEoRECRK6ZQ6CRAgQIAAAQIECGQkIEhk1AylECBAgAABAgQIEChFQJAopVPqJECAAAECBAgQIJCRgCCRUTOUQoAAAQIECBAgQKAUAUGilE6pkwABAgQIECBAgEBGAoJERs1QCgECBAgQIECAAIFSBASJUjqlTgIECBAgQIAAAQIZCQgSGTVDKQQIECBAgAABAgRKERAkSumUOgkQIECAAAECBAhkJCBIZNQMpRAgQIAAAQIECBAoRUCQKKVT6iRAgAABAgQIECCQkYAgkVEzlEKAAAECBAgQIECgFAFBopROqZMAAQIECBAgQIBARgKCREbNUAoBAgQIECBAgACBUgQEiVI6pU4CBAgQIECAAAECGQkIEhk1QykECBAgQIAAAQIEShEQJErplDoJECBAgAABAgQIZCQgSGTUDKUQIECAAAECBAgQKEVAkCilU+okQIAAAQIECBAgkJGAIJFRM5RCgAABAgQIECBAoBQBQaKUTqmTAAECBAgQIECAQEYCgkRGzVAKAQIECBAgQIAAgVIEBIlSOqVOAgQIECBAgAABAhkJCBIZNUMpBAgQIECAAAECBEoRECRK6ZQ6CRAgQIAAAQIECGQkIEhk1AylECBAgAABAgQIEChFQJAopVPqJECAAAECBAgQIJCRgCCRUTOUQoAAAQIECBAgQKAUAUGilE6pkwABAgQIECBAgEBGAoJERs1QCgECBAgQIECAAIFSBASJUjqlTgIECBAgQIAAAQIZCQgSGTVDKQQIECBAgAABAgRKERAkSumUOgkQIECAAAECBAhkJCBIZNQMpRAgQIAAAQIECBAoRUCQKKVT6iRAgAABAgQIECCQkYAgkVEzlEKAAAECBAgQIECgFAFBopROqZMAAQIECBAgQIBARgKCREbNUAoBAgQIECBAgACBUgQEiVI6pU4CBAgQIECAAAECGQkIEhk1QykECBAgQIAAAQIEShEQJErplDoJECBAgAABAgQIZCQgSGTUDKUQIECAAAECBAgQKEVAkCilU+okQIAAAQIECBAgkJGAIJFRM5RCgAABAgQIECBAoBQBQaKUTqmTAAECBAgQIECAQEYCgkRGzVAKAQIECBAgQIAAgVIEBIlSOqVOAgQIECBAgAABAhkJCBIZNUMpBAgQIECAAAECBEoRECRK6ZQ6CRAgQIAAAQIECGQkIEhk1AylECBAgAABAgQIEChFQJAopVPqJECAAAECBAgQIJCRgCCRUTOUQoAAAQIECBAgQKAUAUGilE6pkwABAgQIECBAgEBGAoJERs1QCgECBAgQIECAAIFSBASJUjqlTgIECBAgQIAAAQIZCQgSGTVDKQQIECBAgAABAgRKERAkSumUOgkQIECAAAECBAhkJCBIZNQMpRAgQIAAAQIECBAoRUCQKKVT6iRAgAABAgQIECCQkYAgkVEzlEKAAAECBAgQIECgFAFBopROqZMAAQIECBAgQIBARgKCREbNUAoBAgQIECBAgACBUgQEiVI6pU4CBAgQIECAAAECGQkIEhk1QykECBAgQIAAAQIEShEQJErplDoJECBAgAABAgQIZCQgSGTUDKUQIECAAAECBAgQKEVAkCilU+okQIAAAQIECBAgkJGAIJFRM5RCgAABAgQIECBAoBQBQaKUTqmTAAECBAgQIECAQEYCgkRGzVAKAQIECBAgQIAAgVIEBIlSOqVOAgQIECBAgAABAhkJCBIZNUMpBAgQIECAAAECBEoRECRK6ZQ6CRAgQIAAAQIECGQkIEhk1AylECBAgAABAgQIEChFQJAopVPqJECAAAECBAgQIJCRgCCRUTOUQoAAAQIECBAgQKAUAUGilE6pkwABAgQIECBAgEBGAoJERs1QCgECBAgQIECAAIFSBASJUjqlTgIECBAgQIAAAQIZCQgSGTVDKQQIECBAgAABAgRKERAkSumUOgkQIECAAAECBAhkJCBIZNQMpRAgQIAAAQIECBAoRUCQKKVT6iRAgAABAgQIECCQkYAgkVEzlEKAAAECBAgQIECgFAFBopROqZMAAQIECBAgQIBARgKCREbNUAoBAgQIECBAgACBUgQEiVI6pU4CBAgQIECAAAECGQkIEhk1QykECBAgQIAAAQIEShEQJErplDoJECBAgAABAgQIZCQgSGTUDKUQIECAAAECBAgQKEVAkCilU+okQIAAAQIECBAgkJGAIJFRM5RCgAABAgQIECBAoBQBQaKUTqmTAAECBAgQIECAQEYCEzOqRSkEhlXgNT83c1jXZ2UECBAgQIAAAQI9Ao5I9Fh4R4AAAQIECBAgQIBAlwKCRJdQZiNAgAABAgQIECBAoEdAkOix8I4AAQIECBAgQIAAgS4FBIkuocxGgAABAgQIECBAgECPgCDRY+EdAQIECBAgQIAAAQJdCggSXUKZjQABAgQIECBAgACBHgFBosfCOwIECBAgQIAAAQIEuhQQJLqEMhsBAgQIECBAgAABAj0CgkSPhXcECBAgQIAAAQIECHQpIEh0CWU2AgQIECBAgAABAgR6BASJHgvvCBAgQIAAAQIECBDoUkCQ6BLKbAQIECBAgAABAgQI9AgIEj0W3hEgQIAAAQIECBAg0KWAINEllNkIECBAgAABAgQIEOgRECR6LLwjQIAAAQIECBAgQKBLAUGiSyizESBAgAABAgQIECDQIyBI9Fh4R4AAAQIECBAgQIBAlwKCRJdQZiNAgAABAgQIECBAoEdAkOix8I4AAQIECBAgQIAAgS4FBIkuocxGgAABAgQIECBAgECPgCDRY+EdAQIECBAgQIAAAQJdCggSXUKZjQABAgQIECBAgACBHgFBosfCOwIECBAgQIAAAQIEuhQQJLqEMhsBAgQIECBAgAABAj0CgkSPhXcECBAgQIAAAQIECHQpIEh0CWU2AgQIECBAgAABAgR6BASJHgvvCBAgQIAAAQIECBDoUkCQ6BLKbAQIECBAgAABAgQI9AgIEj0W3hEgQIAAAQIECBAg0KWAINEllNkIECBAgAABAgQIEOgRECR6LLwjQIAAAQIECBAgQKBLAUGiSyizESBAgAABAgQIECDQIyBI9Fh4R4AAAQIECBAgQIBAlwKCRJdQZiNAgAABAgQIECBAoEdAkOix8I4AAQIECBAgQIAAgS4FBIkuocxGgAABAgQIECBAgECPgCDRY+EdAQIECBAgQIAAAQJdCggSXUKZjQABAgQIECBAgACBHgFBosfCOwIECBAgQIAAAQIEuhQQJLqEMhsBAgQIECBAgAABAj0CE3veekeAAIHhFzhwYG/a+My9Q1rxxElT0/zF5w5pHSO98MZnH0gH9u2slTFn4RlpytRZjZI2P/dQ2rdnW+3z7AWnpWOmzWlMG+qbDZX9C1UP6sP8E85PEydOqX8cltdN6x5MO7eura1r/uLz0rRjFx7Wep957Jaq1j0pjRuXFp/yY8Ne52EVZSECBAgQ6FdAkOiXxgQCBIZDIHYwb73ht4e0qtjpft07PjGkdYz0wnfd+D/Szm3ramVc+ur/kk6odpTrw323/k3avO6B2seLX/Eb6cTTrqlPGtLrru3PpVu++J97rePSV1XffWrPd/eaeJgfVt//hfT0qn+tLR31H26QuOum/5kO7N9VW8/8489NEw8zkBzmZliMAAECBAYp4NSmQYKZnQABAqUIPLXqpj6lPvnoN/uMM4IAAQIECByOgCMSh6NmGQIEDlsgji5MmjJjUMtPm3F4p8oM6ktG2cyHDh1Kjz/wpT5bte6J29Le3Vt7nVrVZyYjCBAgQIBAFwKCRBdIZiFAYPgEXvqGP0iz5p08fCssZE2Xv/Z3GtcqzJi95IhXHdct7N6xse33rH38lnTyite3nWYkAQIECBDoVsCpTd1KmY8AAQJDEJg596Q0Z+HptX+TJk8bwpq6W/TJR77RmHHuorPTsXOWNj4/8dDXG++9IUCAAAEChyvgiMThylmOAIEREzh48EB1l6Ptte+fUN2BqL5jvmv7+vT8hkfSnl2b0+RjZqWZ1c5z36Mfh9KOrc+m59c/XB0h2JdmL1ieYid//Phu/ufwULX+x9Ku6qLp3Ts3pHHjJ6Rjps5NU2fMr9ZzWrWOCf2aHDz4QjXtUG36i/ON63feoU7Yv393WrPya43VnHTGq9K+vdvTA9//SG3clvWPpO1bnk7HDuLISNS/7fk1aceWZ9Kk6i5a02YuGtTy9WIO7N+Ttm5cnXbv2pSmTDk2HVvZd3OXqv37djWO6MTpcePGjU9xR7DN61ZW/XwqTT/2+HTc0ovrX9Prdd/enWn75qr2rc9U4w9VF4Mfl+YuOitNmDC513z9fYjv3rIx+r427dq5KU2bPr8WzOLI0uQuTtMb6vL91WU8AQIERlqgm//POdI1+n4CBAj0Elj7+K3pjm/8t9q4uC3sFa/7vXTvLX+RnnyoZ+e5vkDsXF78iv+ztsMXy9357f/RuDNQfZ54Pf+q/5BOOfsNzaOa3h9Kax76Rnrknn+u7Ug3TWi8jZ3bU879iXT6BT/ZNpR865//fWPZy17zwbT45Csayw73m2er7WweFp/y0rS/KUjEtKcf+9d01kU/0zxb2/cRyu7+1z9N69bc3md6HOl4ydXv7zO+3YhN1Q7/D7/74bRlw6o+k088/RXpgqv+jz7jm0d87ysfbNzZ6uXX/8906NDBdMc3/6Bx+tbxlWdrkNi66fF0101/0vY7J06alpZf8OZ05kt+qhZKmr+r/v6FF/anJx78Snrw9o+1/ZuJ+U45543pnCt+sW0oGery9Tq8EiBAIFcBQSLXzqiLAIH+BaoLievDvr070ver28vG8xLaDc89+YN0d3Vb0YUnXpzu+c6ftZulNu7emz9U7QxOSied+Zo+80RIWX3/F/uMbx4RFzCvrHY445fvi6799T5HJw7Vjki8uMShQ3F04sgNax76amPlJ5z6slqIil/OZ1enVsXRiBjWrPxqtRP9tmonuv8jI9u3PJW++6XfbOysN1b6ozdxy9qb/+XXUjznY6AhAtxtX/vdfmd56pFv1W6NW7/1a78z/mjCxmd/WB1d+bsBZ3ti5Q1VAOq/3/FdD93x8bStOtIQ/Zo46Zg+67vn5j+vwmnPKWJ9ZqhGxN/F5udWpiuu+90+R1aGuny77zOOAAECOQkIEjl1Qy0ECAxaYFv1q3N9mHf8OWlB9cC12El84sGvNX5FXvv491L8qw9Lquc0TJuxIK1/5p7GjnVMu+um/1U9Y+HlvXYqN1enQDWHiDiNafl5b26c1hM72/EchfozIuJ5Cieedm1adNKl9a87qq87tz2bNq69r/GdS6tf++tDvK8HibgQO04Lmnf8ivrkXq97q1PHbvrM+xuGMXFmdZH8wiUXpPHVKUEb195fO0IQASr+9TdseOaHfULEcSdeVIWaM2oP6Fu35raaXf05Gv2tp3l8a4iIowvHTJvbmOWpR2/qFSJi+rKzXp1mzD6x+q5nq9BZ9f1HR0bi72LXF349xVGO5tPbnqr62BwiouYF1bbPnLOsdupc1F3/m4p1rfzBx9OFL/vlnhqGuHxjRd4QIEAgYwFBIuPmKI3AaBRYdd/najvx3W7blKlzBjjlqGctF13zn9LSM17ZGHHyijekb/zTuxqf48306rz+K173u1UIOLE2/uzqv3HKTvMD8zau/WGvEBB3OKoPM2afUO1w/q9e58XH6TQnnfna9K+fe3/a/vyTtVkjfIxUkHhq1Y31cqtANK06EvOSxufFy65MP6yOrtSHp1Z9u98gsfqBL/YKEWdd+vZ0xoU/3esIxurq9rJxJGegIXawm4crrvu/e9msuOznq1Oe/qLXNR3N8w/0fsVl70zLKvs4raw+xHUT933vL+sfq2shzk6XvuoDaer0eY1xcZ3Efbf+dVp17+dq4yIIrFtzR6/TzSIo1IdTz/3xdN5Lf6n+sfZ60pmvTo/e++l0/60vXnfyxIM3pHOvLH9PrAAAQABJREFU/PeNp3EPdfleX+YDAQIEMhUQJDJtjLIIjFaB5l95u9nG2Pnv/9qFF9ewbMV1vUJEjJ0xa3G1Y3hl41fjGHfBy36lESLicwyxwx87ovVf1fdUFwE3D3FxcX2I057aXVw7afLUdMLyl9dOlYl5d9Yu6q0vdfRe49kRsUNbH5ateE2vX9njaEoctdn07P21WZ565Mbq/P53N3Z+68vt37c7rbrnM/WP6eSzX187Daox4kdvoi87qwuQ6zvkrdPjFrT174ppF7/yP/cKETFuYnWx/IVVX56vTrlqProU0wYa+nsC+Koffq7RywhSl77qN6sQ0XO04sV1jkvnVtu9o3rqejxXI4a4y1XzdSvPV6cr1Ydjq6MQ7YZlZ72uESRi+p7qQuz4u4thqMvXVuI/BAgQyFxAkMi8QcojQKCzwGnnv6XtTNOO7XmQXYSFOC2n3TB91pLGzmfc3ah5OO28t9ROd4pxC09ov3z8wr17x/rmxUbk/cYqIDQ/O2LJqVf3qSNOu6rv3McpYOufurMWuJpnXPfk7b2ORpx2/k82T+71fnnl01+QeOrRbzfmjaM5J5zyY43PzW/iOo2zLn57n1Ogmudpfj/nuLOq08eubh7VeP/0oz1HZOJi6r4hoj7ruLR42UsbQSIuUI/rbepBMU7fqg+PVhfZxylz9ZBQHx93C3vDL3y2uvD7xWteJk+ZXp9UO/2r/uFwlq8v65UAAQI5CwgSOXdHbQRGocCp1Z2N4vab3Q6Tq1uEdhr6W9/46tfu+tD8HIX6uPpr8wXH8at+8xDXEDSfFBPT4vaqu3dsSLu3b0i7qgDxTHUHpP4u9m5e15F+3/zsiNhxj+dWtA5xd6Pmi87jQuc4ctM8xFGG+hAXaE+f2X+/Ykc9bqFbv+agvly81k/1iveLqxAx0O1x4+5b3Q7HLb2omrXvReJxi9rm75wxc3EtHPS33lnzT+k1Ka5zmVxtSwzxHfV1xfg4TS6uk4iL1+cuWlEd2Tqhmmtcdevh9heaD3X5WhH+Q4AAgcwFBInMG6Q8AqNNIE4P6vtsh8PfyjhdZ6Ad1Pqap1YXVw9l2PD0PSmuG9hU3amofhrUUNY33MvG6UjNp43FKVnf+Zdf7/g1ccHw3j3b0pRjZjbmjQuS68OMmcfX3/b7Om3Gwo5BYtqM/sNIrLh+JKDfL2maMP3YRU2fet5GuGsefvCt/6f5Y8f3+6sjEvXh9Op6kPVVz5tPt3quOnoT/2KII1yLll1eHdW4snYdSvOF2jF9qMvHOgwECBDIXUCQyL1D6iNAYECBKU136xlwxja/YA88/4tT4yF38Qt+fQeym2VGYp5nH/9un6+tn8LUZ0LLiLWrv5tOrq4zqQ87tvQckZjUxRGhKdPm1BdtvL7wwr5egWvS5J7TfhoztbyJ62Hqd79qmdTrYzyMrt2wa/tz7UZ3Pe5gVXN9mHLMsemqH//v6eG7/qk6deuz9dGN1wiT8dC/+Bdh9pJX/maaVz3krj4Mdfn6erwSIEAgZwFBIufuqI0AgREViAeK3fb13+vza3uchjO/ul5ienWKVjzdeObcZbVbxNafHD0SRT/R5mF83dax5uFv9AoSzef6h0GnIR5a1zq0/kJ/8GDn9XQTIlq/p/nzxJbTjE466zXVTn7PdTLN87Z7f+yck3qNjqMkcVF2XL8Rd/Na//RdVaD8QePBgvWZ47qU7335/0rXvOXPe11HMdTl6+v3SoAAgVwFBIlcO6MuAgRGXGD9U3f1ChFxd6hzLn932/PiD1TXTYzUEHcfaj76EE9aXlI9D2Og4eG7P5ker27fGkPcYSjWUb+YOK6vSGteXHr39nUvvhngv+0CQBw1iOtS6tcZ7Go57ah1dXGh81CH6dU1Ec3D0tNekQZz7UXzss3v42F1cXev+i19d+/cXF0Tc3d6vLpDVv35F3Hh+tOPfaf2pOzmZeP9UJdvXZ/PBAgQyEVAkMilE+ogQCA7gU3P3d+oKc6Jv+Cq9/V6jkJjYvVmJC+2fmrVTc2lVLfCfVWvax56TfzRh7h7Uz1IxKhYx1kXva02dUZ1F6v6ENvVfDej+vj6a+xUN19HUB8fr3Gkph4knn3i1rY72fX54xf/oQ5xBCBu+Ro79TFs3bR6wCCxu7pd68N3faI2b1xwf+6V/652u9wt1XL12+hGuFp+3vW1eer/iQvM4+F+J1YPNrzt6/81xR2fYtiy4ZEXX4e4fG0l/kOAAIECBNqfaFpA4UokQIDAkRbYv3dn4yviFrHNd3dqTKjexK/t9V+mm8cfjfeHDh2sztO/ofFVcVem5gunGxNa3sw97sxeD3J7cR0v3rFq1rzedzN6sjr1qb9h9QNf6G9SdTen0xrT4onaz/9oR7sxsulNHCEZjqH5Sd3xwLiDBw/0u9qH7vyHWpiKQBWBqX461gv79zbG3/e9/692l652K4mjLnOP63kyePQihqEu3+67jCNAgECOAoJEjl1RE4FRLBAXqe7Z9fzg/u3eMiIix1bXP9SH+NW93ek5WzY+lm76zPvqs9VeW28h22viMH/YuPa+Xs+OiCMN3QwRiuLpzPUhzvPftO6h2scIGfHE7voQO9NxB6PW4dnqYW6P3NV/ADh5xetrRwjqy93xjT9IfS+IPpQevOPjKYLGcAxnXfL2xmpim+K6lbgtbOvw1KM3NY46xLRlZ722MUvrXcXWrPxqY1rzmwP799Ru/VsfN7d6vkUMQ12+vj6vBAgQyF3AqU25d0h9BEaZwHe/9IHD2qLX/OzH0rQh3sJ1sF/c/GtznC4TgeHE6pSW+cefV11T8HTa+Ox9jQeaNa9749p7q/Plb06z55/auO6gefpwvn/ykW82Vhen9Ry39JLG505vjj/5pemRuz/VmO3pVTc27jx0zuW/mJ578geNadG3U855Y5qz4PQUz+fYVG376vu/2Jje7k08Y+HcK38x3f2vf1abHNdS3PTZX0knVTvts+ctr05B2ll78vi6Nbe3W/ywxkV98STuxx/4cm35VT/8fHUkZFVaUj15fOr0+Wnfnq1pXbVda1ff0lh/PAcjlqkPcU3D0uo2xU/+6AL2CFLPb3i0eqDeVdUzNRalvVUQ3rju/ipEfKfXhdfHL7uitoqhLl+vwysBAgRyFxAkcu+Q+ggQeFGg5UFxR4Mlfplv3imNoylxK9DW24HG7T/Pe+kvVU9m/r1aWTHfHd/4b+nMi99Wu+PPkap1X3Xq1ZMP9wSJJdXTnic2PYSv0/fOrR42F7XXn4b95MPfSnGh9oTqqc4z556ULnz5LzdCQKyrv+AQFyH3FwaWnvHqtHn9w7XbpMY6wqbdUYy4wDueJt3f9RaxbLfDikvfmXZWF4+vf/ru2iJxIXrzxejN64nwdckrP1Db5ubx51z+rrS2CoP16y3iidnNT81unjfen3/Vf0gzq4vL68NQl6+vxysBAgRyFnBqU87dURuBUSAwbvyEYdmK5vWMG9/zP13jx0/qd/3ND6prXqZ1gV7zjetd7znV7T9Pv/AnWxdpfI6nQl/zlg/Xng4dtxvtb+hVf8t3NF97Ma5lWn/ri/Fx56Dm4cTlVzd/7OL9uNoRlvqMsdO8+UenN8W4ZWddl172b/6k17UU9XnjNXb+r37zn6V5x/c8lbq1/rB9ycvfny542S83L9rr/aJll6WrfuJ/pKlNzwRp9oqZB2MUF11f+frfr1083euLWj7EEZZX/tu/anvUKJ4Dce1Pfqh6ivXZLUv1/hhHKC57zW+lU5qOaMQcQ12+97f4RIAAgTwFxl3/nhtevLouz/pURYAAgSwE4vaoW6pTZLZXpzRNmDAxHTNtflpwwvnV6TLzGvXFtRFbN1fXUlSn8MQv3XHKTOzUlj7EsyTiDkhxV6J9e7enY2ctTXOOO2PQp5rFEZQt1SlCWzY+WiOZPe/UNLs6KnIkjeI7t21+ovq3ujoasqXWl6nTF9SeRt3d9x5K255/ugpY96ftW56u6j5UXZQ9qTrF6fg0rXrCdlzcHUdw+h+Gunz/azaFAAECIy0gSIx0B3w/AQIECBAgQIAAgQIFes4PKLB4JRMgQIAAAQIECBAgMDICgsTIuPtWAgQIECBAgAABAkULCBJFt0/xBAgQIECAAAECBEZGQJAYGXffSoAAAQIECBAgQKBoAUGi6PYpngABAgQIECBAgMDICAgSI+PuWwkQIECAAAECBAgULeDJ1kehfddcfkK65PyF6dSlM9O82cdU9yAfdxS+1VcQIECAAAECBPIVOHjwUNq0ZU967Mlt6Y5716cbv/9MvsWqrK2A50i0ZRmekREgfuqNy9OCuVOHZ4XWQoAAAQIECBAYpQIbNu9On/jiKoGioP46InGEmvWuf3tWev3VJx2htVstAQIECBAgQGB0CcQPr+97x7nplJNmpo98cuXo2rhRujWukTgCjRUijgCqVRIgQIAAAQJjQiB+iI19KUP+AoLEMPcoTmdyJGKYUa2OAAECBAgQGFMCsS8V+1SGvAUEiWHuT1wTYSBAgAABAgQIEBiagH2qofkdjaUFiWFUjuTswuphBLUqAgQIECBAYMwKxD6VoxJ5t1+QGMb+xC1eDQQIECBAgAABAsMjYN9qeByP1FoEiWGUjedEGAgQIECAAAECBIZHwL7V8DgeqbUIEsMoGw+bMxAgQIAAAQIECAyPgH2r4XE8UmsRJIZR1hOrhxHTqggQIECAAIExL2DfKu8/AUEi7/6ojgABAgQIECBAgECWAoJElm1RFAECBAgQIECAAIG8BQSJvPujOgIECBAgQIAAAQJZCggSWbZFUQQIECBAgAABAgTyFhAk8u6P6ggQIECAAAECBAhkKSBIZNkWRREgQIAAAQIECBDIW0CQyLs/qiNAgAABAgQIECCQpYAgkWVbFEWAAAECBAgQIEAgbwFBIu/+qI4AAQIECBAgQIBAlgKCRJZtURQBAgQIECBAgACBvAUEibz7ozoCBAgQIECAAAECWQoIElm2RVEECBAgQIAAAQIE8hYQJPLuj+oIECBAgAABAgQIZCkgSGTZFkURIECAAAECBAgQyFtAkMi7P6ojQIAAAQIECBAgkKWAIJFlWxRFgAABAgQIECBAIG8BQSLv/qiOAAECBAgQIECAQJYCgkSWbVEUAQIECBAgQIAAgbwFBIm8+zNmqtu3b1/avXv3mNleG0qAAAECBAgQKF1gYukbMNbqf+GFFwa1wz1x4sR0zDHHZM30xBNPpA9/+MO1Gt/+9renc889t1HvH//xH6edO3emSy65JF133XWN8SP95jvf+U666aabamV84AMfSJMmTRpUSUNdflBfZmYCBAgQIECAwBEQECSOAOqRXOVTTz3V2Onu5nvOP//89DM/8zPdzDpi89xzzz2N777zzjt7BYkIETt27Ejbt29vzJPDmziCEnUd7jDU5Q/3ey1HgAABAgQIEBguAac2DZek9Ry2wNlnn91YtvloRGOkNwQIECBAgAABAtkJOCKRXUu6L+hlL3tZWr58+YALzJs3b8DpOUw87bTT0gc/+MF04MCBNHv27BxKUgMBAgQIECBAgEAHAUGiA1DOkxcvXpzOPPPMnEvsurYZM2Z0Pa8ZCRAgQIAAAQIERl5AkBj5HhzVClavXl27WHvq1KnplFNOqb1//PHH05o1a9KsWbPSSSedlE444YRGTXEu/0MPPZTWr1+fxo0bl5YuXZqWLFmSYvn+hv3796e1a9emdevWpU2bNqU5c+akCD3HHXdc2wu/d+3alaKGGE499dS28/T3XZ3GD7aW5vXFXaRWrlxZ24YYv3DhwnT66acPuO1DXf7gwYO174z1LFiwoPadYRh9e+6552o9W7FiRfPXpD179tR6FPPt3bu35r1s2bJ0/PHH95qv9UNcuB89il5t2LChtlz0KPo7efLk1tkbn7dt25aeeeaZ2nKHDh2q9XXRokW1ehszeUOAAAECBAiMegFBYtS3uPcGfvWrX01xl6STTz45vfrVr05/9Vd/1XuG6lOcMvWGN7whPfzww+mTn/xkn4uKp0yZkt773ve23VGNHd5/+qd/Slu3bu2z3hjx7ne/O8WpTM3Dxo0b09///d/XRv38z/98Ouuss5onH/b7w6ml/mX33Xdf+vjHP17/2HiNbX/zm9/c+Nzfm8NdPnbu6xbRnwgJcYen+hDBqDlI3HXXXekTn/hEfXKv17j2JC60jzt3tQ4RHD72sY/VwknrtDg69LM/+7O10NI8LULDt7/97fS1r32teXTj/RVXXFH7uxnsHawaK/CGAAECBAgQKErAxdZFtWv4it28eXP66Ec/Wlvh3Llza0cj6muPHdevfOUr6SMf+UgtRMTOc/NRivjVO27XGkcSmodVq1alv/zLv+wVIlp/Ff/rv/7r2q/nzcsdifdDqSV+bW8NEfFLfQyx7f/4j/+YHnnkkX7LHury9RXffffdvUJE7ODHUaH6ENvYHCKiT9HL+vDAAw+kT3/60ykCQPMQR5f+6I/+qBEiorfnnXde428g7kYVfXzyySebF0uf+9znGiEivisCTRxBqg+33nprH7f6NK8ECBAgQIDA6BPo+1Pl6NtGW9RGII4YxM7gr/zKrzRCQpzG83d/93e1uevPSHjLW96SLr744jR+/PgUpzlFuIjTkGKHOnY0m6/R+Na3vtX4pvhF+5xzzqktF7+q//CHP6zt1MYMP/jBD3ot11hoGN8cbi1xu9nYxvrw+te/Pl166aW105li++NIQxyleaI6qtNuGOryzeuMowYRHn76p3+6dspZ8+lGEQbqRy6ij+985ztrR5miT9Hbz3zmM7XAFkcsIgRdc801jVVHL+rD2972tnTBBRfUP9ZOq6r/Ddxyyy0ppscQ/f7+979fex+nTcX3TZs2rfY5jpL8zd/8Te3vIk6Di1Ow6sGrNoP/ECBAgAABAqNSQJAouK3xa3TzL9LtNuVXf/VX256CFPPGzmDzkYY4pShOT4lflmO46qqrajvRtQ/Vf2JH9vrrr09/8id/Uhv19NNPNwJB/Oodv2rHr9Tz58/vdXpSPBAvdsa/+93vpmeffbZ2ylTM3/zrev07huN1KLXE6Vz150Ncfvnl6eUvf3mjpNj+iy66qPZMizhi024Y6vKt63zf+95Xu3ahdfxtt91W27mP8dHH5iMDca1LBIAPfehDtZ36733ve72CRATGGCKkNIeIGBd/A/FQwC1btqQJEybEqNpQv4YlPlx22WWNEBGf41SmOIXq3nvvjY+1u2/V3vgPAQIECBAgMKoFnNo0qtvb/8bFr9hxnUTrcOKJJzZGxYXFrUNcAFwf4qLb+hChIEJIhI/+rnGIoBFD/LodFzIfqWEotcSFx/Xhda97Xf1tr9cIF7ET3m4Y6vLN64yjPXGhershLo6PIY4ONIeI+rwR3uJp4DHEEYo4UlIf6uuMwBRHWFqHeJZH9PHKK69sTIpwUh/iiFLraW0zZ86sLRPLNYfT+jJeCRAgQIAAgdEn4IhEwT2NU47iLksDDbGD126IaxfiNJjWofnC3HbPdIhfqSOERBjob4gLhuM6gbiIOk5ritAQ89dPl+pvuSMxfrC1xJPDY4gd59gZbzdEUInAVf9lv3meoS7fvK7mUNc8Prapfv1CnGLVfDF283z3339/42MEnPpF7nHUqH56U1wLEuEwjkxEKIm/p+ZTqOoriFOV4vqLuLbmscceS7/zO7+TLrzwwtpzTGKZuKOVgQABAgQIEBhbAoJEwf2Oh9G95CUvOawtOBKnFcW58l/+8pdTnEoz0sPh1lI/hSdugTrQEDvW7YLEUJdv/s7+ehTXTjQPX/rSl5o/tn0fy9SDRPzNxNGI+nIx7Rvf+EZjuQiocTSi2SBC5y/90i+lv/3bv62dnhYzx8Xg8S+G8IhTnuJ0sOYwWpvoPwQIECBAgMCoFBAkRmVbj/5GxVOp405OcSSiPsQv6nEaTVyUG7/uH60jEkOpJU5Zip3sOJIy0NDfEZmhLj/Qd9antd5eNXbe2w1RYxwVilONWk83ilv8xqlPcWTiwQcf7BWK4tSl+Nd6K944SvP+978/xVGXe+65p3atSz3UxAXWX/jCF2rrecc73tH2qEa7Go0jQIAAAQIEyhUQJMrtXVaVxzn79RAR10j81E/9VJ8Ht8UpM1//+tePeN1DqSVO74lTguJC8oGG+ra2zjPU5VvX1+5znGJUP70sLmJ/05ve1G62juPioYJxFCH+xYPw4rkbcUF83DY2hk996lPpgx/8YK/1xFGSeChh/IshrpO58847080331wLYI8++mgtnMRRDQMBAgQIECAwugX6niQ/urfX1h0hgXimQX145Stf2SdExLSBnr1QX3Y4XodSS/2X+/g1P5763G6IC5fr1yi0Th/q8q3ra/c5dubr18bEqVStz4lot0yncXHqUpwqF0cT6hfLx5GZuCZioCGuwYlby8bRi/pQP72r/tkrAQIECBAgMDoFBInR2dejvlXNF+i2O0c+ni8QFwYfjWEotdSDQNT5D//wD7VnZzTXHL/cxwPp+huGunx/620dXw8ScWrRDTfc0Dq59jmeYv5bv/VbtX/1U5Diwvc//MM/TL//+79fe9ZEuwWnT5/eGF1/VsSNN95YWyaWjVv4tg71+WJ88x2eWufzmQABAgQIEBg9Ak5tKriXcW573MFnoCGuUYhfmo/00Pwd//t//+909dVXp1NOOaV229E4EnE0Tmmqb+NQajnjjDNS3P40bosa5/3Hg9bi9KEICPE5Li6O03f6G4a6fH/rbR0ft1mNU7Bipz6uPYmjJHEkYdGiRbXbvcbD4+rPdYjTkOq37Y3TmeI6jjiiEs+iiNAVd2yKu3ht37493X777bXrI+L74oGC9TtXxfbHbWRjiAuuf/zHf7x2VCROsYrTwD7/+c/XpsV/ws9AgAABAgQIjH4BQaLgHseFsvXbePa3Geeff/5RCRKxo3n22WfXzq+PX7/j/PrmIXY4Y3o8aflID0OpJU4beutb35riydERHOIoSvxrHuIX97iFav3Bfc3Thrp887oGeh87+L/wC7+Q/vRP/7R2bcIdd9yR4l/rELXGA+aah+uuuy599KMfrd2SN65tiH+tQ1yH8epXv7oxOu74FMEiwksEirhtbLshTnOKUGIgQIAAAQIERr+AU5tGeY+bn04cm1r/3O70o6FQxDn2scN67bXX9nlYWxwheO9735sWL148lK/oetmh1hKh513velftOQmtXxq3To2nTTc/YyPCQ/MwlOWb11XvVfO6m99HSAjXeJ5D6xA1xLUq8WTz1lON4gF2v/Zrv1Z7EnnM1zzEvPFgwbg7UxzdqA9R18/93M/VQlb96EZ9WrzGUY8wi5BiIECAAAECBMaGwLjr33PDobGxqUd+Kz/7F6898l9SyDfEr9ZxsW78sh2n04zkMJRa4qLr559/vlb+vHnzUuutVztt11CX77T++vR4bkZsZ9y2NkJOXOfQHErq87V7jTsvxb/Yvm57FbfYjVvLRtiJ5SK8GQgQIECAwJEQeNMvffVIrNY6h0HAqU3DgGgVfQXil+3WX8L7znV0xgyllvjFvvmX+cFWPNTlu/2+CDjz58/vdvZe88Wdl/p7AnqvGZs+xBGtobg0rcpbAgQIECBAoFABPyMW2jhlEyBAgAABAgQIEBhJAUFiJPV9NwECBAgQIECAAIFCBQSJQhunbAIECBAgQIAAAQIjKSBIjKS+7yZAgAABAgQIECBQqIAgUWjjlE2AAAECBAgQIEBgJAUEiZHU990ECBAgQIAAAQIEChUQJAptnLIJECBAgAABAgQIjKSAIDGS+r6bAAECBAgQIECAQKECgkShjVM2AQIECBAgQIAAgZEUECRGUt93EyBAgAABAgQIEChUQJAotHHKJkCAAAECBAgQIDCSAoLESOr7bgIECBAgQIAAAQKFCggShTZO2QQIECBAgAABAgRGUkCQGEl9302AAAECBAgQIECgUAFBotDGKZsAAQIECBAgQIDASAoIEiOp77sJECBAgAABAgQIFCogSBTaOGUTIECAAAECBAgQGEkBQWIk9X03AQIECBAgQIAAgUIFBIlhbNzBg4eGcW1WRYAAAQIECBAY2wL2rfLuvyAxjP3ZtGXPMK7NqggQIECAAAECY1vAvlXe/RckhrE/jz25bRjXZlUECBAgQIAAgbEtYN8q7/4LEsPYnzvuXT+Ma7MqAgQIECBAgMDYFrBvlXf/BYlh7M+N338mbdi8exjXaFUECBAgQIAAgbEpEPtUsW9lyFdAkBjm3nzii6uGeY1WR4AAAQIECBAYewL2qfLvuSAxzD2K5Pzlm9YM81qtjgABAgQIECAwdgRiX8rRiPz7LUgcgR595JMrhYkj4GqVBAgQIECAwOgXiBAR+1KG/AUm5l9imRXG/wGsXrMt/dQbl6cFc6eWuRGqJkCAAAECBAgcJYG4JiJOZ3Ik4iiBD8PXjLv+PTd4itowQA60imsuPyFdcv7CdOrSmWne7GPS+PHjBprdNAIECBAgQIDAqBeIh83FcyLiFq9xdyYBoryWCxLl9UzFBAgQIECAAAECBEZcwDUSI94CBRAgQIAAAQIECBAoT0CQKK9nKiZAgAABAgQIECAw4gKCxIi3QAEECBAgQIAAAQIEyhMQJMrrmYoJECBAgAABAgQIjLiAIDHiLVAAAQIECBAgQIAAgfIEBInyeqZiAgQIECBAgAABAiMuIEiMeAsUQIAAAQIECBAgQKA8AUGivJ6pmAABAgQIECBAgMCICwgSI94CBRAgQIAAAQIECBAoT0CQKK9nKiZAgAABAgQIECAw4gKCxIi3QAEECBAgQIAAAQIEyhMQJMrrmYoJECBAgAABAgQIjLiAIDHiLVAAAQIECBAgQIAAgfIEBInyeqZiAgQIECBAgAABAiMuIEiMeAsUQIAAAQIECBAgQKA8AUGivJ6pmAABAgQIECBAgMCICwgSI94CBRAgQIAAAQIECBAoT0CQKK9nKiZAgAABAgQIECAw4gKCxIi3QAEECBAgQIAAAQIEyhMQJMrrmYoJECBAgAABAgQIjLiAIDHiLVAAAQIECBAgQIAAgfIEBInyeqZiAgQIECBAgAABAiMuIEiMeAsUQIAAAQIECBAgQKA8AUGivJ6pmAABAgQIECBAgMCICwgSI94CBRAgQIAAAQIECBAoT0CQKK9nKiZAgAABAgQIECAw4gKCxIi3QAEECBAgQIAAAQIEyhMQJMrrmYoJECBAgAABAgQIjLiAIDHiLVAAAQIECBAgQIAAgfIEBInyeqZiAgQIECBAgAABAiMuMHHEK1AAAQIEjrDAgQN708Zn7u3qW8aPn5imHrswTZ+5KMV7w+gUOLB/T1q7+pbaxk2cPD0tPvmK0bmhtooAAQJHUMD/lzyCuFZNgEAeAju3rk233vDbgy5m0UmXpnOueHc6dvaSQS9rgbwFdu1Yn+688Y9rRU6dMV+QyLtdqiNAIFMBpzZl2hhlESAw8gLr1tyevvmJd6fHH7xh5ItRAQECBAgQyEzAEYnMGqIcAgSOvMDshaenqdPn9fmivbu3pW2bHk8H9u/qNe2e7/xZmnvcWWnWvGW9xvtAgAABAgTGsoAgMZa7b9sJjFGBcy7/xbRg8bn9bP2htGvHxvTD7/5Fevbx/7+9+4Czqyr3Pv6kJ5OeSSa9905IQggESCjSRKRItSAgotgLXtQr6pVXrwVQES8KgigIiKD0XgKkEEgjvfc+k0mvk7zrv5O1Z58zZyaZmTMz+5z5rc9nOPvssvba3xXv3c9ZbXJ4zsx37rEzPvnr8DsbCCCAAAII1HYBujbV9n8BPD8CCCQJ1LGcZu3spHN+YO06Dw+PFWyYa4cOHQy/s4EAAggggEBtF6BForb/C+D5EUAgpUDduvWsU69xtjky29PObeutReuuKc/f6QZ07yxc41ozNtmhov3WqElra5yTa63a9bUGDZukvCZ55/aClbZz21rbtX29O3TYDfLuZs3cQO+c5u3dDFL1kk8v8b0812vWooMH9gR51K3XwBo2alYiv8OHD9u+PYXh/voNc6x+/Ubhd7+hAGv/3h3B19Ly0sH9+3YGXce25S+zfXu3W9PmHaxFbndr3rp7ynx9/gf277YiN/OWUqMmLa1OnbqmmbgKNsx3XqtdPh2tfbdR/vSEz317tlnh5iXBszZu2sZ1T+tl9Rs0TjiHLwgggAACFRMgkKiYG1chgEAtEMhplpfwlHt35ZcIJLas+8gWzXjcNq7+MOHc6Jeegy+0/ide48ZltInuDre3uXEZc6c8UGoeenk++bwfu3EaA8JrohsVuX7hjMds0fTHg2zqN8ixj1//pHtBrxPN1rZuWmhvP/3NcF+f4ZfY0LE3hd/9xpolE+3DN34VfG3WqrOdc9X9/lDwecAFLLNc17DVi95I2O+/6P4nnP4V69p3gt+V8DnphR+5oGFusO+MS+6yw4cP2bTXfm57XBc0pY5u6tbkQEID5BfPfMIFZRuCc/x/dK9+J15hHbuf7HfxiQACCCBQQQG6NlUQjssQQCD7BfRrdjTluPUlomn1krftnWduLTUA8Ocun/u8vfvsre7X/cT8dLxwy1J7459fLjMPXacX+lSzR1X0+nadTvDFCwaX79i6KvzuN/KPvrz775vWzPSbCZ+b180Ov2vK3GhSkPOme77Sggidq8HtH7z+y2CKXrU0lJW2rJ9tE//97TCISD5XrShz33/INEA+OYjQubrXvKkP2YyJv0++lO8IIIAAAuUUoEWinGCcjgACtUPg0KEiW7Xo1YSHVRcjn9Q1aObbv/Nfg8/+I68Jus40cAuc7dm50V3/uqnFQmln4VpbPPtJGzLmhuC7/qOX3vdf+Vn4XS0PnXufbm06DLZ6rrvRjsLVrtXgieDlVyfp5TivywlusbyOwTWVub5Nh4HhfbVRsHGetWjTPWHflkiAoAOa0Updkho1bpFw3saVU8Lv7bsUdzFSUPDec7clBFBd+51puR2GuK5UzV0QtcjWLZ8U2CgDTber1p1Boz8b5pe8MXfKgwm71MLQOKe4pWfhjH+ELS3+xM69T3NdqHoEgcW6pe8Fnr6Fw5/DJwIIIIBA+QUIJMpvxhUIIJDlAhqjMG/a38IgQI/bxXW7iY5T0Et2dJrYMz/1xxLTw3Yf8DH78K27bNWCIwHJlnVHuud4PrUmRH81n3DZPabF0aKpx8AL7PXHvxC+jK9a/KYNdAGLUmWu11gHdQnyM1NtWT/Hegw8P7y1xj3oxT45FWyYZx17FHcL2uHGhURbWtp0HBxesnzuswnHRk74tnXrf3Z4vHPvcdZ/5LUu2PhB2HVp4Yf/sM69Ti9hGV50dGPQmOusx4DzgjET/pjGYMx//2/+qxtf0jnoEhZdUHDQqM/alFf+xwo3LQrPYwMBBBBAoGICBBIVc+MqBBDIYIG5Ux90MzMlvrDrcQ66Qb27dmwIfyGPPuLgMZ+PfnUBgAZEH0ntu44s5cW3jnXrd04YSOxwg6mjaXv+0vCrfllPDiJ0sFHj5tZzyCdsgQtslHa78vlU2es7dBsdBhKbksZ4bNuyzN8m4VNdi6KBhG9x0UkKTPxg7H1u8PWCD/4RXttvxBUJQYQ/oPPHnv8T173r5rC70uJZT9qoM7/jTynxOeqsW1OOp1g+7/mEc0+98I5goHp0p4xPPvd2e+lv10Z3s40AAgggUAEBAokKoHEJAghktsDWjfNt68bjf4bR53w/mBI2ekWeCx5Gnf1fwa7kLkHR8/a4WZxKSw0aFXcRUuvG/A8ftf4jrkxo+dC1/d1LeG8XTChpViSfKnt9u84n+qyClgPNPNWsZadgX3R8RK8hF9myOc8G+5PHSWxeOyPMQ4GJTzKOtthEWzv8Of6zYaOm1n3AuS7weCTYpVmdSkut3cKAXfuOT3l45fyXwv09Bl1QIojwBzXoXQPHl8x62u/iEwEEEECgAgIEEhVA4xIEEKgdApoJaPi4W9yYhA4lHljdZaJdZnRCUdEB27trS7Cg3Z4dGy3fjTtY4WYPKi3ldhiUcEitDsvnPONeqj9mee4lv7WbpUlTldatWz/l9KyVvb5pi/ZB9x+N31DKXz83DCQ2r5sVlq3PsEts1cLXg8AgOk5CsydtXFU8W1Vel5HhNbvdGBGf9PKfytAf12fbTlqz40ggoXsob03zmpzad9M9EmeX0jnqihXtJta556nJlyZ812BzAokEEr4ggAAC5RYgkCg3GRcggECmC6h/fet2/VM+hsZBaDBzk2a57njJF9bkizRGYMnsp2zzmhkJL7LJ56X6rsHVI874hs14++7wsMYbLJrxz+BPO3M7DnFdicZYp57jSryMV/Z65d+p5ynhvba4WZq6DzjHvZQX2YYVU3U46G4lD73Ar136TrDPj5PQjEy+1aF5626uBaB4VisfnOiC5m6swrGSniWaNLVrND9/TGtPpEq7dyS2/DRO0XUtet2xjkfPZRsBBBBAILUAgURqF/YigEAWC7RpP8jadRpaqSdU68OcyX8Ou/yUlpnGPviX7VTn9Bh4rltfItfmffC3lAOA890gaP3NmfyAqbvO8HFfTuj6VNnr87qODgOJzWuOtC5EuxZ16D4mKHa7ziPCQMKPk4jO6qTxEdEUHUPS2D3fsZJaXaKptFXEU7VS6Lo9OzdHL3djSxIDk4SD7kujSLey5GN8RwABBBA4PoHE/8t9fNdwFgIIIFDrBRa4F38/bsBj6Fd5raPQtEUn10Wos5tytKftcitVRxd18+dGP9WFSn/bt652LRvTbZMbd+BbBKLnrZj3QjAt7LBTb47uDq6t6PXRRe7UCqBf9tXi4FNuxyMBV9tI4OXHSWxyZfWpfaRbk/bVq9/YH7KioytohztSbOzdvTVh7/EEH9EL6iWtVq1Vu5NbOaLn79tbck2P6HG2EUAAAQSOLUAgcWwjzkAAAQQSBHz3I7+zVbs+NubcH5UYkK3j27bs9acd87NF667Bytm9h14cdC/a6qYo3bBycthioAyWfvQfG3zyDUFAkZxhRa7XehVaZ8F3W8p3QUR0fERb17VKSeNB9GKuZ9cYBgUdG1d9EBxTq0vyuhTN3Pk+7XLjRY6VdrmB3j7pPn72J7/vWJ9+bQ1/3h63CnlZ4zK0SjkJAQQQQKByAiVHslUuP65GAAEEsl4geRXo0WffljKIEET+hjmleiyY/g+b+c4fgj+NtYgmjdXIdYvGDR5zvY2/9LfRQ+bvX9nrfabtXfcmnzavm+laRY4MtNY6DOp25VOHyPoRmqLVJ7WGJHdNanZ00Tyds2XtR657V9kB1boV7/nsTC075U1aJE8BjU8bV0/zmyk/o7NNpTyBnQgggAACxxQgkDgmEScggAACiQL6tTuaSvvlu6hof7Byc/Tc6HaBmyVp+dzngr81S9+OHkrYbtm2d8L3w4eLgu+Vvd5nmtdlhN+0lfNfDsd05HUpnh5WJ2imI5/UMuKTunMlJ3Xr8kljRFa7hfRKS3t2FSR05dLq3hVJCrx8WvbRs6aVtVMlrc69ZPa/Ux1iHwIIIIBAOQQIJMqBxakIIICABJq27JgAkWoFaL2sasVmdQMqLbVuXzxz1OqFryWsAh29Zt2y4l/rtb9FmyMv6ZW93t9Di7RFX/z9/radhvnN4DM6TiJ6IBqI+P2tXPATHYA9Z/L9rnVmvj8cfh5wiwBOeen28Lu6NXXrf074vTwbA0Z9OjxdwcsHr/9viWDigBs78eEbvwrPYwMBBBBAoOICjJGouB1XIoBALRVo0aZH0I3Gz8Y05aWfWNd+Z1nH7ifbgf07bItraVi/fHL4y75n0vnL3YDplrm9TIOcu/SZ4BZhezQ4rDUQXnn0ehsy9nrXtUf5N7bCzYvdeIXZtibya363/meH4yMqe70vlz479hhbIujR1LPRpG5O6u4UndpV40Ma57SJnhZuq1uWHJT07BP//S3rO+Jya9W2X9AVavvWlW5sxsSE+w4YdW25x0f4GwamfSeEXrr3O//5TjAGpHmrbsFq5CvconW+a5i/jk8EEEAAgYoJEEhUzI2rEECgFgtoIPAJZ3zNPnjtF6HC6kWvm/6S06izbrX50x4O15iYOfH3bmDyYDvjk78OBjAPPOmzNv/9h4PL9LI9c+I9yVmE39VyMPSU4hmbNAC6MteHGbuN9m6l7oVuZW2fNE6hcZNW/mv4qW5MSwqfLv7uApDSksp34vhv2PS37g5PWTyjeGxFuPPoxoBR11jPQRcm7y7X96Fjv2A73UxZhW6gulLh5iXBX3Im0QHmycf4jgACCCBwfAJ0bTo+J85CAIEMFqjjBi5HU906id+jx453u2ufM9xL8jcTBvhGr1VXoTM/da91db+QDxj1meihhO3+I66y4afdkrAv1RetITH+0t+5Fa6bJhyu7PU+s9Z5/RKe5cgK0v5o8WfbjsOLv7gtBSBlpe4Dzg0c1JJRWtIg6ZPPu90GOqdU60TUqVO8MGCdY9Rd45zWdvrFvwrW3Cjtfv1GfMpOnPDt8HDyQPHwABsIIIAAAmUK1Lnk5hcPl3kGBxFAAAEEShXYt3dHsO7CjsLVpsHVTXJyrVVeX2vlui9F0243Beq2/BXuRblOMB4hp1m76GHXJWq3bd24wPI3LbD9ewqtrpuWVS/FOc06WMu2vdy6FJ0Szk/+Utnrk/NL93etlq2Wgu3OYFvBsuD5WrTu7sZ79AhWEtcsVelOmqJ26+ZFbn2OldbABSut8/oH9uWdWjbd5SI/BBBAIFsECCSypSZ5DgQQQAABBBBAAAEEqlGArk3ViM2tEEAAAQQQQAABBBDIFgECiWypSZ4DAQQQQAABBBBAAIFqFCCQqEZsboUAAggggAACCCCAQLYIEEhkS03yHAgggAACCCCAAAIIVKMAgUQ1YnMrBBBAAAEEEEAAAQSyRYBAIltqkudAAAEEEEAAAQQQQKAaBVjZuhqwJ5zc2UYPz7Pe3VpYbqvGVrdu8eJK1XB7boEAAggggAACCMRO4NChw5ZfuNeWrtpu02ZtsjenrI1dGSlQ2QKsI1G2T6WOKoC46qI+1q5Nk0rlw8UIIIAAAggggEC2C2wu2GOPPbuEgCKDKpoWiSqqrBuuHGgXju9eRbmTLQIIIIAAAgggkF0C+uH1q58bar26t7AHHp+fXQ+XpU/DGIkqqFiCiCpAJUsEEEAAAQQQqBUC+iFW71Kk+AsQSKS5jtSdiZaINKOSHQIIIIAAAgjUKgG9S+mdihRvAQKJNNePxkSQEEAAAQQQQAABBConwDtV5fyq42oCiTQqK3JmYHUaQckKAQQQQAABBGqtgN6paJWId/UTSKSxfjTFKwkBBBBAAAEEEEAgPQK8W6XHsapyIZBIo6zWiSAhgAACCCCAAAIIpEeAd6v0OFZVLgQSaZTVYnMkBBBAAAEEEEAAgfQI8G6VHseqyoVAIo2yrFidRkyyQgABBBBAAIFaL8C7Vbz/CRBIxLt+KB0CCCCAAAIIIIAAArEUIJCIZbVQKAQQQAABBBBAAAEE4i1AIBHv+qF0CCCAAAIIIIAAAgjEUoBAIpbVQqEQQAABBBBAAAEEEIi3AIFEvOuH0iGAAAIIIIAAAgggEEsBAolYVguFQgABBBBAAAEEEEAg3gIEEvGuH0qHAAIIIIAAAggggEAsBQgkYlktFAoBBBBAAAEEEEAAgXgLEEjEu34oHQIIIIAAAggggAACsRQgkIhltVAoBBBAAAEEEEAAAQTiLUAgEe/6oXQIIIAAAggggAACCMRSgEAiltVCoRBAAAEEEEAAAQQQiLcAgUS864fSIYAAAggggAACCCAQSwECiVhWC4VCAAEEEEAAAQQQQCDeAgQS8a4fSocAAggggAACCCCAQCwFCCRiWS0UCgEEEEAAAQQQQACBeAsQSMS7figdAggggAACCCCAAAKxFCCQiGW1UCgEEEAAAQQQQAABBOItQCAR7/qhdAgggAACCCCAAAIIxFKgfixLRaFKFSgqKrLdu3fbrl27LCcnx+rWTYwFGzdubPXrU62lAtbwAdXfHXfcEZTi9NNPt/Hjx9dwibg9AggggAACCCBQMQHeOCvmVmNXrV692u69994y79+nTx/r1auXjRgxwnJzc8s8l4PVL7Bz587gpvv376/+m3NHBBBAAAEEEEAgTQKJP2enKVOyqVmBJUuW2CuvvGJ33323bdy4sWYLw90RQAABBBBAAAEEslKAFokMrtbhw4fbSSedFD7BgQMHLD8/36ZPn25r1661ffv22T333GNf+9rXrF27duF5bCCAAAIIIIAAAgggUFkBAonKCtbg9QMHDrS+ffuWKMGpp55qL7zwgk2cODEIJqZNm2YXXHBBifPYgQACCCCAAAIIIIBARQUIJCoqF+PrNAD7vPPOs1mzZtm2bdts6dKlKUur1osNGzYEf4cOHbKOHTsGf23atLE6deqkvEY79+7da+vWrQv+duzYYXl5eda+fXvr1KlTicHfPpPDhw/bli1bbP369cF1TZo0Ca7p3LmzNW/e3J8WDCJfsWJF8L1r167WokWL8JjfmD9/vqm8rVq1Ml2fnDSOZPv27aZ7aKxIclJrzapVq6ywsDAYmK58FJDpM1VS9zCVXWnQoEGmlh9dr3Jq+8wzz7RGjRolXLpy5crgHPko3y5duli3bt0SzuELAggggAACCCCQyQIEEplce2WUXTM39e7dO+jmpBdrvfxrRiclDfJVi8WkSZNS5jBkyBC7+uqrrUGDBiWO6yX+0UcfDVo6kg/27NnTrrrqKmvdunXCId37n//8p3300UcJ+/2XSy+91MaMGRMEL5rV6K9//WtwSMGQXtKjSS//Dz74YLBLL+Zf+cpXooeD7SeeeCIYG6JB5zfddFN4fM+ePfbQQw/Z8uXLw33RjbFjx9onP/nJEkGUArLXXnstOPU73/mO/f73v094/lNOOSUMJBRYqHwap5Kc1IJ02WWXJe/mOwIIIIAAAgggkJECDLbOyGo7vkJHAwG9oPt0//33JwQRaoFo1qyZP2xz5syxP//5z6ZWhGiaOXNm8JKssRdKelEfPHhw+BKtF/Q777wzCFT8dWo50Iu3DyJatmxpw4YNC1o+/DlPPfVU0A1L39UCoZYRpVQtKdEXdLUKaCrcaNKMSH6Aef/+/cNDBw8etIcffjghiNBzR1sSJk+ebC+++GJ4TaoNBTn++aPX6lx5PfnkkwlBhFz1zEoKwh555JFgm/8ggAACCCCAAAKZLkCLRKbXYCnl10utXrSVNNC6adOmwfayZcuCLjn6ohaEz372s8Exna8XcL3Uq8uO/vS9Q4cOwXX6j160lfQCfcstt4THFCy8/PLL9uabbwYv2TNmzAhaGHSugovNmzdr0zR246KLLgq7PxUUFNhdd90VXPP222/buHHjrF69eqZf7tUFavHixaYAILouxsKFC4O8/H8UbAwdOtR/NXUp8qlfv35+0x5//PEwMNG0uGrtUMuJnlvdu9TKoud96623gv1qnUiV9Cwqp54leWpdjUnRsyupq5daZ9TdS93ENm3aZP/+978TgoxU+bMPAQQQQAABBBDIFAFaJDKlpspZTg2w1su4UvSFWkGAXub154MInaOXXQUNZ5xxhr4GScGET+qe5LsE6cU9GmBoTMa5554bdAtSvtHWjUWLFvksghfw6AJ6ahFQ1yNdM2HCBFPXI6XoAHKNZ/BJAcuCBQuCr7pWKZq/vvsyqgy+jBqnoO5JShpTcfnll4fdr/TcagG57rrrwtaJd999Nzg31X/UjekTn/hEiSBC50avk63u5ceaaBzJtddem2CTKn/2IYAAAggggAACmSJAIJEpNZWinHpBVlce/7d169bgV3d1r9GfT/oF3ie93J522mnBn2+l8Mf0OWDAgPCrH2CsHQpAfFcevczrV/xoUoCgl2zlre5OPkUHMKtFQ8FANGlAtS+PD0C6d+8enuIDA+3QWA91K1I5/CxUc+fOTeiCpVYMJbVq+Jd4DQz3SS0R0S5ffr9aF9TSoKRWBwVOqdKJJ56YanfQxUoD25UUFKWablfeuj8JAQQQQAABBBDIBgG6NmVwLT7//POmv7LSjTfeWOpsQXrxXbNmTTBTkl6c9edbBZLz1Eu51q14//33g8BFYyE0RkIv7Hrx16xE0dYGf73O8Uldf6ZOnWqjRo0KZlPSdalmZVJXJgUjChLUFWv8+PFBFtEgwbey+DERan3QeAnfChMdHxFt1VCXo9JS9JjyUdev5OTHbyTv9/fV/tLOOdax5Dz5jgACCCCAAAIIxFmAQCLOtVPBsukXe3UPUj9+zdyUnNRlSbMo+bELycdL+64ZjTTjkwZdK2ngsx/8rNaE0aNHB/eMBgf6Zf6LX/xiMFuSWhP099577wV/ykMBwcknn2yaKSqaFAgokFDrhwaKa+yEBisrqdVEM1ApSNH9FWAokIiOj4g+dzSQ8AOfo/fy29FWhNICiVTBkq73A7y1Hc1H36OprGPR89hGAAEEEEAAAQTiLkAgEfcaKqN8yStb61S90OuX9dJeeGfPnm1///vfw1z1Yq1f0HNycoJB13pBf/XVV8Pj0Q21FFxzzTXBeAgFE3qx9wO61TKgwdZaVfvmm29OGEOgl/of//jHQVCg2Zs0rkHnK2lbf2eddVaQr79fdJyEuiZpTIS6Nin5Vg61hiiQULCh7lG+G5S6S0W7bWk9CZ8UlEQHb/v9+tTUrT75qXL992N9Rs/3szqluqasY6nOZx8CCCCAAAIIIBBXAQKJuNbMcZRLL9LRF+7juCRsCdC5N9xwg0W7AGmfZkkqLZDQcSWNJ9CLv/7UQqHpYjXrkn7FV3cprblw5ZVXHjn56H/VoqDuSn78hMZYTJkyJZyG9vXXXw+6PPmZkPSp4EEzOylA0PgPJY3x8C0evnuTWiRUjmjXp6O3DT7U7UpdspQ07sMPwg52RP4TbVXQbEvlSdFuUZqhKdVCeMpPx0gIIIAAAggggEA2CDDYOhtq8TifITrzkoKQ5CBC2ajbU3lSw4YNTQOQtTCcH4ydPEVrqvz0Mq+uUh//+MfDw9GuSdrpgw6Nk/B5+n06rpd331Vp3rx55rsw+QBD5yhFg4Kynk/38UmzLJUnRQMJ390r1fVlHUt1PvsQQAABBBBAAIG4ChBIxLVmqqBcahXwKdXMRfpVX92TUiW9AN9xxx3Bn6aWTU7qLuS797Rt2zY8/Mc//jG45p577kk5E5K6VPnUvHlzvxl8+tYWBQnqkqWUHCT4wMIPOlcwoxaIaIoOftY6GdGWB3+e1n/wa0BokHVpXcP8+cmfen61liiprOrilZy05kVpvsnn8h0BBBBAAAEEEIi7AF2b4l5DaSyfgge1RGhsg152n3nmmWCQs6Zo1a/5WozNj0NIvq1+1ffTm2qgtrpAaayCFnVTdyEtSOePn3DCCeHleilX1yQd09gMrVOhMQy6XmMj/vOf/wTnKgBI7g4U/a6xBamCBLWqTJo0Kby3BmInBwF6bi0O99hjjwX30sremupVZdO4CJXDv+DrHpdccklY/vJsXHrppcEq3rpG91LAosBHAZwCMXX/IiGAAAIIIIAAAtkiQCCRLTV5nM+hF3k/+5EWUIsuoqYsNIOSxi4kJ7UcaOG4Z599Njj09NNPJ58SfNeLfHTdCq0toQHWmiHKD6xOdeEVV1wRvHBHj6nblFol/NgHtT4kBwnR2Zl0baruWtqv7lfbt2+3F154IQg6fAuGjkXT5z//+VLHUETPS7WtACkasCg48QGKP1/rX6gMJAQQQAABBBBAINMF6NqU6TVYzvLrV/5vfvObJdaW0C/xF154oV188cWl5qiZkW655Rbr0aNHiXM0RkDjHdmO36UAADKCSURBVPQiHp0lSQOjv/GNbwRrQfgF5/zFuuegQYPs1ltvNa2WnSpFF8iLbvtzFWxE9/sZnfzx6KfWo7jsssuCQdzR/dpWQKJVtqOtIP6caJcwv8idP5b8qYBFQZEfu+GP67tmvJKhT9F8/T4+EUAAAQQQQACBTBGoc8nNLx7OlMLGvZxP/TGzVi1W9yJ1v9GLv7o3Jf/aX5a3VqjWTEoaV6ExEanGXKS6XgveaSYmBRXJL9upzq+KfYcPHw4W4fNT0Koc0eAnHfeUj1Ye1yJ5morWzzSVjrzJAwEEEEAAgdokcOmXXqpNj5tRz0rXpoyqrvQWNjpAuLw5K+jwU7WW51q9sPtByeW5Lp3nqlVBgUxyC0k67yEfBSg1FSyl81nICwEEEEAAAQQQSCVA16ZUKuxDAAEEEEAAAQQQQACBMgUIJMrk4SACCCCAAAIIIIAAAgikEiCQSKXCPgQQQAABBBBAAAEEEChTgECiTB4OIoAAAggggAACCCCAQCoBAolUKuxDAAEEEEAAAQQQQACBMgUIJMrk4SACCCCAAAIIIIAAAgikEiCQSKXCPgQQQAABBBBAAAEEEChTgECiTB4OIoAAAggggAACCCCAQCoBAolUKuxDAAEEEEAAAQQQQACBMgUIJMrk4SACCCCAAAIIIIAAAgikEiCQSKXCPgQQQAABBBBAAAEEEChTgECiTB4OIoAAAggggAACCCCAQCoBAolUKuxDAAEEEEAAAQQQQACBMgUIJMrk4SACCCCAAAIIIIAAAgikEiCQSKXCPgQQQAABBBBAAAEEEChTgECiTB4OIoAAAggggAACCCCAQCoBAolUKuxDAAEEEEAAAQQQQACBMgUIJMrk4SACCCCAAAIIIIAAAgikEiCQSKVSwX2HDh2u4JVchgACCCCAAAIIIJAswLtVski8vhNIpLE+8gv3pjE3skIAAQQQQAABBGq3AO9W8a5/Aok01s/SVdvTmBtZIYAAAggggAACtVuAd6t41z+BRBrrZ9qsTWnMjawQQAABBBBAAIHaLcC7Vbzrn0AijfXz5pS1trlgTxpzJCsEEEAAAQQQQKB2CuidSu9WpPgKEEikuW4ee3ZJmnMkOwQQQAABBBBAoPYJ8E4V/zonkEhzHSlyfv6tlWnOlewQQAABBBBAAIHaI6B3KVoj4l/fBBJVUEcPPD6fYKIKXMkSAQQQQAABBLJfQEGE3qVI8ReoH/8iZmYJ9T+AZSu321UX9bF2bZpk5kNQagQQQAABBBBAoJoENCZC3Zloiagm8DTcps4lN7/IKmppgCwriwknd7bRw/Osd7cWltuqsdWtW6es0zmGAAIIIIAAAghkvYAWm9M6EZriVbMzEUBkXpUTSGRenVFiBBBAAAEEEEAAAQRqXIAxEjVeBRQAAQQQQAABBBBAAIHMEyCQyLw6o8QIIIAAAggggAACCNS4AIFEjVcBBUAAAQQQQAABBBBAIPMECCQyr84oMQIIIIAAAggggAACNS5AIFHjVUABEEAAAQQQQAABBBDIPAECicyrM0qMAAIIIIAAAggggECNCxBI1HgVUAAEEEAAAQQQQAABBDJPgEAi8+qMEiOAAAIIIIAAAgggUOMCBBI1XgUUAAEEEEAAAQQQQACBzBMgkMi8OqPECCCAAAIIIIAAAgjUuACBRI1XAQVAAAEEEEAAAQQQQCDzBAgkMq/OKDECCCCAAAIIIIAAAjUuQCBR41VAARBAAAEEEEAAAQQQyDwBAonMqzNKjAACCCCAAAIIIIBAjQsQSNR4FVAABBBAAAEEEEAAAQQyT4BAIvPqjBIjgAACCCCAAAIIIFDjAgQSNV4FFAABBBBAAAEEEEAAgcwTIJDIvDqjxAgggAACCCCAAAII1LgAgUSNVwEFQAABBBBAAAEEEEAg8wQIJDKvzigxAggggAACCCCAAAI1LkAgUeNVQAEQQAABBBBAAAEEEMg8AQKJzKszSowAAggggAACCCCAQI0LEEjUeBVQAAQQQAABBBBAAAEEMk+AQCLz6owSI4AAAggggAACCCBQ4wIEEjVeBRQAAQQQQAABBBBAAIHMEyCQyLw6o8QIIIAAAggggAACCNS4AIFEjVcBBUAAAQQQQAABBBBAIPMECCQyr84oMQIIIIAAAggggAACNS5AIFHjVUABEEAAAQQQQAABBBDIPIH6mVfkzCtxvT7rrVG3fGuYu8vq5RywOnUPZ95DUGIEEEAAAQQQQCCNAocP1bGi3Q1sf35T27cq14qWdExj7mRVHQIEElWorACi+YhVVr/Z/iq8C1kjgAACCCCAAAKZJ6AfVvWOpL+c7lvtoHtn2jGjGwFFBlUlgUQVVVajMYus+aCNVZQ72SKAAAIIIIAAAtkloICi9WlLbEfuDts3tV92PVyWPg1jJKqgYgkiqgCVLBFAAAEEEECgVgjoh1i9S5HiL0AgkeY6Croz0RKRZlWyQwABBBBAAIHaJKBgQu9UpHgLEEikuX40JoKEAAIIIIAAAgggUDkB3qkq51cdVxNIpFFZkTMDq9MISlYIIIAAAgggUGsF9E5Fq0S8q59AIo31oyleSQgggAACCCCAAALpEeDdKj2OVZULgUQaZbVOBAkBBBBAAAEEEEAgPQK8W6XHsapyIZBIo6wWmyMhgAACCCCAAAIIpEeAd6v0OFZVLgQSaZRlxeo0YpIVAggggAACCNR6Ad6t4v1PgEAi3vVD6RBAAAEEEEAAAQQQiKUAgUQsq4VCIYAAAggggAACCCAQbwECiXjXD6VDAAEEEEAAAQQQQCCWAgQSsawWCoUAAggggAACCCCAQLwFCCTiXT+UDgEEEEAAAQQQQACBWAoQSMSyWigUAggggAACCCCAAALxFiCQiHf9UDoEEEAAAQQQQAABBGIpQCARy2qhUAgggAACCCCAAAIIxFuAQCLe9UPpEEAAAQQQQAABBBCIpQCBRCyrhUIhgAACCCCAAAIIIBBvAQKJeNcPpUMAAQQQQAABBBBAIJYCBBKxrBYKhQACCCCAAAIIIIBAvAUIJOJdP5QOAQQQQAABBBBAAIFYChBIxLJaKBQCCCCAAAIIIIAAAvEWIJCId/1QOgQQQAABBBBAAAEEYilAIBHLaqFQCCCAAAIIIIAAAgjEW4BAIt71Q+kQQAABBBBAAAEEEIilAIFELKuFQiGAAAIIIIAAAgggEG8BAol41w+lQwABBBBAAAEEEEAglgIEErGsFgqFAAK1UWD72q1WtP9gbXx0nhkBBBBAIAMF6mdgmSkyAgggEEuBXZt32NYV+bZ7y047uPeANW6VY03zmlu7AR2sbr3Sf7c5fNjsxW8+ZmsnL7N6OQ3tgt9eZR2GdYnlM1IoBBBAAAEEvACBhJfgEwEEEKigwMaP1tiku1+3LXPWpsxBwcGgy0fa6C+cbvUa1itxzqY5a4IgQgeKdu+3jx6flhWBxPqZq+3V254KnrdltzZ28X2fKfHs7EAAAQQQyFwBAonMrTtKjgACMRCY9/QMe+8XL5ZZkiA4eHiyrZ++yj7280uDVoroBU1ym0W/WrP2LRK+Z+qXA3v2276CXUHxdzVpkKmPQbkRQAABBEoRKL2tvZQL2I0AAgggcETg3d+8UiKIaNmzrfU+f4gNvvok63hSz6CrkvdSi8XjV95nBcs2+13BZ4tOrWzcbedbm/4drM/Hh9kwdy0JAQQQQACBuAvQIhH3GqJ8CCAQS4GNc9fZ/Cc+CMvWvGsbO+t/LrZ2AzuG+7RxcN9Bm/Z/b9ucR6cG+9U68Z4LQC76w7UJ5w385AjTHwkBBBBAAIFMEaBFIlNqinIigECsBBa/OCcsj8ZAXPbw9SWCCJ1Qv1F9G/v1s+zEm04Pz9/wwUrbuWF7+J0NBBBAAAEEMlGAFolMrDXKjAACNS6wdXlx96SeE/pbAxdMlJWGfGqkTf/TxPCUAnd9sw7FYyEKVxW4mZ72B8db92jrBmWX/n+e1TVq6/ItQTDSsFkja9OrreX27WD1Gx+5RscPHSwK8mrTOy9hxqhdm3bYnsIj4xaad2hpjVo0Cc7bs3W3bXSDvgtXFFjzTi2tVfdca+26aZU121T4MBXciFNZKvgIXIYAAgjUaoHS/z9VrWbh4RFAAIFjCBxyc7YeTQ2bNfabpX7qhf2aZ79qRQeOrBPRtF1xEKGLXrn1SdvmggOlTzzwOWs/pHOwHf1P4coCe/fXL9v695dHdwfbTdw0s6d++2PWc3x/+/cNfw1mf9KBK5/6krXo3Do8//373rYlz80Ovp/6X+dbl5N62Evf/md47/BEt6ExG+P/+0IXpLSP7k7bdpzKkraHIiMEEECgFgnQtakWVTaPigAC6RPoMKJbmNnyNxeYftE/VtKaEnqp11+qaWDLun6Pm/3oua88kjKI0HV7XEvDa9/7ly08GiSUlZc/tjt/pz331X+kDCJ0TsHCDfbUpx+w/KWb/CVV9hmnslTZQ5IxAgggkGUCtEhkWYXyOAggUD0CHYYXLxinl/inb3jIzr7jEstLGmydjtJowPYrLkjQfXxq1aeddT+tX9AFacOsVbbi7cXBVKsT/+c5f8oxP2f8+Z3gnKadW1mP0/tZ3uBOdmDXPlv+1sJwXQudMOnOV0sMDj9m5uU8IU5lKWfROR0BBBCotQIEErW26nlwBBCojEDHE7pZhxO72Qa3NoTSrrWF9p/rHjS9lPe7YKh1Gtnd2rmuQccaO3E8ZZj6hzdt0+w14aljvnF2whSx/dx0s+O+eygINla/szg873g21H3ponuvsWj3rAEXj7D3/+8tm/3QpCALDQ7ftnqrtexa3EXqePIu7zlxKkt5y875CCCAQG0UoGtTbax1nhkBBCotoNmYzrvzyiCYiGamgEK/rj9/89/toQm/tqdccDH7H+/brs3FrQnR84+1XbS/yBY+Oys8rbR1JjQo+qyfXmxqqShPuuC3VyUEEbq2Th2zEz93SsIaGNvXbS1PthU6N05lqdADcBECCCBQywQIJGpZhfO4CCCQPoEGbrVmBRMn3DAu4aU7eof8+ett6t2v2aMf/729+K3Hg1/2o8ePta31KrT2hE+jv1A8jazf5z/V+jGqjOP+PP+pBfOatM7xXxM+lVdeZMD3dhcgVWWKU1mq8jnJGwEEEMgmAQKJbKpNngUBBKpdQMHEaLdGxGde+Lp97M4rbOCnRplWt06V1ry31P5z08PB1K2pjqfat2tj8XoTWq8iOmVsqvPb9jv+GZbaD+mUKotwX/ReB/ceCPdXxUacylIVz0eeCCCAQDYKMEYiG2uVZ0IAgWoXUEDR/dQ+wZ9uvn/nXtvw0VpbMXGRLXlpbtiqsM/NvvT09Q/Z1f/6kjVp0/SY5dyz9ciaDzqx3aDEVbNTXdysY6ugdSTaipHqPO1rmpc4BW3yefUbN0jeVWXf41SWKntIMkYAAQSyTIAWiSyrUB4HAQTiIaDBy93G9rbTv3e+XfXkzdb1tL5hwfSSv35W8eDp8ECKjXoN6oV7D+wq7uIU7kzaOHSgKAxakg7xFQEEEEAAgbQKEEiklZPMEEAAgZICObnN7OyfXRLM6OSPbpi12m+W+dkkt7jVQuMtilygUFbauqJ4xe2yzuMYAggggAAClRUgkKisINcjgECtE9i3fY+tc9O+6m/zgvXH9fz1G9cP1mrwJ+cv3ug3y/xs2a1NwvEtx7jf+unHF6AkZMoXBBBAAAEEKiBAIFEBNC5BAIHaLaCZlJ7/0t+Dv39/7kHTqtPHkwpXbAlPa9quebhd1kZu77yElozXb3/GFMikSptci8WUu15NdYh9CCCAAAIIpF2AQCLtpGSIAALZLpC8evXcf314zEfesX5bwmrRrZJaGsrKYPRNZ4SHtU7FK7c9ZWrROHzocLBfK1+vmbbCXvrWE+F5bCCAAAIIIFDVAszaVNXC5I8AAlkn0LhVjvU4e6CteG1+8Gwz7n/Xdm7aYSd/5Uxr3LJJieddNXmpvfb9pxP29z1vaML3sr70PW+wFa7Kt5kPvBucppWmn/r0A8HsTC27trGChRvCy5vkNbc9riwkBBBAAAEEqlqAQKKqhckfAQSyUuDkWybYejdGQtO5Ki1+ZpYtc4GFpmht3aud5bipXbetLrDN89bbtuXFXZp07tDPjrXmnVpq87jTqBtPs22rCmz5q/PCazT7UzSI0DoTWh36uVseDcsVnswGAggggAACaRYgkEgzKNkhgEDtEGjeqZVd8Y8v2Bs/fibssqQXe7UW6K+01P/SETbmS+NLO1zq/jp169iE2y+ybm6tijmPTzPN4ORT086trPc5g+yEa8dYoxYlW0T8eXwigAACCCCQTgECiXRqkhcCCNQqAXVxOv/OK23m36bYjIfeK3P9hrxhXWykWwG7y+geKY3qNSz+P8d16qUevqY1JfqdPyT40/iI/bv2ma6r36j42sNu2ETCKtR16iTcr2794ryj2wknHf1SN1KOuvWL17NIdW6qfdFr6tYtvq8/N3r/6LY/Hv2sbFmiebGNAAIIIJAegTqX3PzikdF66cmvVufS9vPv1Orn5+ERqM0Ch4oO2WbXSrBt9Vbzq1FrtesmbZpZ3uBO1rRtswrzFO0vCgdW121Q16Iv1cmZ7lhXaI9dcm+4+7o3v2MNXJcnEgIIIJCpAlsePC1Ti5715S7+GSvrH5UHRAABBKpOQC/37Yd0Dv7SfZc3fvJMOLC72/j+du7/XlbqLd7/v7fDYxp4TRARcrCBAAIIIJBmgZJtzWm+AdkhgAACCFROYOiVo8MMVr21MBiXoele9247sp6EujltWbTBXv7ev2zZy3PDc4defVK4zQYCCCCAAALpFqBFIt2i5IcAAgikWaCDG1/RYVT3cBD30hfnmP6UGrnZofzMUdHb9vvkCTbk8lHRXWwjgAACCCCQVgFaJNLKSWYIIIBA1QhccNdVNuLGcSUyTxVEnPztj9kZt13gBmKXf4B0iRuwAwEEEEAAgVIEaJEoBYbdCCCAQJwEFBSM+sLp1nPCAFs9ZbkVrthsBUs22+78ndayS2trO6Cj5fZrb3mDOlmr7m3iVHTKggACCCCQpQIEEllasTwWAghkp0BunzzTHwkBBBBAAIGaFqBrU03XAPdHAAEEEEAAAQQQQCADBQgkMrDSKDICCCCAAAIIIIAAAjUtQCBR0zXA/RFAAAEEEEAAAQQQyEABAokMrDSKjAACCCCAAAIIIIBATQsQSNR0DXB/BBBAAAEEEEAAAQQyUIBAIgMrjSIjgAACCCCAAAIIIFDTAgQSNV0D3B8BBBBAAAEEEEAAgQwUIJDIwEqjyAgggAACCCCAAAII1LQAgURN1wD3RwABBBBAAAEEEEAgAwUIJDKw0igyAggggAACCCCAAAI1LUAgUdM1wP0RQAABBBBAAAEEEMhAAQKJDKw0iowAAggggAACCCCAQE0LEEjUdA1wfwQQQAABBBBAAAEEMlCAQCIDK40iI4AAAggggAACCCBQ0wIEEmmsgcOH6qQxN7JCAAEEEEAAAQRqtwDvVvGufwKJNNZP0e4GacyNrBBAAAEEEEAAgdotwLtVvOufQCKN9bM/v2kacyMrBBBAAAEEEECgdgvwbhXv+ieQSGP97FuVm8bcyAoBBBBAAAEEEKjdArxbxbv+CSTSWD9FSzrawZ0N05gjWSGAAAIIIIAAArVTQO9UercixVeAQCLNdbNjRrc050h2CCCAAAIIIIBA7RPgnSr+dU4gkeY6UuS8Y177NOdKdggggAACCCCAQO0R0LsUrRHxr28CiSqoo31T+xFMVIErWSKAAAIIIIBA9gsoiNC7FCn+AvXjX8TMLKH+B3Awv7k1H7HK6jfbn5kPQakRQAABBBBAAIFqEtCYCHVnoiWimsDTcBsCiTQglpaF/odQ6P7q9VlvjbrlW8PcXVYv54DVqXu4tEvYjwACCCCAAAII1AoBLTandSI0xatmZyKAyLxqJ5CohjrT/zB2668a7sUtEEAAAQQQQAABBBCoDgHGSFSHMvdAAAEEEEAAAQQQQCDLBAgksqxCeRwEEEAAAQQQQAABBKpDgECiOpS5BwIIIIAAAggggAACWSZAIJFlFcrjIIAAAggggAACCCBQHQIEEtWhzD0QQAABBBBAAAEEEMgyAQKJLKtQHgcBBBBAAAEEEEAAgeoQIJCoDmXugQACCCCAAAIIIIBAlgkQSGRZhfI4CCCAAAIIIIAAAghUhwCBRHUocw8EEEAAAQQQQAABBLJMgEAiyyqUx0EAAQQQQAABBBBAoDoECCSqQ5l7IIAAAggggAACCCCQZQIEEllWoTwOAggggAACCCCAAALVIUAgUR3K3AMBBBBAAAEEEEAAgSwTIJDIsgrlcRBAAAEEEEAAAQQQqA4BAonqUOYeCCCAAAIIIIAAAghkmQCBRJZVKI+DAAIIIIAAAggggEB1CBBIVIcy90AAAQQQQAABBBBAIMsECCSyrEJ5HAQQQAABBBBAAAEEqkOAQKI6lLkHAggggAACCCCAAAJZJkAgkWUVyuMggAACCCCAAAIIIFAdAgQS1aHMPRBAAAEEEEAAAQQQyDIBAoksq1AeBwEEEEAAAQQQQACB6hAgkKgOZe6BAAIIIIAAAggggECWCRBIZFmF8jgIIIAAAggggAACCFSHAIFEdShzDwQQQAABBBBAAAEEskyAQCLLKpTHQQABBBBAAAEEEECgOgQIJKpDmXsggAACCCCAAAIIIJBlAgQSWVahPA4CCCCAAAIIIIAAAtUhQCBRHcrcAwEEEEAAAQQQQACBLBMgkMiyCuVxEEAAAQQQQAABBBCoDoH61XET7oEAAtklcOKQttanR6vjeqhDhw5ZfsE+m/bRJtu568BxXcNJCCBQUuBjp3W1Xt1aBAfemLzWFi0rLHkSexBAAIFqFCCQqEZsboVAtgh87tIB1rVjs3I/zr79RbZmwy773V9n2+p1O8t9PRcgUJsFLjuvl7Vr0yQgKDp0mECiNv9j4NkRiIkAgURMKoJiIFAbBBo1rGe93S+qd/9wnN3/xDx78a1VWf3YOU3q2313jLc6dcwOHza77VdTbM16AqisrnQeDgEEEKhFAgQStaiyeVQEqkpg6/Z9pWbduGF9a9K4XsJxvVjfeMUgm7d4q61cuyPhWDZ9UeDU1AUTPrVo1sBv8okAAggggEDGCxT/f7iMfxQeAAEEakLg4MFDdsP33izz1vXq1bGTT+hg37h+mNWr66IIlxRMXHd5f/vJbz8o81oOIoAAAggggEA8BZi1KZ71QqkQyCqBoqLD9t6H6+37rmtPNPU9zgHb0WvYRgABBBBAAIF4CNAiEY96oBQI1AqBxSu22V434Lqx6/KjpK4/x0pt3eDSkW6WqN7dNVtNHVvlukJpxprdew4e69LgeJtWjW3siPbWo2tza5/bxDZs2WMLl2612QsLbHP+nuPKQyeVpxwNGtS1Du1yrHWLRgn5d27f1Ha4mav27C2yLQXHf++GzkkNORpge+DAoSDPdu5Zzj61i3Xp0NSKig7ZrPn5NnXW8c+M1TSnvp02upN17dQscNmxa79t3LLXlqwotA8+2pxQ7tK+VNa2vNd3cQP81ZKltKVgr3Ms+W9AeerZlDQupbQxKe1yc6xxoyO/penfwd59RcE10f/Ur1/Xhg1oYycMams9Oje3/c5+wTL3b2dBQZkDnXVdx7ycIKtduw9aQeHeYFv5nHRCnrVo1tD+/vQi27B5d/R2wbb+7Ywammf9era0XXsO2OLl24K6LXEiOxBAAIEYCBBIxKASKAICtUlgx8791vjozDNHezmlfPyT3cv/168bljLY+PzlA23u4nz7ye8+cC/R7m0xRWrSuL597XND7aTh7cOXT502pJ/Z2ad0Ca5YuW6H/eDXU8sMSipSjk9+rKdd/fG+JUr1pWuHBPs0e9XVX3+1xPFUO/TCe9/PTg8PXfHVV+yHXxlpw/rnhvu0MW5UJ7vlM2ZTZ260X/5ppnuJTu3SumUj+6brYja4b26CSzQzle+1SWvsgcfnR3eH25W1rcj1ChB+96NxYRkmTltnd/9ldvjdb9z5g1OCF3X//Zbb37H1m3b5r+HnvT89Lexm9/Qry+xv7sU+mi45r6d9+hP9SxidOLidXXORWcG2ffazez6wFWtKjvG5YHw3u+6yAUF2292/9y//aKL97NtjgmDE32PyhxsTAonuLlC5/eujrFXzxOBT5yvw/OWfpvtL+UQAAQRiI0DXpthUBQVBoHYINHe/xvq0d9+RX9f9d//5teuG2q03jUgZROgc/So9pF9uMCOSft1NlX79/VNszAmJQUTyed07NbcHfjEh+FU++Zi+V7QcdfzP5qkyLee++m58STTd9cNTSwQR0eN65vt/MT78VT56TEHEH356emBXVhHVUnTh+O727RuHRy8PtytrW5Hr9av+nkirwaA+rcPy+A213CT/exh/cid/OPwc6K71Y3W083XXwuWTWhP+33fH2GcuLhlE+HP02cZZ/ub7p9pVF5UMGKPn1a1b1353+2kJQUT0uLbVUiGTVEGEjmuygh99dZS1btlYX0kIIIBAbAQIJGJTFRQEgewXOMu1BPhuTXraleu2l3joG64caOPHdA7364f15e5XX/0CvXhloenXcp/0MnffHWe4LiqJXaSuv2KgdXRdi3xSd6IP52y2R59dFPzSrl+TfdJLs4KW5FSZcixYstUWui4wKnc0rXO/jGv/tNkbo7vLta3uUUpyUX6TZ2yw/KNdZ3xG6lL1zetLBgE3Xzs4wX+36xr01tS19tenFtiTLy21Ra5bU7Qh49SRHU0tItFUWdvKXC87n3JbNXEBZWKQdcqJHfzh8HPkkHbhtt+YMLY4uFBwss6tbeLT1z43xAb0Kg5SDroWr/lLC0ytFhrns2VrcZc03f5T5/cuNRBVns1cNyv9O40mdVHbuWd/sEtd4P77K6MSAht1oVq2envQjUqtEUp61uSgMjjAfxBAAIEaFKBrUw3ic2sEaotAs6YN7DOX9Au7FOm59cL64D8XJBCoteKCM7qF+/QS9d93TbVlq4oDDr1Q/eq2sdar65EVfhUIXOoW6nr0P4vD68YMzwu3V7gxFd/62Xvhd7/xg1tGurEXR14y9XKufvXqz65U2XLMXpDv+tHnu1+QGwUtHv6e9/59TjDlrf9e0c9dbnzI5299wzRjlk8d85raPT8eF75cqwuOxhRExwhEu0NtcuMCvvLjdxLykOGooe3s+18e6bO1U07Ms/+8uiL8Xlnbylz/xqS1dsLAtkFZ9BI/bGAbmzUvPyzb2BPbh9t+o0uHkgsnDut/JA+dEw1O1H3q1JHFQYbG83z9p++5sTSJYxmuubivXX5e7+AWKscP3b+lL/7gbX/LlJ8KDv74yBwX+G20/ZFg+MufHhy0sPmLPlp4pMveIRds+PStG4fZuEi5/H4+EUAAgZoWoEWipmuA+yOQ4QLqCvLob88p9e9f955rD//6LDvn1K7hS65+kb3j3g9Mg6+j6Vs3DAvPUaDxg99MSQgidK76/n/355OtMLJ2hVo6oinaBWTl2uIgJHrOHx+ZG/1qPbscCUy0M13lSLhBmr7I5ae/m5YQAChrjQP402PzEu5yo2vd8UkBWHRw+5MvLi2Rh87VQGu1VPjUo0tzvxl8Vta2MtdPmr4hqH9foHGjOvrN4LNvj5YJ3/WloRu8rCDLp7puYI5fHVr7FJz49I3PD014qf/2HZNKBBE6VwHXJNcS5JPyGz4wccyKP6bPA5oi+b/esLenrksIIhS4aKyKT2s27LTb755m0SBCx+68f3bQQuHP4xMBBBCIiwAtEnGpCcqBQAYLRLsrHc9j3PfoXJs+Z0uJUwf1aRPu02DqVANZdYKCiQ/mbHItHF2D89WVR7MY+VmYjgw0dj8Vu6RfmN+cvC5oIQh2HP2P+tzfeNtbpjUulDQLkE/pKofPL52fsxZsKRGA+fxfnrjarnZ99v04gWj3Lpmoe06DBuoGdjiY+cpfF/1U61FDFxyWliprW5nr9YK93s101OloYDCkb/G/F8125McYKFDVoP5WR2fN0jiJfzxzpMVKLS5qRVBSWRSc+BSdjljdxlIN0vbn/uWJBXbKiOKuVAPdv13NnJUqPfb84rC1K3pcg/J9WbT/3r8nBrfRc//wtzluTMYp0V1sI4AAAjUuQCBR41VAARCofQKavUjTY0ZnylHLRoPIC+zKdTuD4KA0nVnzCsJAQuf079kqDCRWr98Zdn1Sv/Iff310MO3q1Fkb7b0P1gfTd+ol0k/LGb1HOssRzTdd25MjL76p8tywZXcYSPiAwp8X9fb79Gu9uol179LMurquUCOH5JXZF78ytrpnZa/XrFSXfKxXUPw8Fzz6NDbyUq9pVTUjl3/RVxc2H0icNrq4FUNBif/1P7nF5tV3V/usU37q345abnLc7GBKPd30wqWlV99Zk/JQNzf1rk/qRrXATUtcWlruxkxofFC0Vam0c9mPAAIIVJcAgUR1SXMfBLJUQL/+/uS301I+nX5tbdGsUbCGw1mndA5/MdZ+vQy+7F6wNrkXX6XkbimaNUh/x5vatCoe0PrrP8+0u/97XNCtxV/f3P3Srmlf9acgQi+RE6ett2deXZ6whkA6y+Hvnc7PuW4gd1lJrTj9ji70l+qlU7/cf/GaQTZmeAdr2qT8/y+gMrYqd2Wvf2nimjCQ0Mu/ZmCa70yi4yNmzt9ic9w6IT6QiI6TGBRpxZjixiv41NmtxxFN0XE50f3R7V27D4SBhG8liR7Xtv6t7XSD/VOlaBcrtaAcK2lsTKo6PdZ1HEcAAQSqSqD09uuquiP5IoBAVgkcdoHEnEUFKf8+ci9zmunmkX8vspu+/7ZtTlqELTo1Z+9uxWMUKgLUKDJzk36R/tpP37WlkUHa0Tz1AqoXv6su7GN/u/PsYGE3fzyd5fB5pvOzYGtxF6xU+a7bWDwDkY7rWX26YEI3e8Q975kndyk1iHDvvWWmytgq48per4HP0TEcp510pIVBLVI+aSzCtNmb3Ev8kT1+nISCqOgigS+5rmA+9emeOL5iTWQmJ39O8qeCBJ8a1C929vv06f7nUWryXbF0QqoF8ZIv3O0WqCMhgAACcRIo/89RcSo9ZUEAgYwR0AxDTzy/xC2aNjQsc9fIr8Dbdya+JKmPeqquR+HFSRsfudWGo0ktHd/9+SRr6frJn3d6V/cLfPtgFWh1XYomrSegrlYb3fkKfNJdjui90rHdpnXjhOlKk/PUWBGf1BXGv+wO6tvabvjUoIQ++TpPU8eudDNbqcvRXBcQznKzTd3/8wmmFpzSUkVtfX6VvX7e4oJg9WflN9StJ6I6bXl0ITdN17rk6CB+Ba6++5OC1g2bimdf0q/70dXFd+1ObBHQWJGtkWmCfdmjnzlNitcw0SxY5U37DhwM1ojQdccztWvTnNLrpLz35nwEEEAgHQIEEulQJA8EEDgugXc+2JAQSERfjOYvLUzI44W3VtoLb65K2FeRL9vc7E6PP7ck+NP1moXoXBdYnD66c/gSpx/tNYWsAomqKkdFyp7qmuEDcssMJKIDrLftKH451mrgkcaJYP2I/3t0XsIsQv5+ycGW35/8WV7bdF3/uptpadTQvCC79m1zgiDRP1t0gPTshVvCcTQaJ7FtR/H6IXNdMBJNC5YlziCmWbxWu3E6pSW19DRtooHrR9K6SJDi9x3rs6BwX9jdr7nrAnis1LQJgcSxjDiOAALVK0AgUb3e3A2BWi2g+fPVG8S/9DVqWNw6oC4r0WP6pbmsQKKX6wr19euGBZ6H3IW3/XJK0D1krFuU7KqP9wn2axzEL/44PcFcYwjucy/Q9z8+3/70/8aHXV26uVWuldJVjoSbpvHLwN6t7MW3Sg+wBvQuXkxNA6996hJp/ZHL7x76yB9K+FQLTpNIN7HowcraVvZ6X5b3Z6nb0uGg25Z+yb/k3J7+kE2fuzncfmPSujCQ0EDyvMjieq8lDabWGAWfpzI43XWZmvj+ujCv5A0N2o52G1OrTnmTpnv166Fo4bo8FxT5MUPJefV0A+LVRYuEAAIIxEmA/6sUp9qgLAjUAgENzvapYYPE3zJ27Cr+BX3UsDxr6BabKy1p5Wa9HOpP4x18H3MNIPb7T3J5aFG4VKnIdYHRTDg+RXu4p6McPt90f44a1t5yShkkfc64LuHgX903+nIbbWXYuq30cRaXnVf8Up5c9sraVvZ6Xx698K+NjAXxL+M6/taU4pd/zYLk/71pRjC9rCtpn9bLSE6FkRacEYPalvnv75PnFDupPGUFHcn38d+Tu+Nd/6kB/lCJz5uuKl4TpMRBdiCAAAI1JEAgUUPw3BaB2ipQVFS8GnNyP/y/RFa61tiFn3/35KD/e7LVDW6hNa1G7dPMecVrUujX6mj64jWDo1/Dbf3yPjgyg49WwPYpHeVQXlqILJr8StrRfeXd1pod//u9sSUuG9q/jX3hykHhfo0V+NeLy8Lv0eCoV7eW1jhFq8MXrh5kH5/QI7xGG9Ff3StrW9nrowXTCtHJSeNwosGTjicPPtc+jQdJlR56ckG4W8/9ux+dmtLpJjfrVXShvslucTq/KnqYwXFsvD5pjRuTUxw8K/C9+JweJa68yq0N0r9XcUtTiRPYgQACCNSQQOLPgTVUCG6LAAK1R0AvuL6NoEXz4sGqEtCvupef38sNij4yv35PN57hoV+d6bqrbHKLg+0xTfGqX4rbtGwcgmlA8W8fmh1+14uZ+sn71Yz1cnbfHWfY2y5vTenZsX2OjRqSZ33dLD3RX+mfe2NFmEc6yqHMNO3n/gOHwi4p+hV7xKB2tmr9Drv7L8VlDm98nBsKorSa+NKV29w0trusq/Pq17N12GVM2dz36JyEl1Q9+4mD2wV3UDDyV7fa+JxF+bZk5XYb0q+19ejcMhwzEi2G1pW45uK+9uq7a4J1Oipjm4668WXT4nufOr+3/xp8pppp6cM5m4MWquiJk6avj34Nt99x0wFf84m+pnEXSuoK9cAvzrQZ8zfbKjdeoo1r3RrsFp6LThWr1giNNalouufhj+z7Xx4ZXv65SwfYBDer1oJlW4N1I4YPaGvR9SbCE9lAAAEEYiBAIBGDSqAICNQmgX37D4ZTj+qF9vorBphWCfbpZ3+Ybr/6r7HhrEFa8GvcyE7+cMKne4ezO/7woe12M/BE0//c86H94Senhy/Wmq//8vMSXzqj5+vFMnml7XSUQ/dYvnpb+GuyfuXWL9lajK+iyffjl51aVKKtKj7P+a5LjwYkR9OdD8yyB395Zrjon7r6KKjRXzTtcMHPvCUFwQBm7Vd3JNkpKHrmtRVWWdvKXu/Lqhm9VNZoq1Z0fIQ/743Jay3aDUn7X3FrUZSW7rh3uv3vrWPDoKpJ43rBehSnjCh5hYLiX943vdR1IkpeUXKPuli9NXWtjR/TOTyowCFV8FDoBotHp4wNL2ADAQQQqCEBujbVEDy3RSCTBXy/cz1D8YiH43ui5K4mZ43tmnChBpt+/tY37H23DkBZSSsXf++Xk4P1K5LP01oFP7xzqu3ZW5R8KOG7XgSfenmZ/eb+kq0D6SiHbvY3t4aG7pOudPvd0xJaGqL5KrB698N19uMUCwQq2PrBb6ZaoZvFqrSkAOTG2960Pz82P/g1PNV5lbWt7PXRMmka2Gh6Y0pi8KRja1w3JrUK+aSX8Wh3Ir/ff+r86259PQim/L5UnwVuatgv/2hiyrEWGn/jk+rkWEkD3//4yJxgsHeqc9Vl666/zApa1PzxaBdBv49PBBBAoLoF6lxy84vH8X/mqrtY3A8BBBAwa+taEkYNbWdDXP//Vq4blF6GNRPRc2+sKnV2m6ibWgBGDM61caM6uu4tzYMWCo1bWLdxp+tLv9Nee29NidaM6PV+u7LlqOvGe5wwKNfatm4S9KXXC/vxrpGhLlp/+Mlpvih2y+3vBF23NAPSScPbBXmqtWDRykJ75/0NCWsjhBclbZwxppMN7tfGDVLPsZ27DwZjBl54c2XCuglN3cDkU0d2DNZh0Bob77qpe/fsLW75qaxtZa9PeqQq+dqhXY5pXIvW4FB3J/27mbt4q82Yl39c//7KW6gmrvVtzAntbdSwdtbcrRmxzE0GMOnDDbb46LoY5c2P8xFAAIGqFiCQqGph8kcAAQQqIVBaIFGJLLkUAQQQQACBtAjQtSktjGSCAAIIIIAAAggggEDtEiCQqF31zdMigAACCCCAAAIIIJAWAQKJtDCSCQIIIIAAAggggAACtUuAQKJ21TdPiwACCCCAAAIIIIBAWgRYRyItjGSCAAIIVI3Azt0HbFP+7jBzfSchgAACCCAQBwFmbYpDLVAGBBBAAAEEEEAAAQQyTICuTRlWYRQXAQQQQAABBBBAAIE4CBBIxKEWKAMCCCCAAAIIIIAAAhkmQCCRYRVGcRFAAAEEEEAAAQQQiIMAgUQcaoEyIIAAAggggAACCCCQYQIEEhlWYRQXAQQQQAABBBBAAIE4CBBIxKEWKAMCCCCAAAIIIIAAAhkmQCCRYRVGcRFAAAEEEEAAAQQQiIMAgUQcaoEyIIAAAggggAACCCCQYQIEEhlWYRQXAQQQQAABBBBAAIE4CBBIxKEWKAMCCCCAAAIIIIAAAhkmQCCRYRVGcRFAAAEEEEAAAQQQiIMAgUQcaoEyIIAAAggggAACCCCQYQIEEhlWYRQXAQQQQAABBBBAAIE4CBBIxKEWKAMCCCCAAAIIIIAAAhkmQCCRYRVGcRFAAAEEEEAAAQQQiIMAgUQcaoEyIIAAAggggAACCCCQYQIEEhlWYRQXAQQQQAABBBBAAIE4CBBIxKEWKAMCCCCAAAIIIIAAAhkmQCCRYRVGcRFAAAEEEEAAAQQQiIMAgUQcaoEyIIAAAggggAACCCCQYQIEEhlWYRQXAQQQQAABBBBAAIE4CBBIxKEWKAMCCCCAAAIIIIAAAhkmQCCRYRVGcRFAAAEEEEAAAQQQiIMAgUQcaoEyIIAAAggggAACCCCQYQIEEhlWYRQXAQQQQAABBBBAAIE4CBBIxKEWKAMCCCCAAAIIIIAAAhkmQCCRYRVGcRFAAAEEEEAAAQQQiIMAgUQcaoEyIIAAAggggAACCCCQYQIEEhlWYRQXAQQQQAABBBBAAIE4CBBIxKEWKAMCCCCAAAIIIIAAAhkmQCCRYRVGcRFAAAEEEEAAAQQQiIMAgUQcaoEyIIAAAggggAACCCCQYQIEEhlWYRQXAQQQQAABBBBAAIE4CPx/rgV6wddvBKAAAAAASUVORK5CYII=;" vertex="1" parent="1">
          <mxGeometry x="574" y="-1160" width="326.88" height="440" as="geometry" />
        </mxCell>
        <mxCell id="Alp5XPQn2nxa5z0a9zQi-4" value="" style="endArrow=oval;startArrow=oval;html=1;rounded=0;strokeWidth=2;dashed=1;dashPattern=1 2;startFill=1;endFill=1;strokeColor=#FF0000;" edge="1" parent="1">
          <mxGeometry width="50" height="50" relative="1" as="geometry">
            <mxPoint x="330" y="-905" as="sourcePoint" />
            <mxPoint x="440" y="-905" as="targetPoint" />
          </mxGeometry>
        </mxCell>
        <mxCell id="Alp5XPQn2nxa5z0a9zQi-6" value="" style="endArrow=oval;startArrow=oval;html=1;rounded=0;strokeWidth=2;dashed=1;dashPattern=1 2;startFill=1;endFill=1;strokeColor=#FF0000;" edge="1" parent="1">
          <mxGeometry width="50" height="50" relative="1" as="geometry">
            <mxPoint x="330" y="-850" as="sourcePoint" />
            <mxPoint x="440" y="-850" as="targetPoint" />
          </mxGeometry>
        </mxCell>
        <mxCell id="Alp5XPQn2nxa5z0a9zQi-7" value="&lt;div&gt;&lt;b style=&quot;&quot;&gt;&lt;font face=&quot;Verdana&quot; style=&quot;color: rgb(255, 0, 0); font-size: 16px;&quot;&gt;Missing label&lt;/font&gt;&lt;/b&gt;&lt;/div&gt;" style="text;html=1;align=center;verticalAlign=middle;whiteSpace=wrap;rounded=0;" vertex="1" parent="1">
          <mxGeometry x="430" y="-872" width="110" height="46" as="geometry" />
        </mxCell>
        <mxCell id="Alp5XPQn2nxa5z0a9zQi-10" value="" style="endArrow=oval;startArrow=oval;html=1;rounded=0;strokeWidth=2;dashed=1;dashPattern=1 2;startFill=1;endFill=1;strokeColor=#00994D;" edge="1" parent="1">
          <mxGeometry width="50" height="50" relative="1" as="geometry">
            <mxPoint x="757" y="-780" as="sourcePoint" />
            <mxPoint x="944" y="-780" as="targetPoint" />
          </mxGeometry>
        </mxCell>
        <mxCell id="Alp5XPQn2nxa5z0a9zQi-11" value="&lt;div&gt;&lt;b style=&quot;&quot;&gt;&lt;font face=&quot;Verdana&quot; style=&quot;font-size: 16px; color: rgb(0, 153, 77);&quot;&gt;6.92:1&lt;/font&gt;&lt;/b&gt;&lt;/div&gt;" style="text;html=1;align=center;verticalAlign=middle;whiteSpace=wrap;rounded=0;" vertex="1" parent="1">
          <mxGeometry x="940" y="-804" width="110" height="46" as="geometry" />
        </mxCell>
        <mxCell id="Alp5XPQn2nxa5z0a9zQi-13" value="&lt;div&gt;&lt;b style=&quot;&quot;&gt;&lt;font face=&quot;Verdana&quot; style=&quot;color: rgb(255, 0, 0); font-size: 16px;&quot;&gt;2.8:1,&lt;/font&gt;&lt;/b&gt;&lt;b style=&quot;background-color: transparent; color: light-dark(rgb(0, 0, 0), rgb(255, 255, 255));&quot;&gt;&lt;font style=&quot;font-size: 16px; color: rgb(0, 153, 77);&quot; face=&quot;Verdana&quot;&gt;&amp;nbsp;&lt;/font&gt;&lt;/b&gt;&lt;/div&gt;&lt;div&gt;&lt;b style=&quot;background-color: transparent; color: light-dark(rgb(0, 0, 0), rgb(255, 255, 255));&quot;&gt;&lt;font style=&quot;font-size: 16px; color: rgb(0, 153, 77);&quot; face=&quot;Verdana&quot;&gt;but label added&lt;/font&gt;&lt;/b&gt;&lt;/div&gt;" style="text;html=1;align=center;verticalAlign=middle;whiteSpace=wrap;rounded=0;" vertex="1" parent="1">
          <mxGeometry x="940" y="-932" width="110" height="46" as="geometry" />
        </mxCell>
        <mxCell id="Alp5XPQn2nxa5z0a9zQi-14" value="" style="endArrow=oval;startArrow=oval;html=1;rounded=0;strokeWidth=2;dashed=1;dashPattern=1 2;startFill=1;endFill=1;strokeColor=#FF0000;" edge="1" parent="1">
          <mxGeometry width="50" height="50" relative="1" as="geometry">
            <mxPoint x="784" y="-908.9" as="sourcePoint" />
            <mxPoint x="944" y="-909" as="targetPoint" />
          </mxGeometry>
        </mxCell>
        <mxCell id="Alp5XPQn2nxa5z0a9zQi-16" value="" style="endArrow=oval;startArrow=oval;html=1;rounded=0;strokeWidth=2;dashed=1;dashPattern=1 2;startFill=1;endFill=1;strokeColor=#FF0000;" edge="1" parent="1">
          <mxGeometry width="50" height="50" relative="1" as="geometry">
            <mxPoint x="774" y="-848.9" as="sourcePoint" />
            <mxPoint x="944" y="-849" as="targetPoint" />
          </mxGeometry>
        </mxCell>
        <mxCell id="Alp5XPQn2nxa5z0a9zQi-19" value="&lt;div&gt;&lt;b style=&quot;&quot;&gt;&lt;font face=&quot;Verdana&quot; style=&quot;color: rgb(255, 0, 0); font-size: 16px;&quot;&gt;2.8:1,&lt;/font&gt;&lt;/b&gt;&lt;b style=&quot;background-color: transparent; color: light-dark(rgb(0, 0, 0), rgb(255, 255, 255));&quot;&gt;&lt;font style=&quot;font-size: 16px; color: rgb(0, 153, 77);&quot; face=&quot;Verdana&quot;&gt;&amp;nbsp;&lt;/font&gt;&lt;/b&gt;&lt;/div&gt;&lt;div&gt;&lt;b style=&quot;background-color: transparent; color: light-dark(rgb(0, 0, 0), rgb(255, 255, 255));&quot;&gt;&lt;font style=&quot;font-size: 16px; color: rgb(0, 153, 77);&quot; face=&quot;Verdana&quot;&gt;but label added&lt;/font&gt;&lt;/b&gt;&lt;/div&gt;" style="text;html=1;align=center;verticalAlign=middle;whiteSpace=wrap;rounded=0;" vertex="1" parent="1">
          <mxGeometry x="940" y="-868" width="110" height="46" as="geometry" />
        </mxCell>
      </root>
    </mxGraphModel>
  </diagram>
</mxfile>
